Sprat-Extended Thin.ufo
<glyph name="exclam" format="2">
  <advance width="313"/>
  <unicode hex="0021"/>
  <outline>
    <contour>
      <point x="146" y="149" type="line"/>
      <point x="166" y="149" type="line"/>
      <point x="183" y="700" type="line"/>
      <point x="131" y="700" type="line"/>
    </contour>
    <contour>
      <point x="156" y="-15" type="curve" smooth="yes"/>
      <point x="173" y="-15"/>
      <point x="189" y="-5"/>
      <point x="189" y="15" type="curve" smooth="yes"/>
      <point x="189" y="34"/>
      <point x="173" y="43"/>
      <point x="156" y="43" type="curve" smooth="yes"/>
      <point x="140" y="43"/>
      <point x="123" y="34"/>
      <point x="123" y="15" type="curve" smooth="yes"/>
      <point x="123" y="-5"/>
      <point x="140" y="-15"/>
    </contour>
  </outline>
</glyph>
<glyph name="quotedbl" format="2">
  <advance width="374"/>
  <unicode hex="0022"/>
  <outline>
    <contour>
      <point x="184" y="520" type="line"/>
      <point x="261" y="551"/>
      <point x="276" y="606"/>
      <point x="269" y="686" type="curve" smooth="yes"/>
      <point x="267" y="706"/>
      <point x="253" y="715"/>
      <point x="235" y="715" type="curve" smooth="yes"/>
      <point x="219" y="715"/>
      <point x="201" y="706"/>
      <point x="201" y="687" type="curve" smooth="yes"/>
      <point x="201" y="666"/>
      <point x="219" y="656"/>
      <point x="235" y="656" type="curve" smooth="yes"/>
      <point x="239" y="656"/>
      <point x="243" y="656"/>
      <point x="248" y="657" type="curve"/>
      <point x="255" y="607"/>
      <point x="234" y="550"/>
      <point x="180" y="530" type="curve"/>
    </contour>
    <contour>
      <point x="84" y="520" type="line"/>
      <point x="161" y="551"/>
      <point x="177" y="606"/>
      <point x="169" y="686" type="curve" smooth="yes"/>
      <point x="167" y="706"/>
      <point x="153" y="715"/>
      <point x="135" y="715" type="curve" smooth="yes"/>
      <point x="119" y="715"/>
      <point x="101" y="706"/>
      <point x="101" y="687" type="curve" smooth="yes"/>
      <point x="101" y="666"/>
      <point x="119" y="656"/>
      <point x="135" y="656" type="curve" smooth="yes"/>
      <point x="139" y="656"/>
      <point x="143" y="656"/>
      <point x="148" y="657" type="curve"/>
      <point x="155" y="607"/>
      <point x="134" y="550"/>
      <point x="80" y="530" type="curve"/>
    </contour>
  </outline>
</glyph>
<glyph name="numbersign" format="2">
  <advance width="778"/>
  <unicode hex="0023"/>
  <outline>
    <contour>
      <point x="268" y="610" type="line"/>
      <point x="93" y="0" type="line"/>
      <point x="126" y="0" type="line"/>
      <point x="301" y="610" type="line"/>
    </contour>
    <contour>
      <point x="618" y="610" type="line"/>
      <point x="443" y="0" type="line"/>
      <point x="476" y="0" type="line"/>
      <point x="651" y="610" type="line"/>
    </contour>
    <contour>
      <point x="126" y="430" type="line"/>
      <point x="126" y="412" type="line"/>
      <point x="702" y="412" type="line"/>
      <point x="702" y="430" type="line"/>
    </contour>
    <contour>
      <point x="86" y="230" type="line"/>
      <point x="86" y="212" type="line"/>
      <point x="660" y="212" type="line"/>
      <point x="660" y="230" type="line"/>
    </contour>
  </outline>
</glyph>
<glyph name="dollar" format="2">
  <advance width="1057"/>
  <unicode hex="0024"/>
  <outline>
    <contour>
      <point x="101" y="318" type="line"/>
      <point x="138" y="41" type="line"/>
      <point x="216" y="-19"/>
      <point x="372" y="-75"/>
      <point x="535" y="-75" type="curve" smooth="yes"/>
      <point x="763" y="-75"/>
      <point x="965" y="-23"/>
      <point x="965" y="121" type="curve" smooth="yes"/>
      <point x="965" y="373"/>
      <point x="203" y="215"/>
      <point x="203" y="453" type="curve" smooth="yes"/>
      <point x="203" y="573"/>
      <point x="426" y="604"/>
      <point x="498" y="605" type="curve" smooth="yes"/>
      <point x="693" y="607"/>
      <point x="811" y="555"/>
      <point x="874" y="343" type="curve"/>
      <point x="884" y="343" type="line"/>
      <point x="827" y="563" type="line"/>
      <point x="746" y="601"/>
      <point x="601" y="625"/>
      <point x="498" y="625" type="curve" smooth="yes"/>
      <point x="315" y="625"/>
      <point x="156" y="559"/>
      <point x="160" y="432" type="curve" smooth="yes"/>
      <point x="168" y="171"/>
      <point x="925" y="329"/>
      <point x="925" y="101" type="curve" smooth="yes"/>
      <point x="925" y="-13"/>
      <point x="690" y="-55"/>
      <point x="550" y="-55" type="curve" smooth="yes"/>
      <point x="282" y="-55"/>
      <point x="151" y="41"/>
      <point x="112" y="318" type="curve"/>
    </contour>
    <contour>
      <point x="384" y="597" type="line"/>
      <point x="399" y="597" type="line"/>
      <point x="399" y="760" type="line"/>
      <point x="384" y="760" type="line"/>
    </contour>
    <contour>
      <point x="661" y="597" type="line"/>
      <point x="676" y="597" type="line"/>
      <point x="676" y="760" type="line"/>
      <point x="661" y="760" type="line"/>
    </contour>
    <contour>
      <point x="384" y="-213" type="line"/>
      <point x="399" y="-213" type="line"/>
      <point x="399" y="-50" type="line"/>
      <point x="384" y="-50" type="line"/>
    </contour>
    <contour>
      <point x="661" y="-213" type="line"/>
      <point x="676" y="-213" type="line"/>
      <point x="676" y="-50" type="line"/>
      <point x="661" y="-50" type="line"/>
    </contour>
  </outline>
</glyph>
<glyph name="quotesingle" format="2">
  <advance width="277"/>
  <unicode hex="0027"/>
  <outline>
    <contour>
      <point x="91" y="535" type="line"/>
      <point x="148" y="556"/>
      <point x="177" y="592"/>
      <point x="172" y="686" type="curve" smooth="yes"/>
      <point x="171" y="706"/>
      <point x="156" y="715"/>
      <point x="138" y="715" type="curve" smooth="yes"/>
      <point x="122" y="715"/>
      <point x="104" y="706"/>
      <point x="104" y="687" type="curve" smooth="yes"/>
      <point x="104" y="666"/>
      <point x="122" y="656"/>
      <point x="138" y="656" type="curve" smooth="yes"/>
      <point x="142" y="656"/>
      <point x="146" y="656"/>
      <point x="151" y="657" type="curve"/>
      <point x="155" y="607"/>
      <point x="137" y="569"/>
      <point x="85" y="548" type="curve"/>
    </contour>
  </outline>
</glyph>
<glyph name="parenleft" format="2">
  <advance width="454"/>
  <unicode hex="0028"/>
  <outline>
    <contour>
      <point x="400" y="-162" type="curve"/>
      <point x="403" y="-148" type="line"/>
      <point x="226" y="-58"/>
      <point x="101" y="110"/>
      <point x="100" y="300" type="curve" smooth="yes"/>
      <point x="99" y="492"/>
      <point x="225" y="659"/>
      <point x="407" y="746" type="curve"/>
      <point x="403" y="760" type="line"/>
      <point x="209" y="677"/>
      <point x="69" y="505"/>
      <point x="68" y="300" type="curve" smooth="yes"/>
      <point x="67" y="95"/>
      <point x="207" y="-79"/>
    </contour>
  </outline>
</glyph>
<glyph name="parenright" format="2">
  <advance width="453"/>
  <unicode hex="0029"/>
  <outline>
    <contour>
      <point x="53" y="-162" type="line"/>
      <point x="246" y="-79"/>
      <point x="386" y="95"/>
      <point x="385" y="300" type="curve" smooth="yes"/>
      <point x="384" y="505"/>
      <point x="244" y="677"/>
      <point x="50" y="760" type="curve"/>
      <point x="47" y="746" type="line"/>
      <point x="229" y="659"/>
      <point x="354" y="492"/>
      <point x="353" y="300" type="curve" smooth="yes"/>
      <point x="352" y="110"/>
      <point x="227" y="-58"/>
      <point x="50" y="-148" type="curve"/>
    </contour>
  </outline>
</glyph>
<glyph name="asterisk" format="2">
  <advance width="574"/>
  <unicode hex="002A"/>
  <outline>
    <contour>
      <point x="480" y="579" type="line"/>
      <point x="467" y="610" type="line"/>
      <point x="297" y="527" type="line"/>
      <point x="304" y="715" type="line"/>
      <point x="270" y="715" type="line"/>
      <point x="277" y="527" type="line"/>
      <point x="107" y="610" type="line"/>
      <point x="94" y="579" type="line"/>
      <point x="263" y="512" type="line"/>
      <point x="96" y="445" type="line"/>
      <point x="107" y="415" type="line"/>
      <point x="277" y="498" type="line"/>
      <point x="270" y="309" type="line"/>
      <point x="304" y="309" type="line"/>
      <point x="297" y="498" type="line"/>
      <point x="467" y="415" type="line"/>
      <point x="478" y="445" type="line"/>
      <point x="311" y="512" type="line"/>
    </contour>
  </outline>
</glyph>
<glyph name="plus" format="2">
  <advance width="1033"/>
  <unicode hex="002B"/>
  <outline>
    <contour>
      <point x="110" y="266" type="line"/>
      <point x="110" y="246" type="line"/>
      <point x="923" y="246" type="line"/>
      <point x="923" y="266" type="line"/>
    </contour>
    <contour>
      <point x="509" y="10" type="line"/>
      <point x="524" y="10" type="line"/>
      <point x="524" y="492" type="line"/>
      <point x="509" y="492" type="line"/>
    </contour>
  </outline>
</glyph>
<glyph name="comma" format="2">
  <advance width="314"/>
  <unicode hex="002C"/>
  <outline>
    <contour>
      <point x="94" y="-153" type="line" smooth="yes"/>
      <point x="171" y="-122"/>
      <point x="201" y="-65"/>
      <point x="197" y="15" type="curve"/>
      <point x="196" y="35"/>
      <point x="181" y="44"/>
      <point x="163" y="44" type="curve"/>
      <point x="147" y="44"/>
      <point x="129" y="35"/>
      <point x="129" y="16" type="curve"/>
      <point x="129" y="-5"/>
      <point x="147" y="-15"/>
      <point x="163" y="-15" type="curve"/>
      <point x="167" y="-15"/>
      <point x="171" y="-15"/>
      <point x="176" y="-14" type="curve" smooth="yes"/>
      <point x="180" y="-64"/>
      <point x="144" y="-123"/>
      <point x="90" y="-143" type="curve" smooth="yes"/>
    </contour>
  </outline>
</glyph>
<glyph name="hyphen" format="2">
  <advance width="508"/>
  <unicode hex="002D"/>
  <outline>
    <contour>
      <point x="98" y="266" type="line"/>
      <point x="98" y="246" type="line"/>
      <point x="410" y="246" type="line"/>
      <point x="410" y="266" type="line"/>
    </contour>
  </outline>
</glyph>
<glyph name="period" format="2">
  <advance width="332"/>
  <unicode hex="002E"/>
  <outline>
    <contour>
      <point x="165" y="-15" type="curve" smooth="yes"/>
      <point x="182" y="-15"/>
      <point x="198" y="-5"/>
      <point x="198" y="15" type="curve" smooth="yes"/>
      <point x="198" y="34"/>
      <point x="182" y="43"/>
      <point x="165" y="43" type="curve" smooth="yes"/>
      <point x="149" y="43"/>
      <point x="132" y="34"/>
      <point x="132" y="15" type="curve" smooth="yes"/>
      <point x="132" y="-5"/>
      <point x="149" y="-15"/>
    </contour>
  </outline>
</glyph>
<glyph name="slash" format="2">
  <advance width="336"/>
  <unicode hex="002F"/>
  <outline>
    <contour>
      <point x="280" y="722" type="line"/>
      <point x="31" y="-10" type="line"/>
      <point x="55" y="-10" type="line"/>
      <point x="304" y="722" type="line"/>
    </contour>
  </outline>
</glyph>
<glyph name="zero" format="2">
  <advance width="1123"/>
  <unicode hex="0030"/>
  <outline>
    <contour>
      <point x="563" y="-15" type="curve" smooth="yes"/>
      <point x="826" y="-15"/>
      <point x="1053" y="123"/>
      <point x="1053" y="345" type="curve" smooth="yes"/>
      <point x="1053" y="566"/>
      <point x="826" y="715"/>
      <point x="563" y="715" type="curve" smooth="yes"/>
      <point x="299" y="715"/>
      <point x="70" y="566"/>
      <point x="70" y="345" type="curve" smooth="yes"/>
      <point x="70" y="123"/>
      <point x="299" y="-15"/>
    </contour>
    <contour>
      <point x="563" y="30" type="curve" smooth="yes"/>
      <point x="324" y="30"/>
      <point x="85" y="126"/>
      <point x="85" y="347" type="curve" smooth="yes"/>
      <point x="85" y="571"/>
      <point x="326" y="670"/>
      <point x="565" y="670" type="curve" smooth="yes"/>
      <point x="802" y="670"/>
      <point x="1038" y="573"/>
      <point x="1038" y="347" type="curve" smooth="yes"/>
      <point x="1038" y="125"/>
      <point x="801" y="30"/>
    </contour>
  </outline>
</glyph>
<glyph name="one" format="2">
  <advance width="576"/>
  <unicode hex="0031"/>
  <outline>
    <contour>
      <point x="343" y="104" type="curve" smooth="yes"/>
      <point x="343" y="700" type="line"/>
      <point x="318" y="700" type="line"/>
      <point x="231" y="620"/>
      <point x="127" y="585"/>
      <point x="49" y="577" type="curve"/>
      <point x="49" y="562" type="line"/>
      <point x="106" y="564"/>
      <point x="224" y="593"/>
      <point x="298" y="650" type="curve"/>
      <point x="298" y="104" type="line" smooth="yes"/>
      <point x="298" y="16"/>
      <point x="202" y="17"/>
      <point x="108" y="10" type="curve"/>
      <point x="108" y="0" type="line"/>
      <point x="532" y="0" type="line"/>
      <point x="532" y="10" type="line"/>
      <point x="444" y="17"/>
      <point x="343" y="16"/>
    </contour>
  </outline>
</glyph>
<glyph name="two" format="2">
  <advance width="1022"/>
  <unicode hex="0032"/>
  <outline>
    <contour>
      <point x="748" y="-15" type="curve" smooth="yes"/>
      <point x="884" y="-15"/>
      <point x="925" y="19"/>
      <point x="925" y="162" type="curve"/>
      <point x="910" y="162" type="line"/>
      <point x="910" y="45"/>
      <point x="859" y="30"/>
      <point x="772" y="30" type="curve" smooth="yes"/>
      <point x="560" y="30"/>
      <point x="452" y="131"/>
      <point x="230" y="143" type="curve"/>
      <point x="494" y="317"/>
      <point x="952" y="306"/>
      <point x="952" y="515" type="curve" smooth="yes"/>
      <point x="952" y="655"/>
      <point x="748" y="715"/>
      <point x="525" y="715" type="curve" smooth="yes"/>
      <point x="371" y="715"/>
      <point x="207" y="686"/>
      <point x="98" y="637" type="curve"/>
      <point x="71" y="470" type="line"/>
      <point x="81" y="470" type="line"/>
      <point x="153" y="658"/>
      <point x="306" y="700"/>
      <point x="518" y="700" type="curve" smooth="yes"/>
      <point x="715" y="700"/>
      <point x="902" y="644"/>
      <point x="902" y="520" type="curve" smooth="yes"/>
      <point x="902" y="317"/>
      <point x="475" y="330"/>
      <point x="215" y="151" type="curve" smooth="yes"/>
      <point x="145" y="103"/>
      <point x="83" y="44"/>
      <point x="66" y="0" type="curve"/>
      <point x="81" y="0" type="line"/>
      <point x="107" y="40"/>
      <point x="133" y="68"/>
      <point x="154" y="83" type="curve" smooth="yes"/>
      <point x="168" y="93"/>
      <point x="188" y="99"/>
      <point x="213" y="99" type="curve" smooth="yes"/>
      <point x="383" y="99"/>
      <point x="566" y="-15"/>
    </contour>
  </outline>
</glyph>
<glyph name="three" format="2">
  <advance width="1085"/>
  <unicode hex="0033"/>
  <outline>
    <contour>
      <point x="504" y="-15" type="curve" smooth="yes"/>
      <point x="833" y="-15"/>
      <point x="1020" y="59"/>
      <point x="1020" y="197" type="curve" smooth="yes"/>
      <point x="1020" y="282"/>
      <point x="892" y="385"/>
      <point x="675" y="399" type="curve"/>
      <point x="851" y="416"/>
      <point x="986" y="461"/>
      <point x="986" y="551" type="curve" smooth="yes"/>
      <point x="986" y="642"/>
      <point x="806" y="715"/>
      <point x="558" y="715" type="curve" smooth="yes"/>
      <point x="434" y="715"/>
      <point x="278" y="689"/>
      <point x="156" y="637" type="curve"/>
      <point x="129" y="470" type="line"/>
      <point x="139" y="470" type="line"/>
      <point x="208" y="649"/>
      <point x="354" y="700"/>
      <point x="577" y="700" type="curve" smooth="yes"/>
      <point x="756" y="700"/>
      <point x="936" y="654"/>
      <point x="936" y="547" type="curve" smooth="yes"/>
      <point x="936" y="468"/>
      <point x="812" y="408"/>
      <point x="538" y="408" type="curve" smooth="yes"/>
      <point x="417" y="408" type="line"/>
      <point x="394" y="393" type="line"/>
      <point x="538" y="393" type="line" smooth="yes"/>
      <point x="832" y="393"/>
      <point x="970" y="303"/>
      <point x="970" y="188" type="curve" smooth="yes"/>
      <point x="970" y="58"/>
      <point x="763" y="0"/>
      <point x="542" y="0" type="curve" smooth="yes"/>
      <point x="238" y="0"/>
      <point x="139" y="47"/>
      <point x="71" y="230" type="curve"/>
      <point x="61" y="230" type="line"/>
      <point x="88" y="63" type="line"/>
      <point x="203" y="14"/>
      <point x="360" y="-15"/>
    </contour>
  </outline>
</glyph>
<glyph name="four" format="2">
  <advance width="1005"/>
  <unicode hex="0034"/>
  <outline>
    <contour>
      <point x="764" y="104" type="curve" smooth="yes"/>
      <point x="764" y="275" type="line"/>
      <point x="916" y="275" type="line"/>
      <point x="916" y="367" type="line"/>
      <point x="907" y="367" type="line"/>
      <point x="907" y="327"/>
      <point x="888" y="315"/>
      <point x="841" y="315" type="curve" smooth="yes"/>
      <point x="764" y="315" type="line"/>
      <point x="764" y="700" type="line"/>
      <point x="719" y="700" type="line"/>
      <point x="52" y="315" type="line"/>
      <point x="52" y="275" type="line"/>
      <point x="719" y="275" type="line"/>
      <point x="719" y="104" type="line" smooth="yes"/>
      <point x="719" y="16"/>
      <point x="623" y="17"/>
      <point x="529" y="10" type="curve"/>
      <point x="529" y="0" type="line"/>
      <point x="953" y="0" type="line"/>
      <point x="953" y="10" type="line"/>
      <point x="865" y="17"/>
      <point x="764" y="16"/>
    </contour>
    <contour>
      <point x="83" y="315" type="line"/>
      <point x="719" y="682" type="line"/>
      <point x="719" y="315" type="line"/>
    </contour>
  </outline>
</glyph>
<glyph name="five" format="2">
  <advance width="1019"/>
  <unicode hex="0035"/>
  <outline>
    <contour>
      <point x="884" y="608" type="curve"/>
      <point x="894" y="608" type="line"/>
      <point x="894" y="700" type="line"/>
      <point x="109" y="700" type="line"/>
      <point x="109" y="660" type="line"/>
      <point x="810" y="660" type="line"/>
      <point x="863" y="660"/>
      <point x="884" y="648"/>
    </contour>
    <contour>
      <point x="92" y="220" type="line"/>
      <point x="136" y="44" type="line"/>
      <point x="230" y="4"/>
      <point x="359" y="-15"/>
      <point x="486" y="-15" type="curve" smooth="yes"/>
      <point x="722" y="-15"/>
      <point x="953" y="62"/>
      <point x="953" y="242" type="curve" smooth="yes"/>
      <point x="953" y="378"/>
      <point x="794" y="516"/>
      <point x="487" y="516" type="curve" smooth="yes"/>
      <point x="338" y="516"/>
      <point x="194" y="477"/>
      <point x="124" y="384" type="curve"/>
      <point x="124" y="671" type="line"/>
      <point x="109" y="671" type="line"/>
      <point x="109" y="357" type="line"/>
      <point x="124" y="357" type="line"/>
      <point x="183" y="455"/>
      <point x="324" y="501"/>
      <point x="470" y="501" type="curve" smooth="yes"/>
      <point x="758" y="501"/>
      <point x="903" y="370"/>
      <point x="903" y="242" type="curve" smooth="yes"/>
      <point x="903" y="82"/>
      <point x="705" y="3"/>
      <point x="504" y="0" type="curve" smooth="yes"/>
      <point x="265" y="-4"/>
      <point x="202" y="28"/>
      <point x="102" y="220" type="curve"/>
    </contour>
  </outline>
</glyph>
<glyph name="six" format="2">
  <advance width="1137"/>
  <unicode hex="0036"/>
  <outline>
    <contour>
      <point x="1059" y="246" type="curve" smooth="yes"/>
      <point x="1059" y="422"/>
      <point x="848" y="516"/>
      <point x="579" y="516" type="curve" smooth="yes"/>
      <point x="374" y="516"/>
      <point x="185" y="473"/>
      <point x="124" y="372" type="curve"/>
      <point x="144" y="599"/>
      <point x="351" y="700"/>
      <point x="596" y="700" type="curve" smooth="yes"/>
      <point x="831" y="700"/>
      <point x="981" y="650"/>
      <point x="1032" y="470" type="curve"/>
      <point x="1042" y="470" type="line"/>
      <point x="1015" y="637" type="line"/>
      <point x="892" y="689"/>
      <point x="746" y="715"/>
      <point x="604" y="715" type="curve" smooth="yes"/>
      <point x="324" y="715"/>
      <point x="73" y="605"/>
      <point x="73" y="335" type="curve" smooth="yes"/>
      <point x="73" y="95"/>
      <point x="287" y="-15"/>
      <point x="576" y="-15" type="curve" smooth="yes"/>
      <point x="809" y="-15"/>
      <point x="1059" y="72"/>
    </contour>
    <contour>
      <point x="132" y="259" type="curve" smooth="yes"/>
      <point x="127" y="416"/>
      <point x="276" y="501"/>
      <point x="570" y="501" type="curve" smooth="yes"/>
      <point x="845" y="501"/>
      <point x="1009" y="395"/>
      <point x="1009" y="251" type="curve" smooth="yes"/>
      <point x="1009" y="105"/>
      <point x="848" y="0"/>
      <point x="573" y="0" type="curve" smooth="yes"/>
      <point x="263" y="0"/>
      <point x="135" y="155"/>
    </contour>
  </outline>
</glyph>
<glyph name="seven" format="2">
  <advance width="891"/>
  <unicode hex="0037"/>
  <outline>
    <contour>
      <point x="53" y="700" type="line"/>
      <point x="53" y="608" type="line"/>
      <point x="62" y="608" type="line"/>
      <point x="62" y="648"/>
      <point x="81" y="660"/>
      <point x="128" y="660" type="curve" smooth="yes"/>
      <point x="822" y="660" type="line"/>
      <point x="822" y="526"/>
      <point x="622" y="493"/>
      <point x="493" y="369" type="curve" smooth="yes"/>
      <point x="405" y="285"/>
      <point x="363" y="165"/>
      <point x="363" y="0" type="curve"/>
      <point x="413" y="0" type="line"/>
      <point x="405" y="134"/>
      <point x="429" y="226"/>
      <point x="470" y="294" type="curve" smooth="yes"/>
      <point x="586" y="485"/>
      <point x="837" y="482"/>
      <point x="837" y="660" type="curve"/>
      <point x="837" y="700" type="line"/>
    </contour>
  </outline>
</glyph>
<glyph name="eight" format="2">
  <advance width="1022"/>
  <unicode hex="0038"/>
  <outline>
    <contour>
      <point x="104" y="301"/>
      <point x="910" y="458"/>
      <point x="915" y="169" type="curve" smooth="yes"/>
      <point x="917" y="45"/>
      <point x="726" y="0"/>
      <point x="510" y="0" type="curve" smooth="yes"/>
      <point x="244" y="0"/>
      <point x="114" y="102"/>
      <point x="114" y="200" type="curve" smooth="yes"/>
      <point x="114" y="289"/>
      <point x="219" y="375"/>
      <point x="439" y="382" type="curve"/>
      <point x="429" y="397" type="line"/>
      <point x="182" y="385"/>
      <point x="64" y="291"/>
      <point x="64" y="196" type="curve" smooth="yes"/>
      <point x="64" y="92"/>
      <point x="209" y="-15"/>
      <point x="507" y="-15" type="curve" smooth="yes"/>
      <point x="747" y="-15"/>
      <point x="959" y="38"/>
      <point x="959" y="193" type="curve" smooth="yes"/>
      <point x="959" y="489"/>
      <point x="149" y="353"/>
      <point x="149" y="555" type="curve" smooth="yes"/>
      <point x="149" y="647"/>
      <point x="323" y="700"/>
      <point x="512" y="700" type="curve" smooth="yes"/>
      <point x="741" y="700"/>
      <point x="857" y="622"/>
      <point x="857" y="546" type="curve" smooth="yes"/>
      <point x="857" y="482"/>
      <point x="775" y="419"/>
      <point x="595" y="404" type="curve"/>
      <point x="596" y="391" type="line"/>
      <point x="809" y="405"/>
      <point x="908" y="477"/>
      <point x="908" y="549" type="curve" smooth="yes"/>
      <point x="908" y="632"/>
      <point x="776" y="716"/>
      <point x="511" y="716" type="curve" smooth="yes"/>
      <point x="299" y="716"/>
      <point x="104" y="658"/>
      <point x="104" y="544" type="curve" smooth="yes"/>
    </contour>
  </outline>
</glyph>
<glyph name="nine" format="2">
  <advance width="1138"/>
  <unicode hex="0039"/>
  <outline>
    <contour>
      <point x="78" y="454" type="curve" smooth="yes"/>
      <point x="78" y="278"/>
      <point x="289" y="184"/>
      <point x="558" y="184" type="curve" smooth="yes"/>
      <point x="763" y="184"/>
      <point x="952" y="227"/>
      <point x="1013" y="328" type="curve"/>
      <point x="993" y="101"/>
      <point x="826" y="0"/>
      <point x="561" y="0" type="curve" smooth="yes"/>
      <point x="326" y="0"/>
      <point x="156" y="50"/>
      <point x="105" y="230" type="curve"/>
      <point x="95" y="230" type="line"/>
      <point x="122" y="63" type="line"/>
      <point x="245" y="11"/>
      <point x="411" y="-15"/>
      <point x="553" y="-15" type="curve" smooth="yes"/>
      <point x="853" y="-15"/>
      <point x="1064" y="95"/>
      <point x="1064" y="365" type="curve" smooth="yes"/>
      <point x="1064" y="605"/>
      <point x="850" y="715"/>
      <point x="561" y="715" type="curve" smooth="yes"/>
      <point x="328" y="715"/>
      <point x="78" y="628"/>
    </contour>
    <contour>
      <point x="1005" y="441" type="curve" smooth="yes"/>
      <point x="1010" y="284"/>
      <point x="861" y="199"/>
      <point x="567" y="199" type="curve" smooth="yes"/>
      <point x="292" y="199"/>
      <point x="128" y="305"/>
      <point x="128" y="449" type="curve" smooth="yes"/>
      <point x="128" y="595"/>
      <point x="289" y="700"/>
      <point x="564" y="700" type="curve" smooth="yes"/>
      <point x="872" y="700"/>
      <point x="1002" y="545"/>
    </contour>
  </outline>
</glyph>
<glyph name="less" format="2">
  <advance width="1039"/>
  <unicode hex="003C"/>
  <outline>
    <contour>
      <point x="934" y="-7" type="line"/>
      <point x="934" y="14" type="line"/>
      <point x="132" y="267" type="line"/>
      <point x="934" y="521" type="line"/>
      <point x="934" y="542" type="line"/>
      <point x="105" y="279" type="line"/>
      <point x="105" y="255" type="line"/>
    </contour>
  </outline>
</glyph>
<glyph name="equal" format="2">
  <advance width="1033"/>
  <unicode hex="003D"/>
  <outline>
    <contour>
      <point x="110" y="396" type="line"/>
      <point x="110" y="376" type="line"/>
      <point x="923" y="376" type="line"/>
      <point x="923" y="396" type="line"/>
    </contour>
    <contour>
      <point x="110" y="136" type="line"/>
      <point x="110" y="116" type="line"/>
      <point x="923" y="116" type="line"/>
      <point x="923" y="136" type="line"/>
    </contour>
  </outline>
</glyph>
<glyph name="greater" format="2">
  <advance width="1039"/>
  <unicode hex="003E"/>
  <outline>
    <contour>
      <point x="105" y="542" type="line"/>
      <point x="105" y="521" type="line"/>
      <point x="907" y="267" type="line"/>
      <point x="105" y="14" type="line"/>
      <point x="105" y="-7" type="line"/>
      <point x="934" y="255" type="line"/>
      <point x="934" y="279" type="line"/>
    </contour>
  </outline>
</glyph>
<glyph name="question" format="2">
  <advance width="1065"/>
  <unicode hex="003F"/>
  <outline>
    <contour>
      <point x="538" y="161" type="curve" smooth="yes"/>
      <point x="635" y="161"/>
      <point x="700" y="193"/>
      <point x="700" y="248" type="curve"/>
      <point x="685" y="248" type="line"/>
      <point x="680" y="189"/>
      <point x="605" y="176"/>
      <point x="538" y="176" type="curve" smooth="yes"/>
      <point x="494" y="176"/>
      <point x="391" y="197"/>
      <point x="391" y="239" type="curve" smooth="yes"/>
      <point x="391" y="357"/>
      <point x="990" y="329"/>
      <point x="990" y="529" type="curve" smooth="yes"/>
      <point x="990" y="678"/>
      <point x="718" y="715"/>
      <point x="539" y="715" type="curve" smooth="yes"/>
      <point x="389" y="715"/>
      <point x="229" y="690"/>
      <point x="114" y="637" type="curve"/>
      <point x="77" y="470" type="line"/>
      <point x="87" y="470" type="line"/>
      <point x="148" y="650"/>
      <point x="287" y="700"/>
      <point x="550" y="700" type="curve" smooth="yes"/>
      <point x="712" y="700"/>
      <point x="945" y="651"/>
      <point x="945" y="529" type="curve" smooth="yes"/>
      <point x="945" y="365"/>
      <point x="361" y="377"/>
      <point x="361" y="239" type="curve" smooth="yes"/>
      <point x="361" y="190"/>
      <point x="440" y="161"/>
    </contour>
    <contour>
      <point x="538" y="-16" type="curve" smooth="yes"/>
      <point x="555" y="-16"/>
      <point x="571" y="-6"/>
      <point x="571" y="14" type="curve" smooth="yes"/>
      <point x="571" y="33"/>
      <point x="555" y="42"/>
      <point x="538" y="42" type="curve" smooth="yes"/>
      <point x="522" y="42"/>
      <point x="505" y="33"/>
      <point x="505" y="14" type="curve" smooth="yes"/>
      <point x="505" y="-6"/>
      <point x="522" y="-16"/>
    </contour>
  </outline>
</glyph>
<glyph name="at" format="2">
  <advance width="1357"/>
  <unicode hex="0040"/>
  <guideline x="1011" y="556" angle="0"/>
  <outline>
    <contour>
      <point x="675" y="-110" type="curve" smooth="yes"/>
      <point x="764" y="-110"/>
      <point x="850" y="-96"/>
      <point x="927" y="-74" type="curve"/>
      <point x="921" y="-59" type="line"/>
      <point x="853" y="-81"/>
      <point x="764" y="-95"/>
      <point x="675" y="-95" type="curve" smooth="yes"/>
      <point x="397" y="-95"/>
      <point x="124" y="5"/>
      <point x="124" y="250" type="curve" smooth="yes"/>
      <point x="124" y="464"/>
      <point x="397" y="605"/>
      <point x="675" y="605" type="curve" smooth="yes"/>
      <point x="948" y="605"/>
      <point x="1223" y="472"/>
      <point x="1223" y="210" type="curve" smooth="yes"/>
      <point x="1223" y="25"/>
      <point x="1164" y="-1"/>
      <point x="1122" y="-1" type="curve" smooth="yes"/>
      <point x="1079" y="-1"/>
      <point x="1049" y="35"/>
      <point x="1049" y="119" type="curve" smooth="yes"/>
      <point x="1049" y="296" type="line" smooth="yes"/>
      <point x="1049" y="490"/>
      <point x="876" y="515"/>
      <point x="682" y="515" type="curve" smooth="yes"/>
      <point x="513" y="515"/>
      <point x="397" y="487"/>
      <point x="335" y="458" type="curve"/>
      <point x="291" y="282" type="line"/>
      <point x="301" y="282" type="line"/>
      <point x="367" y="459"/>
      <point x="460" y="500"/>
      <point x="685" y="500" type="curve" smooth="yes"/>
      <point x="817" y="500"/>
      <point x="948" y="472"/>
      <point x="987" y="392" type="curve"/>
      <point x="470" y="361"/>
      <point x="271" y="261"/>
      <point x="271" y="148" type="curve" smooth="yes"/>
      <point x="271" y="35"/>
      <point x="402" y="-15"/>
      <point x="593" y="-15" type="curve" smooth="yes"/>
      <point x="784" y="-15"/>
      <point x="928" y="34"/>
      <point x="1009" y="118" type="curve"/>
      <point x="1013" y="24"/>
      <point x="1044" y="-15"/>
      <point x="1125" y="-15" type="curve" smooth="yes"/>
      <point x="1195" y="-15"/>
      <point x="1258" y="39"/>
      <point x="1258" y="208" type="curve" smooth="yes"/>
      <point x="1258" y="467"/>
      <point x="990" y="620"/>
      <point x="675" y="620" type="curve" smooth="yes"/>
      <point x="358" y="620"/>
      <point x="89" y="461"/>
      <point x="89" y="250" type="curve" smooth="yes"/>
      <point x="89" y="-2"/>
      <point x="358" y="-110"/>
    </contour>
    <contour>
      <point x="620" y="0" type="curve" smooth="yes"/>
      <point x="443" y="0"/>
      <point x="321" y="50"/>
      <point x="321" y="158" type="curve" smooth="yes"/>
      <point x="321" y="268"/>
      <point x="546" y="351"/>
      <point x="995" y="378" type="curve"/>
      <point x="1004" y="358"/>
      <point x="1009" y="336"/>
      <point x="1009" y="310" type="curve" smooth="yes"/>
      <point x="1009" y="218" type="line" smooth="yes"/>
      <point x="1009" y="80"/>
      <point x="813" y="0"/>
    </contour>
  </outline>
</glyph>
<glyph name="A" format="2">
  <advance width="1206"/>
  <unicode hex="0041"/>
  <anchor x="603" y="0" name="bottom"/>
  <anchor x="1085" y="10" name="ogonek"/>
  <anchor x="603" y="730" name="top"/>
  <outline>
    <contour>
      <point x="19" y="0" type="line"/>
      <point x="358" y="0" type="line"/>
      <point x="358" y="10" type="line"/>
      <point x="262" y="17"/>
      <point x="200" y="18"/>
      <point x="251" y="103" type="curve" smooth="yes"/>
      <point x="315" y="210" type="line"/>
      <point x="857" y="210" type="line"/>
      <point x="924" y="99" type="line" smooth="yes"/>
      <point x="972" y="19"/>
      <point x="908" y="17"/>
      <point x="814" y="10" type="curve"/>
      <point x="814" y="0" type="line"/>
      <point x="1187" y="0" type="line"/>
      <point x="1187" y="10" type="line"/>
      <point x="1094" y="17"/>
      <point x="1033" y="17"/>
      <point x="979" y="96" type="curve"/>
      <point x="605" y="715" type="line"/>
      <point x="600" y="715" type="line"/>
      <point x="232" y="103" type="line" smooth="yes"/>
      <point x="180" y="17"/>
      <point x="115" y="17"/>
      <point x="19" y="10" type="curve"/>
    </contour>
    <contour>
      <point x="324" y="225" type="line"/>
      <point x="586" y="660" type="line"/>
      <point x="847" y="225" type="line"/>
    </contour>
  </outline>
</glyph>
<glyph name="B" format="2">
  <advance width="1113"/>
  <unicode hex="0042"/>
  <anchor x="557" y="0" name="bottom"/>
  <anchor x="557" y="350" name="center"/>
  <anchor x="557" y="700" name="top"/>
  <outline>
    <contour>
      <point x="819" y="421" type="curve"/>
      <point x="934" y="420"/>
      <point x="1008" y="477"/>
      <point x="1008" y="555" type="curve" smooth="yes"/>
      <point x="1008" y="643"/>
      <point x="903" y="700"/>
      <point x="773" y="700" type="curve" smooth="yes"/>
      <point x="54" y="700" type="line"/>
      <point x="54" y="690" type="line"/>
      <point x="150" y="683"/>
      <point x="224" y="682"/>
      <point x="224" y="596" type="curve" smooth="yes"/>
      <point x="224" y="104" type="line" smooth="yes"/>
      <point x="224" y="18"/>
      <point x="150" y="17"/>
      <point x="54" y="10" type="curve"/>
      <point x="54" y="0" type="line"/>
      <point x="762" y="1" type="line" smooth="yes"/>
      <point x="946" y="1"/>
      <point x="1034" y="111"/>
      <point x="1034" y="218" type="curve" smooth="yes"/>
      <point x="1034" y="314"/>
      <point x="964" y="407"/>
    </contour>
    <contour>
      <point x="761" y="685" type="line" smooth="yes"/>
      <point x="892" y="685"/>
      <point x="958" y="630"/>
      <point x="958" y="556" type="curve" smooth="yes"/>
      <point x="958" y="482"/>
      <point x="894" y="429"/>
      <point x="761" y="429" type="curve" smooth="yes"/>
      <point x="269" y="429" type="line"/>
      <point x="269" y="685" type="line"/>
    </contour>
    <contour>
      <point x="741" y="16" type="curve" smooth="yes"/>
      <point x="269" y="15" type="line"/>
      <point x="269" y="414" type="line"/>
      <point x="741" y="414" type="line" smooth="yes"/>
      <point x="902" y="414"/>
      <point x="984" y="335"/>
      <point x="984" y="215" type="curve" smooth="yes"/>
      <point x="984" y="96"/>
      <point x="902" y="16"/>
    </contour>
  </outline>
</glyph>
<glyph name="C" format="2">
  <advance width="1223"/>
  <unicode hex="0043"/>
  <anchor x="612" y="0" name="bottom"/>
  <anchor x="612" y="700" name="top"/>
  <outline>
    <contour>
      <point x="678" y="715" type="curve" smooth="yes"/>
      <point x="362" y="715"/>
      <point x="73" y="578"/>
      <point x="73" y="345" type="curve" smooth="yes"/>
      <point x="73" y="143"/>
      <point x="338" y="-15"/>
      <point x="658" y="-15" type="curve" smooth="yes"/>
      <point x="929" y="-15"/>
      <point x="1077" y="58"/>
      <point x="1152" y="127" type="curve"/>
      <point x="1144" y="140" type="line"/>
      <point x="1079" y="80"/>
      <point x="940" y="0"/>
      <point x="658" y="0" type="curve" smooth="yes"/>
      <point x="298" y="0"/>
      <point x="123" y="171"/>
      <point x="123" y="343" type="curve" smooth="yes"/>
      <point x="123" y="521"/>
      <point x="307" y="700"/>
      <point x="663" y="700" type="curve" smooth="yes"/>
      <point x="897" y="700"/>
      <point x="1085" y="647"/>
      <point x="1130" y="470" type="curve"/>
      <point x="1140" y="470" type="line"/>
      <point x="1113" y="637" type="line"/>
      <point x="988" y="690"/>
      <point x="828" y="715"/>
    </contour>
  </outline>
</glyph>
<glyph name="D" format="2">
  <advance width="1196"/>
  <unicode hex="0044"/>
  <anchor x="598" y="0" name="bottom"/>
  <anchor x="598" y="350" name="center"/>
  <anchor x="598" y="700" name="top"/>
  <outline>
    <contour>
      <point x="664" y="700" type="curve" smooth="yes"/>
      <point x="54" y="700" type="line"/>
      <point x="54" y="690" type="line"/>
      <point x="150" y="683"/>
      <point x="224" y="682"/>
      <point x="224" y="596" type="curve" smooth="yes"/>
      <point x="224" y="104" type="line" smooth="yes"/>
      <point x="224" y="18"/>
      <point x="150" y="17"/>
      <point x="54" y="10" type="curve"/>
      <point x="54" y="0" type="line"/>
      <point x="677" y="0" type="line" smooth="yes"/>
      <point x="971" y="0"/>
      <point x="1120" y="164"/>
      <point x="1120" y="348" type="curve" smooth="yes"/>
      <point x="1120" y="534"/>
      <point x="969" y="700"/>
    </contour>
    <contour>
      <point x="661" y="15" type="curve" smooth="yes"/>
      <point x="269" y="15" type="line"/>
      <point x="269" y="685" type="line"/>
      <point x="646" y="685" type="line" smooth="yes"/>
      <point x="929" y="685"/>
      <point x="1070" y="525"/>
      <point x="1070" y="346" type="curve" smooth="yes"/>
      <point x="1070" y="170"/>
      <point x="933" y="15"/>
    </contour>
  </outline>
</glyph>
<glyph name="E" format="2">
  <advance width="1065"/>
  <unicode hex="0045"/>
  <anchor x="533" y="0" name="bottom"/>
  <anchor x="959" y="10" name="ogonek"/>
  <anchor x="533" y="700" name="top"/>
  <anchor x="20" y="700" name="topleft"/>
  <outline>
    <contour>
      <point x="804" y="685" type="line" smooth="yes"/>
      <point x="917" y="685"/>
      <point x="940" y="605"/>
      <point x="947" y="455" type="curve"/>
      <point x="957" y="455" type="line"/>
      <point x="957" y="700" type="line"/>
      <point x="54" y="700" type="line"/>
      <point x="54" y="690" type="line"/>
      <point x="150" y="683"/>
      <point x="224" y="682"/>
      <point x="224" y="596" type="curve" smooth="yes"/>
      <point x="224" y="104" type="line" smooth="yes"/>
      <point x="224" y="18"/>
      <point x="150" y="17"/>
      <point x="54" y="10" type="curve"/>
      <point x="54" y="0" type="line"/>
      <point x="957" y="0" type="line"/>
      <point x="957" y="244" type="line"/>
      <point x="947" y="244" type="line"/>
      <point x="941" y="106"/>
      <point x="921" y="15"/>
      <point x="830" y="15" type="curve" smooth="yes"/>
      <point x="269" y="15" type="line"/>
      <point x="269" y="485" type="line"/>
      <point x="542" y="484" type="line" smooth="yes"/>
      <point x="638" y="484"/>
      <point x="664" y="453"/>
      <point x="724" y="307" type="curve"/>
      <point x="734" y="310" type="line"/>
      <point x="629" y="620" type="line"/>
      <point x="619" y="617" type="line"/>
      <point x="642" y="517"/>
      <point x="633" y="500"/>
      <point x="542" y="500" type="curve" smooth="yes"/>
      <point x="269" y="500" type="line"/>
      <point x="269" y="685" type="line"/>
    </contour>
  </outline>
</glyph>
<glyph name="F" format="2">
  <advance width="1033"/>
  <unicode hex="0046"/>
  <anchor x="517" y="0" name="bottom"/>
  <anchor x="517" y="700" name="top"/>
  <outline>
    <contour>
      <point x="957" y="700" type="line"/>
      <point x="54" y="700" type="line"/>
      <point x="54" y="690" type="line"/>
      <point x="150" y="683"/>
      <point x="224" y="682"/>
      <point x="224" y="596" type="curve" smooth="yes"/>
      <point x="224" y="104" type="line" smooth="yes"/>
      <point x="224" y="18"/>
      <point x="150" y="17"/>
      <point x="54" y="10" type="curve"/>
      <point x="54" y="0" type="line"/>
      <point x="439" y="0" type="line"/>
      <point x="439" y="10" type="line"/>
      <point x="343" y="17"/>
      <point x="269" y="18"/>
      <point x="269" y="104" type="curve" smooth="yes"/>
      <point x="269" y="485" type="line"/>
      <point x="542" y="484" type="line" smooth="yes"/>
      <point x="638" y="484"/>
      <point x="664" y="453"/>
      <point x="724" y="307" type="curve"/>
      <point x="734" y="310" type="line"/>
      <point x="629" y="620" type="line"/>
      <point x="619" y="617" type="line"/>
      <point x="642" y="517"/>
      <point x="633" y="500"/>
      <point x="542" y="500" type="curve" smooth="yes"/>
      <point x="269" y="500" type="line"/>
      <point x="269" y="685" type="line"/>
      <point x="804" y="685" type="line" smooth="yes"/>
      <point x="917" y="685"/>
      <point x="940" y="605"/>
      <point x="947" y="455" type="curve"/>
      <point x="957" y="455" type="line"/>
    </contour>
  </outline>
</glyph>
<glyph name="G" format="2">
  <advance width="1336"/>
  <unicode hex="0047"/>
  <anchor x="668" y="0" name="bottom"/>
  <anchor x="668" y="700" name="top"/>
  <outline>
    <contour>
      <point x="898" y="429" type="line"/>
      <point x="898" y="419" type="line"/>
      <point x="994" y="412"/>
      <point x="1068" y="411"/>
      <point x="1068" y="325" type="curve" smooth="yes"/>
      <point x="1068" y="73" type="line"/>
      <point x="1015" y="48"/>
      <point x="885" y="0"/>
      <point x="667" y="0" type="curve" smooth="yes"/>
      <point x="297" y="0"/>
      <point x="122" y="171"/>
      <point x="122" y="343" type="curve" smooth="yes"/>
      <point x="122" y="521"/>
      <point x="306" y="700"/>
      <point x="662" y="700" type="curve" smooth="yes"/>
      <point x="896" y="700"/>
      <point x="1084" y="647"/>
      <point x="1129" y="470" type="curve"/>
      <point x="1139" y="470" type="line"/>
      <point x="1112" y="637" type="line"/>
      <point x="987" y="690"/>
      <point x="827" y="715"/>
      <point x="677" y="715" type="curve" smooth="yes"/>
      <point x="361" y="715"/>
      <point x="72" y="578"/>
      <point x="72" y="345" type="curve" smooth="yes"/>
      <point x="72" y="143"/>
      <point x="337" y="-15"/>
      <point x="667" y="-15" type="curve" smooth="yes"/>
      <point x="873" y="-15"/>
      <point x="1008" y="29"/>
      <point x="1069" y="56" type="curve"/>
      <point x="1113" y="-15" type="line"/>
      <point x="1113" y="325" type="line" smooth="yes"/>
      <point x="1113" y="413"/>
      <point x="1189" y="412"/>
      <point x="1283" y="419" type="curve"/>
      <point x="1283" y="429" type="line"/>
    </contour>
  </outline>
</glyph>
<glyph name="H" format="2">
  <advance width="1246"/>
  <unicode hex="0048"/>
  <anchor x="623" y="0" name="bottom"/>
  <anchor x="623" y="350" name="center"/>
  <anchor x="623" y="700" name="top"/>
  <anchor x="20" y="700" name="topleft"/>
  <outline>
    <contour>
      <point x="1192" y="690" type="curve"/>
      <point x="1192" y="700" type="line"/>
      <point x="807" y="700" type="line"/>
      <point x="807" y="690" type="line"/>
      <point x="903" y="683"/>
      <point x="977" y="682"/>
      <point x="977" y="596" type="curve" smooth="yes"/>
      <point x="977" y="500" type="line"/>
      <point x="269" y="500" type="line"/>
      <point x="269" y="596" type="line" smooth="yes"/>
      <point x="269" y="684"/>
      <point x="345" y="683"/>
      <point x="439" y="690" type="curve"/>
      <point x="439" y="700" type="line"/>
      <point x="54" y="700" type="line"/>
      <point x="54" y="690" type="line"/>
      <point x="150" y="683"/>
      <point x="224" y="682"/>
      <point x="224" y="596" type="curve" smooth="yes"/>
      <point x="224" y="104" type="line" smooth="yes"/>
      <point x="224" y="18"/>
      <point x="150" y="17"/>
      <point x="54" y="10" type="curve"/>
      <point x="54" y="0" type="line"/>
      <point x="439" y="0" type="line"/>
      <point x="439" y="10" type="line"/>
      <point x="345" y="17"/>
      <point x="269" y="16"/>
      <point x="269" y="104" type="curve" smooth="yes"/>
      <point x="269" y="485" type="line"/>
      <point x="977" y="485" type="line"/>
      <point x="977" y="104" type="line" smooth="yes"/>
      <point x="977" y="18"/>
      <point x="903" y="17"/>
      <point x="807" y="10" type="curve"/>
      <point x="807" y="0" type="line"/>
      <point x="1192" y="0" type="line"/>
      <point x="1192" y="10" type="line"/>
      <point x="1098" y="17"/>
      <point x="1022" y="16"/>
      <point x="1022" y="104" type="curve" smooth="yes"/>
      <point x="1022" y="596" type="line" smooth="yes"/>
      <point x="1022" y="684"/>
      <point x="1098" y="683"/>
    </contour>
  </outline>
</glyph>
<glyph name="I" format="2">
  <advance width="493"/>
  <unicode hex="0049"/>
  <anchor x="247" y="0" name="bottom"/>
  <anchor x="444" y="10" name="ogonek"/>
  <anchor x="247" y="700" name="top"/>
  <anchor x="20" y="700" name="topleft"/>
  <outline>
    <contour>
      <point x="54" y="0" type="line"/>
      <point x="439" y="0" type="line"/>
      <point x="439" y="10" type="line"/>
      <point x="345" y="17"/>
      <point x="269" y="16"/>
      <point x="269" y="104" type="curve" smooth="yes"/>
      <point x="269" y="596" type="line" smooth="yes"/>
      <point x="269" y="684"/>
      <point x="345" y="683"/>
      <point x="439" y="690" type="curve"/>
      <point x="439" y="700" type="line"/>
      <point x="54" y="700" type="line"/>
      <point x="54" y="690" type="line"/>
      <point x="150" y="683"/>
      <point x="224" y="682"/>
      <point x="224" y="596" type="curve" smooth="yes"/>
      <point x="224" y="104" type="line" smooth="yes"/>
      <point x="224" y="18"/>
      <point x="150" y="17"/>
      <point x="54" y="10" type="curve"/>
    </contour>
  </outline>
</glyph>
<glyph name="J" format="2">
  <advance width="482"/>
  <unicode hex="004A"/>
  <anchor x="241" y="0" name="bottom"/>
  <anchor x="241" y="700" name="top"/>
  <outline>
    <contour>
      <point x="434" y="700" type="line"/>
      <point x="49" y="700" type="line"/>
      <point x="49" y="690" type="line"/>
      <point x="145" y="683"/>
      <point x="219" y="682"/>
      <point x="219" y="596" type="curve" smooth="yes"/>
      <point x="219" y="13" type="line" smooth="yes"/>
      <point x="219" y="-143"/>
      <point x="123" y="-193"/>
      <point x="-25" y="-193" type="curve" smooth="yes"/>
      <point x="-121" y="-193"/>
      <point x="-207" y="-143"/>
      <point x="-246" y="-79" type="curve"/>
      <point x="-259" y="-87" type="line"/>
      <point x="-216" y="-163"/>
      <point x="-121" y="-216"/>
      <point x="-10" y="-216" type="curve" smooth="yes"/>
      <point x="143" y="-216"/>
      <point x="264" y="-171"/>
      <point x="264" y="22" type="curve" smooth="yes"/>
      <point x="264" y="596" type="line" smooth="yes"/>
      <point x="264" y="684"/>
      <point x="340" y="683"/>
      <point x="434" y="690" type="curve"/>
    </contour>
  </outline>
</glyph>
<glyph name="K" format="2">
  <advance width="1262"/>
  <unicode hex="004B"/>
  <anchor x="631" y="0" name="bottom"/>
  <anchor x="631" y="700" name="top"/>
  <outline>
    <contour>
      <point x="985" y="88" type="curve" smooth="yes"/>
      <point x="606" y="498" type="line"/>
      <point x="832" y="603" type="line" smooth="yes"/>
      <point x="1013" y="684"/>
      <point x="1095" y="683"/>
      <point x="1186" y="690" type="curve"/>
      <point x="1186" y="700" type="line"/>
      <point x="832" y="700" type="line"/>
      <point x="832" y="690" type="line"/>
      <point x="921" y="683"/>
      <point x="961" y="684"/>
      <point x="807" y="610" type="curve" smooth="yes"/>
      <point x="269" y="359" type="line"/>
      <point x="269" y="596" type="line" smooth="yes"/>
      <point x="269" y="684"/>
      <point x="345" y="683"/>
      <point x="439" y="690" type="curve"/>
      <point x="439" y="700" type="line"/>
      <point x="54" y="700" type="line"/>
      <point x="54" y="690" type="line"/>
      <point x="150" y="683"/>
      <point x="224" y="682"/>
      <point x="224" y="596" type="curve" smooth="yes"/>
      <point x="224" y="104" type="line" smooth="yes"/>
      <point x="224" y="18"/>
      <point x="150" y="17"/>
      <point x="54" y="10" type="curve"/>
      <point x="54" y="0" type="line"/>
      <point x="439" y="0" type="line"/>
      <point x="439" y="10" type="line"/>
      <point x="345" y="17"/>
      <point x="269" y="16"/>
      <point x="269" y="104" type="curve" smooth="yes"/>
      <point x="269" y="341" type="line"/>
      <point x="563" y="478" type="line"/>
      <point x="910" y="102" type="line" smooth="yes"/>
      <point x="987" y="16"/>
      <point x="927" y="17"/>
      <point x="834" y="10" type="curve"/>
      <point x="834" y="0" type="line"/>
      <point x="1210" y="0" type="line"/>
      <point x="1210" y="10" type="line"/>
      <point x="1122" y="17"/>
      <point x="1059" y="16"/>
    </contour>
  </outline>
</glyph>
<glyph name="L" format="2">
  <advance width="1022"/>
  <unicode hex="004C"/>
  <anchor x="511" y="0" name="bottom"/>
  <anchor x="511" y="350" name="center"/>
  <anchor x="269" y="700" name="top"/>
  <anchor x="488" y="800" name="topright"/>
  <outline>
    <contour>
      <point x="937" y="244" type="line"/>
      <point x="931" y="106"/>
      <point x="911" y="23"/>
      <point x="820" y="15" type="curve"/>
      <point x="269" y="15" type="line"/>
      <point x="269" y="596" type="line" smooth="yes"/>
      <point x="269" y="682"/>
      <point x="343" y="683"/>
      <point x="439" y="690" type="curve"/>
      <point x="439" y="700" type="line"/>
      <point x="54" y="700" type="line"/>
      <point x="54" y="690" type="line"/>
      <point x="150" y="683"/>
      <point x="224" y="682"/>
      <point x="224" y="596" type="curve" smooth="yes"/>
      <point x="224" y="104" type="line" smooth="yes"/>
      <point x="224" y="18"/>
      <point x="150" y="17"/>
      <point x="54" y="10" type="curve"/>
      <point x="54" y="0" type="line"/>
      <point x="947" y="0" type="line"/>
      <point x="947" y="244" type="line"/>
    </contour>
  </outline>
</glyph>
<glyph name="M" format="2">
  <advance width="1431"/>
  <unicode hex="004D"/>
  <anchor x="716" y="0" name="bottom"/>
  <anchor x="716" y="700" name="top"/>
  <outline>
    <contour>
      <point x="1377" y="690" type="curve"/>
      <point x="1377" y="700" type="line"/>
      <point x="1162" y="700" type="line"/>
      <point x="716" y="38" type="line"/>
      <point x="240" y="701" type="line"/>
      <point x="54" y="701" type="line"/>
      <point x="54" y="691" type="line"/>
      <point x="150" y="684"/>
      <point x="224" y="683"/>
      <point x="224" y="597" type="curve" smooth="yes"/>
      <point x="224" y="105" type="line" smooth="yes"/>
      <point x="224" y="19"/>
      <point x="150" y="18"/>
      <point x="54" y="11" type="curve"/>
      <point x="54" y="1" type="line"/>
      <point x="409" y="1" type="line"/>
      <point x="409" y="11" type="line"/>
      <point x="315" y="18"/>
      <point x="239" y="17"/>
      <point x="239" y="105" type="curve" smooth="yes"/>
      <point x="239" y="625" type="line"/>
      <point x="699" y="-15" type="line"/>
      <point x="1162" y="673" type="line"/>
      <point x="1162" y="104" type="line" smooth="yes"/>
      <point x="1162" y="18"/>
      <point x="1088" y="17"/>
      <point x="992" y="10" type="curve"/>
      <point x="992" y="0" type="line"/>
      <point x="1377" y="0" type="line"/>
      <point x="1377" y="10" type="line"/>
      <point x="1283" y="17"/>
      <point x="1207" y="16"/>
      <point x="1207" y="104" type="curve" smooth="yes"/>
      <point x="1207" y="596" type="line" smooth="yes"/>
      <point x="1207" y="684"/>
      <point x="1283" y="683"/>
    </contour>
  </outline>
</glyph>
<glyph name="N" format="2">
  <advance width="1264"/>
  <unicode hex="004E"/>
  <anchor x="632" y="0" name="bottom"/>
  <anchor x="632" y="700" name="top"/>
  <outline>
    <contour>
      <point x="860" y="700" type="line"/>
      <point x="860" y="690" type="line"/>
      <point x="956" y="683"/>
      <point x="1030" y="682"/>
      <point x="1030" y="596" type="curve" smooth="yes"/>
      <point x="1030" y="51" type="line"/>
      <point x="241" y="700" type="line"/>
      <point x="54" y="700" type="line"/>
      <point x="54" y="690" type="line"/>
      <point x="148" y="684"/>
      <point x="224" y="683"/>
      <point x="224" y="596" type="curve" smooth="yes"/>
      <point x="224" y="104" type="line" smooth="yes"/>
      <point x="224" y="18"/>
      <point x="150" y="17"/>
      <point x="54" y="10" type="curve"/>
      <point x="54" y="0" type="line"/>
      <point x="409" y="0" type="line"/>
      <point x="409" y="10" type="line"/>
      <point x="315" y="17"/>
      <point x="239" y="16"/>
      <point x="239" y="104" type="curve" smooth="yes"/>
      <point x="239" y="643" type="line"/>
      <point x="1040" y="-15" type="line"/>
      <point x="1045" y="-15" type="line"/>
      <point x="1045" y="596" type="line" smooth="yes"/>
      <point x="1045" y="684"/>
      <point x="1121" y="683"/>
      <point x="1215" y="690" type="curve"/>
      <point x="1215" y="700" type="line"/>
    </contour>
  </outline>
</glyph>
<glyph name="O" format="2">
  <advance width="1325"/>
  <unicode hex="004F"/>
  <anchor x="663" y="0" name="bottom"/>
  <anchor x="663" y="350" name="center"/>
  <anchor x="1193" y="10" name="ogonek"/>
  <anchor x="663" y="700" name="top"/>
  <anchor x="20" y="700" name="topleft"/>
  <anchor x="1305" y="700" name="topright"/>
  <outline>
    <contour>
      <point x="664" y="-15" type="curve" smooth="yes"/>
      <point x="979" y="-15"/>
      <point x="1252" y="123"/>
      <point x="1252" y="345" type="curve" smooth="yes"/>
      <point x="1252" y="564"/>
      <point x="979" y="715"/>
      <point x="664" y="715" type="curve" smooth="yes"/>
      <point x="347" y="715"/>
      <point x="73" y="566"/>
      <point x="73" y="345" type="curve" smooth="yes"/>
      <point x="73" y="123"/>
      <point x="347" y="-15"/>
    </contour>
    <contour>
      <point x="664" y="0" type="curve" smooth="yes"/>
      <point x="302" y="0"/>
      <point x="123" y="174"/>
      <point x="123" y="349" type="curve" smooth="yes"/>
      <point x="123" y="524"/>
      <point x="304" y="700"/>
      <point x="664" y="700" type="curve" smooth="yes"/>
      <point x="1022" y="700"/>
      <point x="1202" y="524"/>
      <point x="1202" y="348" type="curve" smooth="yes"/>
      <point x="1202" y="174"/>
      <point x="1024" y="0"/>
    </contour>
  </outline>
</glyph>
<glyph name="P" format="2">
  <advance width="1047"/>
  <unicode hex="0050"/>
  <anchor x="524" y="0" name="bottom"/>
  <anchor x="524" y="700" name="top"/>
  <outline>
    <contour>
      <point x="765" y="700" type="curve" smooth="yes"/>
      <point x="54" y="700" type="line"/>
      <point x="54" y="690" type="line"/>
      <point x="150" y="683"/>
      <point x="224" y="682"/>
      <point x="224" y="596" type="curve" smooth="yes"/>
      <point x="224" y="104" type="line" smooth="yes"/>
      <point x="224" y="18"/>
      <point x="150" y="17"/>
      <point x="54" y="10" type="curve"/>
      <point x="54" y="0" type="line"/>
      <point x="439" y="0" type="line"/>
      <point x="439" y="10" type="line"/>
      <point x="345" y="17"/>
      <point x="269" y="16"/>
      <point x="269" y="104" type="curve" smooth="yes"/>
      <point x="269" y="421" type="line"/>
      <point x="780" y="421" type="line" smooth="yes"/>
      <point x="917" y="421"/>
      <point x="984" y="469"/>
      <point x="984" y="555" type="curve" smooth="yes"/>
      <point x="984" y="626"/>
      <point x="919" y="700"/>
    </contour>
    <contour>
      <point x="778" y="685" type="line" smooth="yes"/>
      <point x="893" y="685"/>
      <point x="934" y="610"/>
      <point x="934" y="554" type="curve" smooth="yes"/>
      <point x="934" y="498"/>
      <point x="893" y="436"/>
      <point x="778" y="436" type="curve" smooth="yes"/>
      <point x="269" y="436" type="line"/>
      <point x="269" y="685" type="line"/>
    </contour>
  </outline>
</glyph>
<glyph name="Q" format="2">
  <advance width="1329"/>
  <unicode hex="0051"/>
  <anchor x="665" y="0" name="bottom"/>
  <anchor x="665" y="700" name="top"/>
  <outline>
    <contour>
      <point x="664" y="715" type="curve" smooth="yes"/>
      <point x="347" y="715"/>
      <point x="73" y="546"/>
      <point x="73" y="345" type="curve" smooth="yes"/>
      <point x="73" y="191"/>
      <point x="233" y="62"/>
      <point x="449" y="10" type="curve"/>
      <point x="304" y="10"/>
      <point x="247" y="-28"/>
      <point x="247" y="-103" type="curve"/>
      <point x="257" y="-103" type="line"/>
      <point x="257" y="-56"/>
      <point x="289" y="-14"/>
      <point x="372" y="-14" type="curve" smooth="yes"/>
      <point x="698" y="-14"/>
      <point x="772" y="-128"/>
      <point x="1004" y="-128" type="curve" smooth="yes"/>
      <point x="1088" y="-128"/>
      <point x="1149" y="-91"/>
      <point x="1149" y="-15" type="curve"/>
      <point x="1139" y="-15" type="line"/>
      <point x="1139" y="-85"/>
      <point x="1080" y="-104"/>
      <point x="1010" y="-104" type="curve" smooth="yes"/>
      <point x="908" y="-104"/>
      <point x="796" y="-48"/>
      <point x="653" y="-15" type="curve"/>
      <point x="986" y="-15"/>
      <point x="1252" y="145"/>
      <point x="1252" y="345" type="curve" smooth="yes"/>
      <point x="1252" y="546"/>
      <point x="979" y="715"/>
    </contour>
    <contour>
      <point x="122" y="349" type="curve" smooth="yes"/>
      <point x="122" y="502"/>
      <point x="304" y="700"/>
      <point x="664" y="700" type="curve" smooth="yes"/>
      <point x="1022" y="700"/>
      <point x="1202" y="502"/>
      <point x="1202" y="348" type="curve" smooth="yes"/>
      <point x="1202" y="199"/>
      <point x="1024" y="0"/>
      <point x="664" y="0" type="curve" smooth="yes"/>
      <point x="302" y="0"/>
      <point x="122" y="199"/>
    </contour>
  </outline>
</glyph>
<glyph name="R" format="2">
  <advance width="1161"/>
  <unicode hex="0052"/>
  <anchor x="581" y="0" name="bottom"/>
  <anchor x="581" y="700" name="top"/>
  <outline>
    <contour>
      <point x="990" y="91" type="curve" smooth="yes"/>
      <point x="932" y="253"/>
      <point x="1040" y="396"/>
      <point x="835" y="428" type="curve"/>
      <point x="949" y="440"/>
      <point x="984" y="505"/>
      <point x="984" y="555" type="curve" smooth="yes"/>
      <point x="984" y="626"/>
      <point x="919" y="700"/>
      <point x="752" y="700" type="curve" smooth="yes"/>
      <point x="54" y="700" type="line"/>
      <point x="54" y="690" type="line"/>
      <point x="150" y="683"/>
      <point x="224" y="682"/>
      <point x="224" y="596" type="curve" smooth="yes"/>
      <point x="224" y="104" type="line" smooth="yes"/>
      <point x="224" y="18"/>
      <point x="150" y="17"/>
      <point x="54" y="10" type="curve"/>
      <point x="54" y="0" type="line"/>
      <point x="439" y="0" type="line"/>
      <point x="439" y="10" type="line"/>
      <point x="345" y="17"/>
      <point x="269" y="16"/>
      <point x="269" y="104" type="curve" smooth="yes"/>
      <point x="269" y="421" type="line"/>
      <point x="767" y="421" type="line" smooth="yes"/>
      <point x="1000" y="421"/>
      <point x="890" y="216"/>
      <point x="944" y="86" type="curve" smooth="yes"/>
      <point x="975" y="12"/>
      <point x="1025" y="-3"/>
      <point x="1094" y="-3" type="curve" smooth="yes"/>
      <point x="1112" y="-3" type="line"/>
      <point x="1112" y="7" type="line"/>
      <point x="1052" y="7"/>
      <point x="1014" y="24"/>
    </contour>
    <contour>
      <point x="765" y="436" type="curve" smooth="yes"/>
      <point x="269" y="436" type="line"/>
      <point x="269" y="685" type="line"/>
      <point x="765" y="685" type="line" smooth="yes"/>
      <point x="893" y="685"/>
      <point x="934" y="616"/>
      <point x="934" y="561" type="curve" smooth="yes"/>
      <point x="934" y="506"/>
      <point x="893" y="436"/>
    </contour>
  </outline>
</glyph>
<glyph name="S" format="2">
  <advance width="1049"/>
  <unicode hex="0053"/>
  <anchor x="525" y="0" name="bottom"/>
  <anchor x="525" y="700" name="top"/>
  <outline>
    <contour>
      <point x="542" y="-15" type="curve" smooth="yes"/>
      <point x="833" y="-15"/>
      <point x="984" y="61"/>
      <point x="984" y="181" type="curve" smooth="yes"/>
      <point x="984" y="410"/>
      <point x="175" y="331"/>
      <point x="171" y="539" type="curve" smooth="yes"/>
      <point x="169" y="645"/>
      <point x="337" y="700"/>
      <point x="523" y="700" type="curve" smooth="yes"/>
      <point x="739" y="700"/>
      <point x="879" y="623"/>
      <point x="917" y="473" type="curve"/>
      <point x="927" y="473" type="line"/>
      <point x="900" y="640" type="line"/>
      <point x="800" y="683"/>
      <point x="693" y="715"/>
      <point x="523" y="715" type="curve" smooth="yes"/>
      <point x="287" y="715"/>
      <point x="133" y="639"/>
      <point x="133" y="519" type="curve" smooth="yes"/>
      <point x="133" y="301"/>
      <point x="946" y="364"/>
      <point x="946" y="162" type="curve" smooth="yes"/>
      <point x="946" y="56"/>
      <point x="768" y="0"/>
      <point x="557" y="0" type="curve" smooth="yes"/>
      <point x="186" y="0"/>
      <point x="134" y="146"/>
      <point x="85" y="363" type="curve"/>
      <point x="75" y="363" type="line"/>
      <point x="106" y="111" type="line"/>
      <point x="153" y="30"/>
      <point x="310" y="-15"/>
    </contour>
  </outline>
</glyph>
<glyph name="T" format="2">
  <advance width="1114"/>
  <unicode hex="0054"/>
  <anchor x="557" y="0" name="bottom"/>
  <anchor x="557" y="350" name="center"/>
  <anchor x="557" y="700" name="top"/>
  <outline>
    <contour>
      <point x="1038" y="700" type="line"/>
      <point x="76" y="700" type="line"/>
      <point x="76" y="455" type="line"/>
      <point x="86" y="455" type="line"/>
      <point x="93" y="605"/>
      <point x="116" y="685"/>
      <point x="229" y="685" type="curve" smooth="yes"/>
      <point x="533" y="685" type="line"/>
      <point x="533" y="104" type="line" smooth="yes"/>
      <point x="533" y="18"/>
      <point x="459" y="17"/>
      <point x="363" y="10" type="curve"/>
      <point x="363" y="0" type="line"/>
      <point x="748" y="0" type="line"/>
      <point x="748" y="10" type="line"/>
      <point x="654" y="17"/>
      <point x="578" y="16"/>
      <point x="578" y="104" type="curve" smooth="yes"/>
      <point x="578" y="685" type="line"/>
      <point x="885" y="685" type="line" smooth="yes"/>
      <point x="998" y="685"/>
      <point x="1021" y="605"/>
      <point x="1028" y="455" type="curve"/>
      <point x="1038" y="455" type="line"/>
    </contour>
  </outline>
</glyph>
<glyph name="U" format="2">
  <advance width="1315"/>
  <unicode hex="0055"/>
  <anchor x="658" y="0" name="bottom"/>
  <anchor x="1235" y="10" name="ogonek"/>
  <anchor x="658" y="700" name="top"/>
  <anchor x="1295" y="700" name="topright"/>
  <outline>
    <contour>
      <point x="1261" y="690" type="curve"/>
      <point x="1261" y="700" type="line"/>
      <point x="876" y="700" type="line"/>
      <point x="876" y="690" type="line"/>
      <point x="972" y="683"/>
      <point x="1046" y="682"/>
      <point x="1046" y="596" type="curve" smooth="yes"/>
      <point x="1044" y="239" type="line"/>
      <point x="1034" y="105"/>
      <point x="872" y="0"/>
      <point x="667" y="0" type="curve" smooth="yes"/>
      <point x="442" y="0"/>
      <point x="264" y="55"/>
      <point x="264" y="291" type="curve" smooth="yes"/>
      <point x="264" y="596" type="line" smooth="yes"/>
      <point x="264" y="684"/>
      <point x="340" y="683"/>
      <point x="434" y="690" type="curve"/>
      <point x="434" y="700" type="line"/>
      <point x="49" y="700" type="line"/>
      <point x="49" y="690" type="line"/>
      <point x="145" y="683"/>
      <point x="219" y="682"/>
      <point x="219" y="596" type="curve" smooth="yes"/>
      <point x="219" y="310" type="line" smooth="yes"/>
      <point x="219" y="31"/>
      <point x="416" y="-15"/>
      <point x="659" y="-15" type="curve" smooth="yes"/>
      <point x="838" y="-15"/>
      <point x="979" y="54"/>
      <point x="1043" y="153" type="curve"/>
      <point x="1042" y="-1" type="line"/>
      <point x="1261" y="0" type="line"/>
      <point x="1261" y="10" type="line"/>
      <point x="1167" y="17"/>
      <point x="1091" y="16"/>
      <point x="1091" y="104" type="curve" smooth="yes"/>
      <point x="1091" y="596" type="line" smooth="yes"/>
      <point x="1091" y="684"/>
      <point x="1167" y="683"/>
    </contour>
  </outline>
</glyph>
<glyph name="V" format="2">
  <advance width="1306"/>
  <unicode hex="0056"/>
  <anchor x="653" y="0" name="bottom"/>
  <anchor x="653" y="700" name="top"/>
  <outline>
    <contour>
      <point x="654" y="-15" type="line"/>
      <point x="659" y="-15" type="line"/>
      <point x="1024" y="597" type="line" smooth="yes"/>
      <point x="1075" y="683"/>
      <point x="1161" y="683"/>
      <point x="1257" y="690" type="curve"/>
      <point x="1257" y="700" type="line"/>
      <point x="898" y="700" type="line"/>
      <point x="898" y="690" type="line"/>
      <point x="994" y="683"/>
      <point x="1056" y="682"/>
      <point x="1005" y="597" type="curve"/>
      <point x="673" y="39" type="line"/>
      <point x="332" y="601" type="line" smooth="yes"/>
      <point x="283" y="681"/>
      <point x="348" y="683"/>
      <point x="442" y="690" type="curve"/>
      <point x="442" y="700" type="line"/>
      <point x="49" y="700" type="line"/>
      <point x="49" y="690" type="line"/>
      <point x="142" y="683"/>
      <point x="223" y="683"/>
      <point x="277" y="604" type="curve"/>
    </contour>
  </outline>
</glyph>
<glyph name="W" format="2">
  <advance width="1924"/>
  <unicode hex="0057"/>
  <anchor x="962" y="0" name="bottom"/>
  <anchor x="962" y="700" name="top"/>
  <outline>
    <contour>
      <point x="1528" y="700" type="line"/>
      <point x="1528" y="690" type="line"/>
      <point x="1624" y="683"/>
      <point x="1686" y="682"/>
      <point x="1635" y="597" type="curve"/>
      <point x="1349" y="46" type="line"/>
      <point x="1012" y="601" type="line" smooth="yes"/>
      <point x="964" y="681"/>
      <point x="1028" y="683"/>
      <point x="1122" y="690" type="curve"/>
      <point x="1122" y="700" type="line"/>
      <point x="739" y="700" type="line"/>
      <point x="739" y="690" type="line"/>
      <point x="830" y="683"/>
      <point x="899" y="683"/>
      <point x="953" y="610" type="curve"/>
      <point x="659" y="46" type="line"/>
      <point x="322" y="601" type="line" smooth="yes"/>
      <point x="274" y="681"/>
      <point x="338" y="683"/>
      <point x="432" y="690" type="curve"/>
      <point x="432" y="700" type="line"/>
      <point x="49" y="700" type="line"/>
      <point x="49" y="690" type="line"/>
      <point x="142" y="683"/>
      <point x="213" y="683"/>
      <point x="267" y="604" type="curve"/>
      <point x="644" y="-15" type="line"/>
      <point x="962" y="596" type="line"/>
      <point x="1334" y="-15" type="line"/>
      <point x="1652" y="597" type="line" smooth="yes"/>
      <point x="1699" y="687"/>
      <point x="1779" y="683"/>
      <point x="1875" y="690" type="curve"/>
      <point x="1875" y="700" type="line"/>
    </contour>
  </outline>
</glyph>
<glyph name="X" format="2">
  <advance width="1282"/>
  <unicode hex="0058"/>
  <anchor x="641" y="0" name="bottom"/>
  <anchor x="641" y="700" name="top"/>
  <outline>
    <contour>
      <point x="54" y="0" type="line"/>
      <point x="420" y="0" type="line"/>
      <point x="420" y="10" type="line"/>
      <point x="328" y="16"/>
      <point x="269" y="14"/>
      <point x="362" y="100" type="curve" smooth="yes"/>
      <point x="624" y="335" type="line"/>
      <point x="894" y="88" type="line" smooth="yes"/>
      <point x="967" y="21"/>
      <point x="909" y="17"/>
      <point x="821" y="10" type="curve"/>
      <point x="821" y="0" type="line"/>
      <point x="1228" y="0" type="line"/>
      <point x="1228" y="10" type="line"/>
      <point x="1136" y="16"/>
      <point x="1045" y="14"/>
      <point x="946" y="102" type="curve" smooth="yes"/>
      <point x="671" y="353" type="line"/>
      <point x="943" y="597" type="line" smooth="yes"/>
      <point x="1044" y="686"/>
      <point x="1135" y="684"/>
      <point x="1228" y="690" type="curve"/>
      <point x="1228" y="700" type="line"/>
      <point x="862" y="700" type="line"/>
      <point x="862" y="690" type="line"/>
      <point x="954" y="683"/>
      <point x="1011" y="684"/>
      <point x="921" y="600" type="curve" smooth="yes"/>
      <point x="658" y="365" type="line"/>
      <point x="388" y="612" type="line" smooth="yes"/>
      <point x="314" y="679"/>
      <point x="374" y="684"/>
      <point x="461" y="690" type="curve"/>
      <point x="461" y="700" type="line"/>
      <point x="54" y="700" type="line"/>
      <point x="54" y="690" type="line"/>
      <point x="147" y="683"/>
      <point x="239" y="684"/>
      <point x="335" y="599" type="curve" smooth="yes"/>
      <point x="611" y="347" type="line"/>
      <point x="335" y="99" type="line" smooth="yes"/>
      <point x="237" y="14"/>
      <point x="147" y="17"/>
      <point x="54" y="10" type="curve"/>
    </contour>
  </outline>
</glyph>
<glyph name="Y" format="2">
  <advance width="1198"/>
  <unicode hex="0059"/>
  <anchor x="599" y="0" name="bottom"/>
  <anchor x="664" y="700" name="top"/>
  <anchor x="20" y="700" name="topleft"/>
  <outline>
    <contour>
      <point x="474" y="0" type="line"/>
      <point x="859" y="0" type="line"/>
      <point x="859" y="10" type="line"/>
      <point x="765" y="17"/>
      <point x="689" y="16"/>
      <point x="689" y="104" type="curve" smooth="yes"/>
      <point x="689" y="350" type="line"/>
      <point x="908" y="597" type="line" smooth="yes"/>
      <point x="985" y="683"/>
      <point x="1076" y="683"/>
      <point x="1149" y="690" type="curve"/>
      <point x="1149" y="700" type="line"/>
      <point x="809" y="700" type="line"/>
      <point x="809" y="690" type="line"/>
      <point x="901" y="683"/>
      <point x="965" y="683"/>
      <point x="891" y="600" type="curve" smooth="yes"/>
      <point x="688" y="372" type="line"/>
      <point x="390" y="607" type="line" smooth="yes"/>
      <point x="295" y="682"/>
      <point x="351" y="683"/>
      <point x="441" y="690" type="curve"/>
      <point x="441" y="700" type="line"/>
      <point x="49" y="700" type="line"/>
      <point x="49" y="690" type="line"/>
      <point x="121" y="683"/>
      <point x="216" y="686"/>
      <point x="324" y="601" type="curve" smooth="yes"/>
      <point x="644" y="349" type="line"/>
      <point x="644" y="104" type="line" smooth="yes"/>
      <point x="644" y="16"/>
      <point x="568" y="17"/>
      <point x="474" y="10" type="curve"/>
    </contour>
  </outline>
</glyph>
<glyph name="Z" format="2">
  <advance width="1068"/>
  <unicode hex="005A"/>
  <anchor x="534" y="0" name="bottom"/>
  <anchor x="534" y="350" name="center"/>
  <anchor x="534" y="700" name="top"/>
  <outline>
    <contour>
      <point x="99" y="0" type="line"/>
      <point x="973" y="0" type="line"/>
      <point x="993" y="244" type="line"/>
      <point x="983" y="244" type="line"/>
      <point x="957" y="106"/>
      <point x="937" y="23"/>
      <point x="846" y="15" type="curve"/>
      <point x="169" y="15" type="line"/>
      <point x="969" y="685" type="line"/>
      <point x="969" y="700" type="line"/>
      <point x="95" y="700" type="line"/>
      <point x="75" y="456" type="line"/>
      <point x="85" y="456" type="line"/>
      <point x="111" y="594"/>
      <point x="131" y="677"/>
      <point x="222" y="685" type="curve"/>
      <point x="899" y="685" type="line"/>
      <point x="99" y="15" type="line"/>
    </contour>
  </outline>
</glyph>
<glyph name="bracketleft" format="2">
  <advance width="483"/>
  <unicode hex="005B"/>
  <outline>
    <contour>
      <point x="435" y="784" type="line"/>
      <point x="435" y="799" type="line"/>
      <point x="118" y="799" type="line"/>
      <point x="118" y="-109" type="line"/>
      <point x="435" y="-109" type="line"/>
      <point x="435" y="-94" type="line"/>
      <point x="152" y="-94" type="line"/>
      <point x="152" y="784" type="line"/>
    </contour>
  </outline>
</glyph>
<glyph name="backslash" format="2">
  <advance width="336"/>
  <unicode hex="005C"/>
  <outline>
    <contour>
      <point x="56" y="722" type="line"/>
      <point x="32" y="722" type="line"/>
      <point x="281" y="-10" type="line"/>
      <point x="305" y="-10" type="line"/>
    </contour>
  </outline>
</glyph>
<glyph name="bracketright" format="2">
  <advance width="483"/>
  <unicode hex="005D"/>
  <outline>
    <contour>
      <point x="48" y="-109" type="line"/>
      <point x="365" y="-109" type="line"/>
      <point x="365" y="799" type="line"/>
      <point x="48" y="799" type="line"/>
      <point x="48" y="784" type="line"/>
      <point x="331" y="784" type="line"/>
      <point x="331" y="-94" type="line"/>
      <point x="48" y="-94" type="line"/>
    </contour>
  </outline>
</glyph>
<glyph name="asciicircum" format="2">
  <advance width="714"/>
  <unicode hex="005E"/>
  <outline>
    <contour>
      <point x="634" y="578" type="line"/>
      <point x="357" y="722" type="line"/>
      <point x="80" y="578" type="line"/>
      <point x="89" y="564" type="line"/>
      <point x="357" y="702" type="line"/>
      <point x="625" y="564" type="line"/>
    </contour>
  </outline>
</glyph>
<glyph name="underscore" format="2">
  <advance width="548"/>
  <unicode hex="005F"/>
  <outline>
    <contour>
      <point x="98" y="-14" type="line"/>
      <point x="98" y="-34" type="line"/>
      <point x="450" y="-34" type="line"/>
      <point x="450" y="-14" type="line"/>
    </contour>
  </outline>
</glyph>
<glyph name="a" format="2">
  <advance width="1071"/>
  <unicode hex="0061"/>
  <anchor x="536" y="0" name="bottom"/>
  <anchor x="1024" y="10" name="ogonek"/>
  <anchor x="504" y="500" name="top"/>
  <outline>
    <contour>
      <point x="383" y="-15" type="curve" smooth="yes"/>
      <point x="574" y="-15"/>
      <point x="718" y="34"/>
      <point x="799" y="118" type="curve"/>
      <point x="803" y="25"/>
      <point x="834" y="-15"/>
      <point x="902" y="-15" type="curve" smooth="yes"/>
      <point x="961" y="-15"/>
      <point x="998" y="14"/>
      <point x="1039" y="70" type="curve"/>
      <point x="1028" y="81" type="line"/>
      <point x="992" y="28"/>
      <point x="950" y="0"/>
      <point x="907" y="0" type="curve" smooth="yes"/>
      <point x="848" y="0"/>
      <point x="839" y="46"/>
      <point x="839" y="119" type="curve" smooth="yes"/>
      <point x="839" y="296" type="line" smooth="yes"/>
      <point x="839" y="490"/>
      <point x="666" y="515"/>
      <point x="472" y="515" type="curve" smooth="yes"/>
      <point x="303" y="515"/>
      <point x="187" y="487"/>
      <point x="125" y="458" type="curve"/>
      <point x="81" y="282" type="line"/>
      <point x="91" y="282" type="line"/>
      <point x="157" y="459"/>
      <point x="250" y="500"/>
      <point x="475" y="500" type="curve" smooth="yes"/>
      <point x="607" y="500"/>
      <point x="738" y="472"/>
      <point x="777" y="392" type="curve"/>
      <point x="260" y="361"/>
      <point x="61" y="261"/>
      <point x="61" y="148" type="curve" smooth="yes"/>
      <point x="61" y="35"/>
      <point x="192" y="-15"/>
    </contour>
    <contour>
      <point x="410" y="0" type="curve" smooth="yes"/>
      <point x="233" y="0"/>
      <point x="111" y="50"/>
      <point x="111" y="158" type="curve" smooth="yes"/>
      <point x="111" y="268"/>
      <point x="336" y="351"/>
      <point x="785" y="378" type="curve"/>
      <point x="794" y="358"/>
      <point x="799" y="336"/>
      <point x="799" y="310" type="curve" smooth="yes"/>
      <point x="799" y="218" type="line" smooth="yes"/>
      <point x="799" y="80"/>
      <point x="603" y="0"/>
    </contour>
  </outline>
</glyph>
<glyph name="b" format="2">
  <advance width="968"/>
  <unicode hex="0062"/>
  <anchor x="484" y="0" name="bottom"/>
  <anchor x="484" y="250" name="center"/>
  <anchor x="484" y="500" name="top"/>
  <outline>
    <contour>
      <point x="98" y="-15" type="line"/>
      <point x="103" y="-15" type="line"/>
      <point x="138" y="137" type="line"/>
      <point x="208" y="44"/>
      <point x="360" y="-15"/>
      <point x="519" y="-15" type="curve" smooth="yes"/>
      <point x="734" y="-15"/>
      <point x="915" y="94"/>
      <point x="915" y="250" type="curve" smooth="yes"/>
      <point x="915" y="406"/>
      <point x="734" y="515"/>
      <point x="519" y="515" type="curve" smooth="yes"/>
      <point x="359" y="515"/>
      <point x="208" y="457"/>
      <point x="138" y="364" type="curve"/>
      <point x="138" y="700" type="line"/>
      <point x="-72" y="700" type="line"/>
      <point x="-72" y="690" type="line"/>
      <point x="22" y="684"/>
      <point x="98" y="683"/>
      <point x="98" y="596" type="curve" smooth="yes"/>
    </contour>
    <contour>
      <point x="504" y="0" type="curve" smooth="yes"/>
      <point x="344" y="0"/>
      <point x="138" y="86"/>
      <point x="138" y="249" type="curve" smooth="yes"/>
      <point x="138" y="415"/>
      <point x="344" y="500"/>
      <point x="505" y="500" type="curve" smooth="yes"/>
      <point x="686" y="500"/>
      <point x="865" y="417"/>
      <point x="865" y="249" type="curve" smooth="yes"/>
      <point x="865" y="82"/>
      <point x="685" y="0"/>
    </contour>
  </outline>
</glyph>
<glyph name="c" format="2">
  <advance width="887"/>
  <unicode hex="0063"/>
  <anchor x="444" y="0" name="bottom"/>
  <anchor x="444" y="500" name="top"/>
  <outline>
    <contour>
      <point x="480" y="-15" type="curve" smooth="yes"/>
      <point x="673" y="-15"/>
      <point x="773" y="31"/>
      <point x="839" y="127" type="curve"/>
      <point x="827" y="137" type="line"/>
      <point x="771" y="46"/>
      <point x="659" y="0"/>
      <point x="512" y="0" type="curve" smooth="yes"/>
      <point x="240" y="0"/>
      <point x="105" y="129"/>
      <point x="105" y="256" type="curve" smooth="yes"/>
      <point x="105" y="375"/>
      <point x="223" y="491"/>
      <point x="463" y="500" type="curve" smooth="yes"/>
      <point x="647" y="500"/>
      <point x="739" y="458"/>
      <point x="805" y="282" type="curve"/>
      <point x="815" y="282" type="line"/>
      <point x="771" y="458" type="line"/>
      <point x="709" y="487"/>
      <point x="593" y="515"/>
      <point x="464" y="515" type="curve" smooth="yes"/>
      <point x="194" y="507"/>
      <point x="55" y="385"/>
      <point x="55" y="247" type="curve" smooth="yes"/>
      <point x="55" y="106"/>
      <point x="201" y="-15"/>
    </contour>
  </outline>
</glyph>
<glyph name="d" format="2">
  <advance width="1009"/>
  <unicode hex="0064"/>
  <anchor x="505" y="0" name="bottom"/>
  <anchor x="505" y="250" name="center"/>
  <anchor x="505" y="800" name="top"/>
  <anchor x="920" y="800" name="topright"/>
  <outline>
    <contour>
      <point x="450" y="-15" type="curve" smooth="yes"/>
      <point x="609" y="-15"/>
      <point x="761" y="44"/>
      <point x="831" y="137" type="curve"/>
      <point x="863" y="-15" type="line"/>
      <point x="871" y="-15" type="line"/>
      <point x="871" y="700" type="line"/>
      <point x="661" y="700" type="line"/>
      <point x="661" y="690" type="line"/>
      <point x="755" y="684"/>
      <point x="831" y="683"/>
      <point x="831" y="596" type="curve" smooth="yes"/>
      <point x="831" y="364" type="line"/>
      <point x="761" y="457"/>
      <point x="610" y="515"/>
      <point x="450" y="515" type="curve" smooth="yes"/>
      <point x="235" y="515"/>
      <point x="54" y="406"/>
      <point x="54" y="250" type="curve" smooth="yes"/>
      <point x="54" y="94"/>
      <point x="235" y="-15"/>
    </contour>
    <contour>
      <point x="465" y="0" type="curve" smooth="yes"/>
      <point x="284" y="0"/>
      <point x="104" y="82"/>
      <point x="104" y="249" type="curve" smooth="yes"/>
      <point x="104" y="417"/>
      <point x="283" y="500"/>
      <point x="464" y="500" type="curve" smooth="yes"/>
      <point x="625" y="500"/>
      <point x="831" y="415"/>
      <point x="831" y="249" type="curve" smooth="yes"/>
      <point x="831" y="86"/>
      <point x="625" y="0"/>
    </contour>
  </outline>
</glyph>
<glyph name="e" format="2">
  <advance width="915"/>
  <unicode hex="0065"/>
  <anchor x="458" y="0" name="bottom"/>
  <anchor x="824" y="10" name="ogonek"/>
  <anchor x="458" y="500" name="top"/>
  <outline>
    <contour>
      <point x="491" y="-15" type="curve" smooth="yes"/>
      <point x="740" y="-15"/>
      <point x="821" y="81"/>
      <point x="866" y="151" type="curve"/>
      <point x="853" y="159" type="line"/>
      <point x="815" y="90"/>
      <point x="718" y="0"/>
      <point x="507" y="0" type="curve" smooth="yes"/>
      <point x="242" y="0"/>
      <point x="105" y="134"/>
      <point x="105" y="264" type="curve" smooth="yes"/>
      <point x="105" y="384"/>
      <point x="223" y="500"/>
      <point x="467" y="500" type="curve" smooth="yes"/>
      <point x="629" y="500"/>
      <point x="798" y="435"/>
      <point x="806" y="320" type="curve"/>
      <point x="855" y="320" type="line"/>
      <point x="855" y="405"/>
      <point x="748" y="515"/>
      <point x="466" y="515" type="curve" smooth="yes"/>
      <point x="192" y="515"/>
      <point x="55" y="398"/>
      <point x="55" y="258" type="curve" smooth="yes"/>
      <point x="55" y="115"/>
      <point x="201" y="-15"/>
    </contour>
    <contour>
      <point x="102" y="320" type="line"/>
      <point x="818" y="320" type="line"/>
      <point x="818" y="335" type="line"/>
      <point x="102" y="335" type="line"/>
    </contour>
  </outline>
</glyph>
<glyph name="f" format="2">
  <advance width="734"/>
  <unicode hex="0066"/>
  <anchor x="367" y="0" name="bottom"/>
  <anchor x="367" y="800" name="top"/>
  <outline>
    <contour>
      <point x="35" y="0" type="line"/>
      <point x="415" y="0" type="line"/>
      <point x="415" y="10" type="line"/>
      <point x="321" y="17"/>
      <point x="245" y="16"/>
      <point x="245" y="104" type="curve" smooth="yes"/>
      <point x="245" y="485" type="line"/>
      <point x="707" y="485" type="line"/>
      <point x="707" y="500" type="line"/>
      <point x="403" y="500" type="line" smooth="yes"/>
      <point x="259" y="500"/>
      <point x="228" y="534"/>
      <point x="228" y="572" type="curve" smooth="yes"/>
      <point x="228" y="628"/>
      <point x="297" y="701"/>
      <point x="440" y="701" type="curve" smooth="yes"/>
      <point x="563" y="701"/>
      <point x="672" y="658"/>
      <point x="731" y="534" type="curve"/>
      <point x="741" y="534" type="line"/>
      <point x="700" y="673" type="line"/>
      <point x="674" y="693"/>
      <point x="586" y="716"/>
      <point x="455" y="716" type="curve" smooth="yes"/>
      <point x="326" y="716"/>
      <point x="205" y="662"/>
      <point x="205" y="547" type="curve" smooth="yes"/>
      <point x="205" y="500" type="line"/>
      <point x="35" y="500" type="line"/>
      <point x="35" y="485" type="line"/>
      <point x="205" y="485" type="line"/>
      <point x="205" y="104" type="line" smooth="yes"/>
      <point x="205" y="18"/>
      <point x="131" y="17"/>
      <point x="35" y="10" type="curve"/>
    </contour>
  </outline>
</glyph>
<glyph name="g" format="2">
  <advance width="969"/>
  <unicode hex="0067"/>
  <anchor x="485" y="-200" name="bottom"/>
  <anchor x="535" y="500" name="top"/>
  <outline>
    <contour>
      <point x="491" y="169" type="curve" smooth="yes"/>
      <point x="705" y="169"/>
      <point x="877" y="234"/>
      <point x="877" y="335" type="curve" smooth="yes"/>
      <point x="877" y="436"/>
      <point x="705" y="500"/>
      <point x="491" y="500" type="curve" smooth="yes"/>
      <point x="275" y="500"/>
      <point x="104" y="436"/>
      <point x="104" y="335" type="curve" smooth="yes"/>
      <point x="104" y="234"/>
      <point x="275" y="169"/>
    </contour>
    <contour>
      <point x="491" y="184" type="curve" smooth="yes"/>
      <point x="263" y="184"/>
      <point x="149" y="259"/>
      <point x="149" y="335" type="curve" smooth="yes"/>
      <point x="149" y="410"/>
      <point x="263" y="485"/>
      <point x="491" y="485" type="curve" smooth="yes"/>
      <point x="718" y="485"/>
      <point x="832" y="410"/>
      <point x="832" y="335" type="curve" smooth="yes"/>
      <point x="832" y="260"/>
      <point x="717" y="184"/>
    </contour>
    <contour>
      <point x="495" y="485" type="line"/>
      <point x="930" y="485" type="line"/>
      <point x="930" y="500" type="line"/>
      <point x="495" y="500" type="line"/>
    </contour>
    <contour>
      <point x="138" y="-2"/>
      <point x="889" y="82"/>
      <point x="889" y="-85" type="curve" smooth="yes"/>
      <point x="889" y="-161"/>
      <point x="689" y="-200"/>
      <point x="479" y="-200" type="curve" smooth="yes"/>
      <point x="216" y="-200"/>
      <point x="73" y="-140"/>
      <point x="73" y="-77" type="curve" smooth="yes"/>
      <point x="73" y="-5"/>
      <point x="179" y="33"/>
      <point x="405" y="54" type="curve"/>
      <point x="384" y="63" type="line"/>
      <point x="145" y="50"/>
      <point x="28" y="-10"/>
      <point x="28" y="-71" type="curve" smooth="yes"/>
      <point x="28" y="-143"/>
      <point x="185" y="-215"/>
      <point x="491" y="-215" type="curve" smooth="yes"/>
      <point x="794" y="-215"/>
      <point x="936" y="-157"/>
      <point x="934" y="-84" type="curve" smooth="yes"/>
      <point x="930" y="107"/>
      <point x="173" y="29"/>
      <point x="173" y="124" type="curve" smooth="yes"/>
      <point x="173" y="160"/>
      <point x="312" y="183"/>
      <point x="352" y="185" type="curve"/>
      <point x="332" y="197" type="line"/>
      <point x="218" y="184"/>
      <point x="138" y="164"/>
      <point x="138" y="120" type="curve" smooth="yes"/>
    </contour>
  </outline>
</glyph>
<glyph name="h" format="2">
  <advance width="1185"/>
  <unicode hex="0068"/>
  <anchor x="593" y="0" name="bottom"/>
  <anchor x="593" y="400" name="center"/>
  <anchor x="593" y="800" name="top"/>
  <outline>
    <contour>
      <point x="34" y="0" type="line"/>
      <point x="414" y="0" type="line"/>
      <point x="414" y="10" type="line"/>
      <point x="320" y="17"/>
      <point x="244" y="16"/>
      <point x="244" y="104" type="curve" smooth="yes"/>
      <point x="244" y="330" type="line" smooth="yes"/>
      <point x="247" y="442"/>
      <point x="413" y="500"/>
      <point x="583" y="500" type="curve" smooth="yes"/>
      <point x="764" y="500"/>
      <point x="949" y="465"/>
      <point x="949" y="285" type="curve" smooth="yes"/>
      <point x="949" y="104" type="line" smooth="yes"/>
      <point x="949" y="18"/>
      <point x="873" y="18"/>
      <point x="779" y="10" type="curve"/>
      <point x="779" y="0" type="line"/>
      <point x="1159" y="0" type="line"/>
      <point x="1159" y="10" type="line"/>
      <point x="1065" y="17"/>
      <point x="989" y="17"/>
      <point x="989" y="104" type="curve" smooth="yes"/>
      <point x="989" y="285" type="line" smooth="yes"/>
      <point x="989" y="470"/>
      <point x="791" y="515"/>
      <point x="591" y="515" type="curve" smooth="yes"/>
      <point x="456" y="515"/>
      <point x="320" y="483"/>
      <point x="244" y="416" type="curve"/>
      <point x="244" y="700" type="line"/>
      <point x="34" y="700" type="line"/>
      <point x="34" y="690" type="line"/>
      <point x="128" y="684"/>
      <point x="204" y="683"/>
      <point x="204" y="596" type="curve" smooth="yes"/>
      <point x="204" y="104" type="line" smooth="yes"/>
      <point x="204" y="18"/>
      <point x="130" y="17"/>
      <point x="34" y="10" type="curve"/>
    </contour>
  </outline>
</glyph>
<glyph name="k" format="2">
  <advance width="1052"/>
  <unicode hex="006B"/>
  <anchor x="526" y="0" name="bottom"/>
  <anchor x="526" y="800" name="top"/>
  <outline>
    <contour>
      <point x="26" y="0" type="line"/>
      <point x="406" y="0" type="line"/>
      <point x="406" y="10" type="line"/>
      <point x="312" y="17"/>
      <point x="236" y="16"/>
      <point x="236" y="104" type="curve" smooth="yes"/>
      <point x="236" y="264" type="line"/>
      <point x="375" y="324" type="line"/>
      <point x="666" y="97" type="line" smooth="yes"/>
      <point x="765" y="16"/>
      <point x="711" y="17"/>
      <point x="620" y="10" type="curve"/>
      <point x="620" y="0" type="line"/>
      <point x="1026" y="0" type="line"/>
      <point x="1026" y="10" type="line"/>
      <point x="935" y="17"/>
      <point x="843" y="16"/>
      <point x="735" y="95" type="curve" smooth="yes"/>
      <point x="417" y="342" type="line"/>
      <point x="560" y="403" type="line" smooth="yes"/>
      <point x="728" y="472"/>
      <point x="845" y="483"/>
      <point x="926" y="490" type="curve"/>
      <point x="926" y="500" type="line"/>
      <point x="575" y="500" type="line"/>
      <point x="575" y="490" type="line"/>
      <point x="666" y="486"/>
      <point x="688" y="478"/>
      <point x="521" y="404" type="curve" smooth="yes"/>
      <point x="236" y="282" type="line"/>
      <point x="236" y="596" type="line" smooth="yes"/>
      <point x="236" y="684"/>
      <point x="312" y="683"/>
      <point x="406" y="690" type="curve"/>
      <point x="406" y="700" type="line"/>
      <point x="26" y="700" type="line"/>
      <point x="26" y="690" type="line"/>
      <point x="122" y="683"/>
      <point x="196" y="682"/>
      <point x="196" y="596" type="curve" smooth="yes"/>
      <point x="196" y="104" type="line" smooth="yes"/>
      <point x="196" y="18"/>
      <point x="122" y="17"/>
      <point x="26" y="10" type="curve"/>
    </contour>
  </outline>
</glyph>
<glyph name="l" format="2">
  <advance width="432"/>
  <unicode hex="006C"/>
  <anchor x="216" y="0" name="bottom"/>
  <anchor x="216" y="400" name="center"/>
  <anchor x="216" y="700" name="top"/>
  <anchor x="299" y="800" name="topright"/>
  <outline>
    <contour>
      <point x="26" y="0" type="line"/>
      <point x="406" y="0" type="line"/>
      <point x="406" y="10" type="line"/>
      <point x="312" y="17"/>
      <point x="236" y="16"/>
      <point x="236" y="104" type="curve" smooth="yes"/>
      <point x="236" y="700" type="line"/>
      <point x="26" y="700" type="line"/>
      <point x="26" y="690" type="line"/>
      <point x="120" y="684"/>
      <point x="196" y="683"/>
      <point x="196" y="596" type="curve" smooth="yes"/>
      <point x="196" y="104" type="line" smooth="yes"/>
      <point x="196" y="18"/>
      <point x="122" y="17"/>
      <point x="26" y="10" type="curve"/>
    </contour>
  </outline>
</glyph>
<glyph name="m" format="2">
  <advance width="1850"/>
  <unicode hex="006D"/>
  <anchor x="925" y="0" name="bottom"/>
  <anchor x="925" y="500" name="top"/>
  <outline>
    <contour>
      <point x="34" y="0" type="line"/>
      <point x="414" y="0" type="line"/>
      <point x="414" y="10" type="line"/>
      <point x="320" y="17"/>
      <point x="244" y="16"/>
      <point x="244" y="104" type="curve" smooth="yes"/>
      <point x="244" y="330" type="line" smooth="yes"/>
      <point x="247" y="443"/>
      <point x="406" y="501"/>
      <point x="567" y="501" type="curve" smooth="yes"/>
      <point x="736" y="501"/>
      <point x="909" y="437"/>
      <point x="909" y="305" type="curve" smooth="yes"/>
      <point x="909" y="104" type="line" smooth="yes"/>
      <point x="909" y="18"/>
      <point x="833" y="18"/>
      <point x="739" y="10" type="curve"/>
      <point x="739" y="0" type="line"/>
      <point x="1119" y="0" type="line"/>
      <point x="1119" y="10" type="line"/>
      <point x="1025" y="17"/>
      <point x="949" y="17"/>
      <point x="949" y="104" type="curve" smooth="yes"/>
      <point x="949" y="300" type="line" smooth="yes"/>
      <point x="949" y="456"/>
      <point x="1113" y="500"/>
      <point x="1286" y="500" type="curve" smooth="yes"/>
      <point x="1443" y="500"/>
      <point x="1614" y="436"/>
      <point x="1614" y="305" type="curve" smooth="yes"/>
      <point x="1614" y="104" type="line" smooth="yes"/>
      <point x="1614" y="18"/>
      <point x="1538" y="18"/>
      <point x="1444" y="10" type="curve"/>
      <point x="1444" y="0" type="line"/>
      <point x="1824" y="0" type="line"/>
      <point x="1824" y="10" type="line"/>
      <point x="1730" y="17"/>
      <point x="1654" y="17"/>
      <point x="1654" y="104" type="curve" smooth="yes"/>
      <point x="1654" y="305" type="line" smooth="yes"/>
      <point x="1654" y="444"/>
      <point x="1479" y="515"/>
      <point x="1279" y="515" type="curve" smooth="yes"/>
      <point x="1140" y="515"/>
      <point x="971" y="474"/>
      <point x="928" y="381" type="curve"/>
      <point x="875" y="470"/>
      <point x="727" y="517"/>
      <point x="577" y="517" type="curve" smooth="yes"/>
      <point x="450" y="517"/>
      <point x="320" y="484"/>
      <point x="244" y="416" type="curve"/>
      <point x="244" y="500" type="line"/>
      <point x="34" y="500" type="line"/>
      <point x="34" y="490" type="line"/>
      <point x="128" y="484"/>
      <point x="204" y="483"/>
      <point x="204" y="396" type="curve" smooth="yes"/>
      <point x="204" y="104" type="line" smooth="yes"/>
      <point x="204" y="18"/>
      <point x="130" y="17"/>
      <point x="34" y="10" type="curve"/>
    </contour>
  </outline>
</glyph>
<glyph name="n" format="2">
  <advance width="1185"/>
  <unicode hex="006E"/>
  <anchor x="593" y="0" name="bottom"/>
  <anchor x="593" y="500" name="top"/>
  <outline>
    <contour>
      <point x="989" y="104" type="curve" smooth="yes"/>
      <point x="989" y="285" type="line" smooth="yes"/>
      <point x="989" y="470"/>
      <point x="791" y="515"/>
      <point x="591" y="515" type="curve" smooth="yes"/>
      <point x="456" y="515"/>
      <point x="320" y="483"/>
      <point x="244" y="416" type="curve"/>
      <point x="244" y="500" type="line"/>
      <point x="34" y="500" type="line"/>
      <point x="34" y="490" type="line"/>
      <point x="128" y="484"/>
      <point x="204" y="483"/>
      <point x="204" y="396" type="curve" smooth="yes"/>
      <point x="204" y="104" type="line" smooth="yes"/>
      <point x="204" y="18"/>
      <point x="130" y="17"/>
      <point x="34" y="10" type="curve"/>
      <point x="34" y="0" type="line"/>
      <point x="414" y="0" type="line"/>
      <point x="414" y="10" type="line"/>
      <point x="320" y="17"/>
      <point x="244" y="16"/>
      <point x="244" y="104" type="curve" smooth="yes"/>
      <point x="244" y="330" type="line" smooth="yes"/>
      <point x="247" y="442"/>
      <point x="413" y="500"/>
      <point x="583" y="500" type="curve" smooth="yes"/>
      <point x="764" y="500"/>
      <point x="949" y="465"/>
      <point x="949" y="285" type="curve" smooth="yes"/>
      <point x="949" y="104" type="line" smooth="yes"/>
      <point x="949" y="18"/>
      <point x="873" y="18"/>
      <point x="779" y="10" type="curve"/>
      <point x="779" y="0" type="line"/>
      <point x="1159" y="0" type="line"/>
      <point x="1159" y="10" type="line"/>
      <point x="1065" y="17"/>
      <point x="989" y="17"/>
    </contour>
  </outline>
</glyph>
<glyph name="o" format="2">
  <advance width="998"/>
  <unicode hex="006F"/>
  <anchor x="499" y="0" name="bottom"/>
  <anchor x="499" y="250" name="center"/>
  <anchor x="898" y="10" name="ogonek"/>
  <anchor x="499" y="500" name="top"/>
  <anchor x="978" y="500" name="topright"/>
  <outline>
    <contour>
      <point x="499" y="-15" type="curve" smooth="yes"/>
      <point x="754" y="-15"/>
      <point x="945" y="90"/>
      <point x="945" y="246" type="curve" smooth="yes"/>
      <point x="945" y="402"/>
      <point x="754" y="515"/>
      <point x="499" y="515" type="curve" smooth="yes"/>
      <point x="244" y="515"/>
      <point x="53" y="402"/>
      <point x="53" y="246" type="curve" smooth="yes"/>
      <point x="53" y="90"/>
      <point x="244" y="-15"/>
    </contour>
    <contour>
      <point x="499" y="2" type="curve" smooth="yes"/>
      <point x="301" y="2"/>
      <point x="103" y="83"/>
      <point x="103" y="246" type="curve" smooth="yes"/>
      <point x="103" y="415"/>
      <point x="301" y="499"/>
      <point x="499" y="499" type="curve" smooth="yes"/>
      <point x="697" y="499"/>
      <point x="895" y="415"/>
      <point x="895" y="246" type="curve" smooth="yes"/>
      <point x="895" y="83"/>
      <point x="697" y="2"/>
    </contour>
  </outline>
</glyph>
<glyph name="p" format="2">
  <advance width="1067"/>
  <unicode hex="0070"/>
  <anchor x="534" y="0" name="bottom"/>
  <anchor x="534" y="500" name="top"/>
  <outline>
    <contour>
      <point x="26" y="-200" type="line"/>
      <point x="406" y="-200" type="line"/>
      <point x="406" y="-190" type="line"/>
      <point x="312" y="-184"/>
      <point x="236" y="-183"/>
      <point x="236" y="-96" type="curve" smooth="yes"/>
      <point x="236" y="136" type="line"/>
      <point x="306" y="44"/>
      <point x="459" y="-15"/>
      <point x="617" y="-15" type="curve" smooth="yes"/>
      <point x="832" y="-15"/>
      <point x="1013" y="94"/>
      <point x="1013" y="250" type="curve" smooth="yes"/>
      <point x="1013" y="406"/>
      <point x="832" y="515"/>
      <point x="617" y="515" type="curve" smooth="yes"/>
      <point x="457" y="515"/>
      <point x="306" y="457"/>
      <point x="236" y="364" type="curve"/>
      <point x="236" y="500" type="line"/>
      <point x="26" y="500" type="line"/>
      <point x="26" y="490" type="line"/>
      <point x="120" y="484"/>
      <point x="196" y="483"/>
      <point x="196" y="396" type="curve" smooth="yes"/>
      <point x="196" y="-96" type="line" smooth="yes"/>
      <point x="196" y="-183"/>
      <point x="120" y="-184"/>
      <point x="26" y="-190" type="curve"/>
    </contour>
    <contour>
      <point x="602" y="0" type="curve" smooth="yes"/>
      <point x="442" y="0"/>
      <point x="236" y="86"/>
      <point x="236" y="249" type="curve" smooth="yes"/>
      <point x="236" y="415"/>
      <point x="442" y="500"/>
      <point x="603" y="500" type="curve" smooth="yes"/>
      <point x="784" y="500"/>
      <point x="963" y="417"/>
      <point x="963" y="249" type="curve" smooth="yes"/>
      <point x="963" y="82"/>
      <point x="783" y="0"/>
    </contour>
  </outline>
</glyph>
<glyph name="q" format="2">
  <advance width="969"/>
  <unicode hex="0071"/>
  <anchor x="485" y="0" name="bottom"/>
  <anchor x="485" y="500" name="top"/>
  <outline>
    <contour>
      <point x="661" y="-200" type="line"/>
      <point x="1041" y="-200" type="line"/>
      <point x="1041" y="-190" type="line"/>
      <point x="947" y="-184"/>
      <point x="871" y="-183"/>
      <point x="871" y="-96" type="curve" smooth="yes"/>
      <point x="871" y="515" type="line"/>
      <point x="863" y="515" type="line"/>
      <point x="831" y="364" type="line"/>
      <point x="762" y="456"/>
      <point x="611" y="515"/>
      <point x="450" y="515" type="curve" smooth="yes"/>
      <point x="235" y="515"/>
      <point x="54" y="406"/>
      <point x="54" y="250" type="curve" smooth="yes"/>
      <point x="54" y="94"/>
      <point x="235" y="-15"/>
      <point x="450" y="-15" type="curve" smooth="yes"/>
      <point x="608" y="-15"/>
      <point x="761" y="44"/>
      <point x="831" y="136" type="curve"/>
      <point x="831" y="-96" type="line" smooth="yes"/>
      <point x="831" y="-183"/>
      <point x="755" y="-184"/>
      <point x="661" y="-190" type="curve"/>
    </contour>
    <contour>
      <point x="465" y="0" type="curve" smooth="yes"/>
      <point x="284" y="0"/>
      <point x="104" y="82"/>
      <point x="104" y="249" type="curve" smooth="yes"/>
      <point x="104" y="417"/>
      <point x="283" y="500"/>
      <point x="464" y="500" type="curve" smooth="yes"/>
      <point x="625" y="500"/>
      <point x="831" y="415"/>
      <point x="831" y="249" type="curve" smooth="yes"/>
      <point x="831" y="86"/>
      <point x="625" y="0"/>
    </contour>
  </outline>
</glyph>
<glyph name="r" format="2">
  <advance width="943"/>
  <unicode hex="0072"/>
  <anchor x="472" y="0" name="bottom"/>
  <anchor x="472" y="500" name="top"/>
  <outline>
    <contour>
      <point x="244" y="104" type="curve" smooth="yes"/>
      <point x="244" y="500" type="line"/>
      <point x="34" y="500" type="line"/>
      <point x="34" y="490" type="line"/>
      <point x="128" y="484"/>
      <point x="204" y="483"/>
      <point x="204" y="396" type="curve" smooth="yes"/>
      <point x="204" y="104" type="line" smooth="yes"/>
      <point x="204" y="18"/>
      <point x="130" y="17"/>
      <point x="34" y="10" type="curve"/>
      <point x="34" y="0" type="line"/>
      <point x="414" y="0" type="line"/>
      <point x="414" y="10" type="line"/>
      <point x="320" y="17"/>
      <point x="244" y="16"/>
    </contour>
    <contour>
      <point x="553" y="503" type="curve" smooth="yes"/>
      <point x="739" y="503"/>
      <point x="824" y="445"/>
      <point x="887" y="282" type="curve"/>
      <point x="897" y="282" type="line"/>
      <point x="853" y="458" type="line"/>
      <point x="776" y="494"/>
      <point x="670" y="515"/>
      <point x="555" y="515" type="curve" smooth="yes"/>
      <point x="443" y="515"/>
      <point x="311" y="482"/>
      <point x="235" y="408" type="curve"/>
      <point x="244" y="330" type="line"/>
      <point x="247" y="447"/>
      <point x="429" y="503"/>
    </contour>
  </outline>
</glyph>
<glyph name="s" format="2">
  <advance width="892"/>
  <unicode hex="0073"/>
  <anchor x="446" y="0" name="bottom"/>
  <anchor x="446" y="500" name="top"/>
  <outline>
    <contour>
      <point x="454" y="-14" type="curve" smooth="yes"/>
      <point x="665" y="-14"/>
      <point x="850" y="25"/>
      <point x="850" y="134" type="curve" smooth="yes"/>
      <point x="850" y="228"/>
      <point x="663" y="250"/>
      <point x="501" y="265" type="curve" smooth="yes"/>
      <point x="346" y="279"/>
      <point x="150" y="300"/>
      <point x="150" y="385" type="curve" smooth="yes"/>
      <point x="150" y="476"/>
      <point x="355" y="500"/>
      <point x="422" y="500" type="curve" smooth="yes"/>
      <point x="566" y="500"/>
      <point x="711" y="465"/>
      <point x="766" y="302" type="curve"/>
      <point x="776" y="302" type="line"/>
      <point x="723" y="468" type="line"/>
      <point x="649" y="497"/>
      <point x="516" y="515"/>
      <point x="422" y="515" type="curve" smooth="yes"/>
      <point x="253" y="515"/>
      <point x="110" y="465"/>
      <point x="112" y="369" type="curve" smooth="yes"/>
      <point x="114" y="273"/>
      <point x="329" y="242"/>
      <point x="493" y="231" type="curve" smooth="yes"/>
      <point x="642" y="221"/>
      <point x="812" y="207"/>
      <point x="812" y="119" type="curve" smooth="yes"/>
      <point x="812" y="33"/>
      <point x="597" y="1"/>
      <point x="469" y="1" type="curve" smooth="yes"/>
      <point x="224" y="1"/>
      <point x="103" y="74"/>
      <point x="67" y="283" type="curve"/>
      <point x="57" y="283" type="line"/>
      <point x="91" y="74" type="line"/>
      <point x="162" y="28"/>
      <point x="306" y="-14"/>
    </contour>
  </outline>
</glyph>
<glyph name="t" format="2">
  <advance width="683"/>
  <unicode hex="0074"/>
  <anchor x="392" y="0" name="bottom"/>
  <anchor x="342" y="250" name="center"/>
  <anchor x="342" y="500" name="top"/>
  <anchor x="234" y="800" name="topright"/>
  <outline>
    <contour>
      <point x="27" y="485" type="line"/>
      <point x="621" y="485" type="line"/>
      <point x="621" y="500" type="line"/>
      <point x="27" y="500" type="line"/>
    </contour>
    <contour>
      <point x="27" y="500" type="curve"/>
      <point x="200" y="500" type="line"/>
      <point x="200" y="700" type="line"/>
      <point x="190" y="700" type="line"/>
      <point x="174" y="516"/>
      <point x="152" y="500"/>
    </contour>
    <contour>
      <point x="645" y="83" type="curve"/>
      <point x="634" y="93" type="line"/>
      <point x="604" y="48"/>
      <point x="511" y="0"/>
      <point x="408" y="0" type="curve" smooth="yes"/>
      <point x="300" y="0"/>
      <point x="200" y="46"/>
      <point x="200" y="156" type="curve" smooth="yes"/>
      <point x="200" y="488" type="line"/>
      <point x="160" y="488" type="line"/>
      <point x="160" y="156" type="line" smooth="yes"/>
      <point x="160" y="37"/>
      <point x="274" y="-15"/>
      <point x="397" y="-15" type="curve" smooth="yes"/>
      <point x="511" y="-15"/>
      <point x="607" y="30"/>
    </contour>
  </outline>
</glyph>
<glyph name="u" format="2">
  <advance width="1147"/>
  <unicode hex="0075"/>
  <anchor x="574" y="0" name="bottom"/>
  <anchor x="1101" y="10" name="ogonek"/>
  <anchor x="574" y="500" name="top"/>
  <anchor x="1127" y="500" name="topright"/>
  <outline>
    <contour>
      <point x="576" y="-15" type="curve" smooth="yes"/>
      <point x="705" y="-15"/>
      <point x="835" y="17"/>
      <point x="911" y="84" type="curve"/>
      <point x="911" y="0" type="line"/>
      <point x="1121" y="0" type="line"/>
      <point x="1121" y="10" type="line"/>
      <point x="1027" y="16"/>
      <point x="951" y="17"/>
      <point x="951" y="104" type="curve" smooth="yes"/>
      <point x="951" y="500" type="line"/>
      <point x="741" y="500" type="line"/>
      <point x="741" y="490" type="line"/>
      <point x="835" y="483"/>
      <point x="911" y="484"/>
      <point x="911" y="396" type="curve" smooth="yes"/>
      <point x="911" y="170" type="line" smooth="yes"/>
      <point x="911" y="58"/>
      <point x="749" y="0"/>
      <point x="586" y="0" type="curve" smooth="yes"/>
      <point x="414" y="0"/>
      <point x="236" y="43"/>
      <point x="236" y="205" type="curve" smooth="yes"/>
      <point x="236" y="500" type="line"/>
      <point x="26" y="500" type="line"/>
      <point x="26" y="490" type="line"/>
      <point x="120" y="483"/>
      <point x="196" y="483"/>
      <point x="196" y="396" type="curve" smooth="yes"/>
      <point x="196" y="205" type="line" smooth="yes"/>
      <point x="196" y="20"/>
      <point x="384" y="-15"/>
    </contour>
  </outline>
</glyph>
<glyph name="v" format="2">
  <advance width="1218"/>
  <unicode hex="0076"/>
  <anchor x="609" y="0" name="bottom"/>
  <anchor x="609" y="500" name="top"/>
  <outline>
    <contour>
      <point x="1192" y="500" type="line"/>
      <point x="830" y="500" type="line"/>
      <point x="830" y="490" type="line"/>
      <point x="923" y="483"/>
      <point x="986" y="482"/>
      <point x="919" y="398" type="curve" smooth="yes"/>
      <point x="626" y="32" type="line"/>
      <point x="322" y="409" type="line" smooth="yes"/>
      <point x="266" y="479"/>
      <point x="329" y="483"/>
      <point x="418" y="490" type="curve"/>
      <point x="418" y="500" type="line"/>
      <point x="26" y="500" type="line"/>
      <point x="26" y="490" type="line"/>
      <point x="117" y="483"/>
      <point x="205" y="483"/>
      <point x="274" y="403" type="curve" smooth="yes"/>
      <point x="611" y="-15" type="line"/>
      <point x="940" y="398" type="line" smooth="yes"/>
      <point x="1009" y="483"/>
      <point x="1099" y="483"/>
      <point x="1192" y="490" type="curve"/>
    </contour>
  </outline>
</glyph>
<glyph name="w" format="2">
  <advance width="1808"/>
  <unicode hex="0077"/>
  <anchor x="904" y="0" name="bottom"/>
  <anchor x="904" y="500" name="top"/>
  <outline>
    <contour>
      <point x="571" y="-15" type="line"/>
      <point x="906" y="438" type="line"/>
      <point x="1271" y="-15" type="line"/>
      <point x="1578" y="400" type="line" smooth="yes"/>
      <point x="1638" y="482"/>
      <point x="1689" y="483"/>
      <point x="1782" y="490" type="curve"/>
      <point x="1782" y="500" type="line"/>
      <point x="1463" y="500" type="line"/>
      <point x="1463" y="490" type="line"/>
      <point x="1551" y="483"/>
      <point x="1621" y="484"/>
      <point x="1567" y="411" type="curve" smooth="yes"/>
      <point x="1286" y="31" type="line"/>
      <point x="982" y="409" type="line" smooth="yes"/>
      <point x="925" y="480"/>
      <point x="989" y="483"/>
      <point x="1078" y="490" type="curve"/>
      <point x="1078" y="500" type="line"/>
      <point x="763" y="500" type="line"/>
      <point x="763" y="490" type="line"/>
      <point x="851" y="483"/>
      <point x="915" y="476"/>
      <point x="867" y="411" type="curve" smooth="yes"/>
      <point x="586" y="31" type="line"/>
      <point x="282" y="409" type="line" smooth="yes"/>
      <point x="229" y="475"/>
      <point x="289" y="483"/>
      <point x="378" y="490" type="curve"/>
      <point x="378" y="500" type="line"/>
      <point x="26" y="500" type="line"/>
      <point x="26" y="490" type="line"/>
      <point x="117" y="483"/>
      <point x="166" y="483"/>
      <point x="232" y="405" type="curve" smooth="yes"/>
    </contour>
  </outline>
</glyph>
<glyph name="x" format="2">
  <advance width="1067"/>
  <unicode hex="0078"/>
  <anchor x="534" y="0" name="bottom"/>
  <anchor x="534" y="500" name="top"/>
  <outline>
    <contour>
      <point x="31" y="0" type="line"/>
      <point x="366" y="0" type="line"/>
      <point x="366" y="10" type="line"/>
      <point x="278" y="17"/>
      <point x="226" y="17"/>
      <point x="318" y="89" type="curve" smooth="yes"/>
      <point x="520" y="238" type="line"/>
      <point x="698" y="101" type="line" smooth="yes"/>
      <point x="806" y="17"/>
      <point x="752" y="17"/>
      <point x="659" y="10" type="curve"/>
      <point x="659" y="0" type="line"/>
      <point x="1034" y="0" type="line"/>
      <point x="1034" y="10" type="line"/>
      <point x="941" y="17"/>
      <point x="873" y="17"/>
      <point x="761" y="103" type="curve" smooth="yes"/>
      <point x="562" y="256" type="line"/>
      <point x="773" y="415" type="line" smooth="yes"/>
      <point x="871" y="489"/>
      <point x="939" y="484"/>
      <point x="1026" y="490" type="curve"/>
      <point x="1026" y="500" type="line"/>
      <point x="691" y="500" type="line"/>
      <point x="691" y="490" type="line"/>
      <point x="782" y="483"/>
      <point x="834" y="483"/>
      <point x="734" y="405" type="curve" smooth="yes"/>
      <point x="549" y="266" type="line"/>
      <point x="372" y="403" type="line" smooth="yes"/>
      <point x="270" y="483"/>
      <point x="323" y="483"/>
      <point x="415" y="490" type="curve"/>
      <point x="415" y="500" type="line"/>
      <point x="50" y="500" type="line"/>
      <point x="50" y="490" type="line"/>
      <point x="143" y="483"/>
      <point x="201" y="483"/>
      <point x="313" y="398" type="curve" smooth="yes"/>
      <point x="508" y="248" type="line"/>
      <point x="288" y="86" type="line" smooth="yes"/>
      <point x="186" y="11"/>
      <point x="119" y="17"/>
      <point x="31" y="10" type="curve"/>
    </contour>
  </outline>
</glyph>
<glyph name="y" format="2">
  <advance width="1058"/>
  <unicode hex="0079"/>
  <anchor x="529" y="0" name="bottom"/>
  <anchor x="549" y="500" name="top"/>
  <outline>
    <contour>
      <point x="219" y="-200" type="line"/>
      <point x="568" y="-200" type="line"/>
      <point x="568" y="-190" type="line"/>
      <point x="478" y="-183"/>
      <point x="413" y="-180"/>
      <point x="464" y="-107" type="curve" smooth="yes"/>
      <point x="827" y="408" type="line" smooth="yes"/>
      <point x="883" y="487"/>
      <point x="942" y="483"/>
      <point x="1032" y="490" type="curve"/>
      <point x="1032" y="500" type="line"/>
      <point x="704" y="500" type="line"/>
      <point x="704" y="490" type="line"/>
      <point x="793" y="483"/>
      <point x="861" y="481"/>
      <point x="809" y="408" type="curve" smooth="yes"/>
      <point x="544" y="33" type="line"/>
      <point x="283" y="404" type="line" smooth="yes"/>
      <point x="229" y="481"/>
      <point x="294" y="483"/>
      <point x="385" y="490" type="curve"/>
      <point x="385" y="500" type="line"/>
      <point x="26" y="500" type="line"/>
      <point x="26" y="490" type="line"/>
      <point x="115" y="483"/>
      <point x="175" y="488"/>
      <point x="230" y="410" type="curve" smooth="yes"/>
      <point x="519" y="-1" type="line"/>
      <point x="446" y="-105" type="line" smooth="yes"/>
      <point x="389" y="-186"/>
      <point x="310" y="-183"/>
      <point x="219" y="-190" type="curve"/>
    </contour>
  </outline>
</glyph>
<glyph name="z" format="2">
  <advance width="916"/>
  <unicode hex="007A"/>
  <anchor x="458" y="0" name="bottom"/>
  <anchor x="458" y="250" name="center"/>
  <anchor x="458" y="500" name="top"/>
  <outline>
    <contour>
      <point x="67" y="0" type="line"/>
      <point x="833" y="0" type="line"/>
      <point x="849" y="245" type="line"/>
      <point x="839" y="245" type="line"/>
      <point x="821" y="89"/>
      <point x="805" y="16"/>
      <point x="680" y="15" type="curve" smooth="yes"/>
      <point x="157" y="15" type="line"/>
      <point x="849" y="500" type="line"/>
      <point x="83" y="500" type="line"/>
      <point x="67" y="255" type="line"/>
      <point x="77" y="255" type="line"/>
      <point x="95" y="411"/>
      <point x="111" y="484"/>
      <point x="236" y="485" type="curve" smooth="yes"/>
      <point x="758" y="485" type="line"/>
    </contour>
  </outline>
</glyph>
<glyph name="braceleft" format="2">
  <advance width="459"/>
  <unicode hex="007B"/>
  <outline>
    <contour>
      <point x="58" y="257" type="line"/>
      <point x="152" y="257"/>
      <point x="249" y="220"/>
      <point x="249" y="159" type="curve" smooth="yes"/>
      <point x="249" y="79"/>
      <point x="120" y="32"/>
      <point x="120" y="-76" type="curve" smooth="yes"/>
      <point x="120" y="-176"/>
      <point x="214" y="-221"/>
      <point x="318" y="-221" type="curve" smooth="yes"/>
      <point x="459" y="-221" type="line"/>
      <point x="459" y="-206" type="line"/>
      <point x="320" y="-206" type="line" smooth="yes"/>
      <point x="222" y="-206"/>
      <point x="152" y="-170"/>
      <point x="152" y="-71" type="curve" smooth="yes"/>
      <point x="152" y="31"/>
      <point x="274" y="69"/>
      <point x="269" y="161" type="curve" smooth="yes"/>
      <point x="266" y="220"/>
      <point x="179" y="257"/>
      <point x="113" y="266" type="curve"/>
      <point x="179" y="275"/>
      <point x="266" y="312"/>
      <point x="269" y="371" type="curve" smooth="yes"/>
      <point x="274" y="463"/>
      <point x="152" y="501"/>
      <point x="152" y="603" type="curve" smooth="yes"/>
      <point x="152" y="702"/>
      <point x="222" y="738"/>
      <point x="320" y="738" type="curve" smooth="yes"/>
      <point x="459" y="738" type="line"/>
      <point x="459" y="753" type="line"/>
      <point x="318" y="753" type="line" smooth="yes"/>
      <point x="214" y="753"/>
      <point x="120" y="708"/>
      <point x="120" y="608" type="curve" smooth="yes"/>
      <point x="120" y="500"/>
      <point x="249" y="453"/>
      <point x="249" y="373" type="curve" smooth="yes"/>
      <point x="249" y="312"/>
      <point x="152" y="275"/>
      <point x="58" y="275" type="curve"/>
    </contour>
  </outline>
</glyph>
<glyph name="bar" format="2">
  <advance width="368"/>
  <unicode hex="007C"/>
  <outline>
    <contour>
      <point x="175" y="715" type="line"/>
      <point x="175" y="-120" type="line"/>
      <point x="193" y="-120" type="line"/>
      <point x="193" y="715" type="line"/>
    </contour>
  </outline>
</glyph>
<glyph name="braceright" format="2">
  <advance width="459"/>
  <unicode hex="007D"/>
  <outline>
    <contour>
      <point x="401" y="257" type="curve"/>
      <point x="401" y="275" type="line"/>
      <point x="307" y="275"/>
      <point x="210" y="312"/>
      <point x="210" y="373" type="curve" smooth="yes"/>
      <point x="210" y="453"/>
      <point x="339" y="500"/>
      <point x="339" y="608" type="curve" smooth="yes"/>
      <point x="339" y="708"/>
      <point x="250" y="753"/>
      <point x="141" y="753" type="curve" smooth="yes"/>
      <point x="0" y="753" type="line"/>
      <point x="0" y="738" type="line"/>
      <point x="139" y="738" type="line" smooth="yes"/>
      <point x="242" y="738"/>
      <point x="307" y="702"/>
      <point x="307" y="603" type="curve" smooth="yes"/>
      <point x="307" y="501"/>
      <point x="185" y="463"/>
      <point x="190" y="371" type="curve" smooth="yes"/>
      <point x="193" y="312"/>
      <point x="280" y="275"/>
      <point x="346" y="266" type="curve"/>
      <point x="280" y="257"/>
      <point x="193" y="220"/>
      <point x="190" y="161" type="curve" smooth="yes"/>
      <point x="185" y="69"/>
      <point x="307" y="31"/>
      <point x="307" y="-71" type="curve" smooth="yes"/>
      <point x="307" y="-170"/>
      <point x="242" y="-206"/>
      <point x="139" y="-206" type="curve" smooth="yes"/>
      <point x="0" y="-206" type="line"/>
      <point x="0" y="-221" type="line"/>
      <point x="141" y="-221" type="line" smooth="yes"/>
      <point x="250" y="-221"/>
      <point x="339" y="-176"/>
      <point x="339" y="-76" type="curve" smooth="yes"/>
      <point x="339" y="32"/>
      <point x="210" y="79"/>
      <point x="210" y="159" type="curve" smooth="yes"/>
      <point x="210" y="220"/>
      <point x="307" y="257"/>
    </contour>
  </outline>
</glyph>
<glyph name="asciitilde" format="2">
  <advance width="911"/>
  <unicode hex="007E"/>
  <outline>
    <contour>
      <point x="228" y="306" type="curve" smooth="yes"/>
      <point x="374" y="306"/>
      <point x="558" y="190"/>
      <point x="682" y="190" type="curve" smooth="yes"/>
      <point x="770" y="190"/>
      <point x="831" y="240"/>
      <point x="831" y="336" type="curve"/>
      <point x="816" y="336" type="line"/>
      <point x="816" y="253"/>
      <point x="763" y="210"/>
      <point x="690" y="210" type="curve" smooth="yes"/>
      <point x="565" y="210"/>
      <point x="367" y="326"/>
      <point x="236" y="326" type="curve" smooth="yes"/>
      <point x="143" y="326"/>
      <point x="80" y="276"/>
      <point x="80" y="180" type="curve"/>
      <point x="95" y="180" type="line"/>
      <point x="95" y="263"/>
      <point x="151" y="306"/>
    </contour>
  </outline>
</glyph>
<glyph name="sterling" format="2">
  <advance width="1200"/>
  <unicode hex="00A3"/>
  <outline>
    <contour>
      <point x="126" y="0" type="line"/>
      <point x="462" y="101"/>
      <point x="550" y="146"/>
      <point x="550" y="231" type="curve" smooth="yes"/>
      <point x="550" y="374"/>
      <point x="227" y="412"/>
      <point x="227" y="546" type="curve" smooth="yes"/>
      <point x="227" y="655"/>
      <point x="426" y="700"/>
      <point x="568" y="700" type="curve" smooth="yes"/>
      <point x="785" y="700"/>
      <point x="950" y="642"/>
      <point x="1000" y="470" type="curve"/>
      <point x="1010" y="470" type="line"/>
      <point x="968" y="637" type="line"/>
      <point x="906" y="679"/>
      <point x="766" y="715"/>
      <point x="580" y="715" type="curve" smooth="yes"/>
      <point x="362" y="715"/>
      <point x="182" y="642"/>
      <point x="182" y="546" type="curve" smooth="yes"/>
      <point x="182" y="389"/>
      <point x="520" y="356"/>
      <point x="520" y="227" type="curve" smooth="yes"/>
      <point x="520" y="149"/>
      <point x="437" y="122"/>
      <point x="126" y="15" type="curve"/>
    </contour>
    <contour>
      <point x="126" y="0" type="line"/>
      <point x="1110" y="0" type="line"/>
      <point x="1110" y="92" type="line"/>
      <point x="1101" y="92" type="line"/>
      <point x="1101" y="52"/>
      <point x="1082" y="40"/>
      <point x="1035" y="40" type="curve" smooth="yes"/>
      <point x="246" y="40" type="line"/>
    </contour>
    <contour>
      <point x="126" y="265" type="line"/>
      <point x="1052" y="265" type="line"/>
      <point x="1052" y="280" type="line"/>
      <point x="126" y="279" type="line"/>
    </contour>
    <contour>
      <point x="126" y="399" type="line"/>
      <point x="1052" y="399" type="line"/>
      <point x="1052" y="414" type="line"/>
      <point x="126" y="414" type="line"/>
    </contour>
  </outline>
</glyph>
<glyph name="currency" format="2">
  <advance width="659"/>
  <unicode hex="00A4"/>
  <outline>
    <contour>
      <point x="335" y="230" type="curve" smooth="yes"/>
      <point x="472" y="230"/>
      <point x="584" y="297"/>
      <point x="584" y="395" type="curve" smooth="yes"/>
      <point x="584" y="491"/>
      <point x="472" y="559"/>
      <point x="335" y="559" type="curve" smooth="yes"/>
      <point x="199" y="559"/>
      <point x="88" y="491"/>
      <point x="88" y="395" type="curve" smooth="yes"/>
      <point x="88" y="297"/>
      <point x="199" y="230"/>
    </contour>
    <contour>
      <point x="335" y="248" type="curve" smooth="yes"/>
      <point x="214" y="248"/>
      <point x="110" y="308"/>
      <point x="110" y="395" type="curve" smooth="yes"/>
      <point x="110" y="481"/>
      <point x="214" y="541"/>
      <point x="335" y="541" type="curve" smooth="yes"/>
      <point x="455" y="541"/>
      <point x="562" y="481"/>
      <point x="562" y="395" type="curve" smooth="yes"/>
      <point x="562" y="308"/>
      <point x="455" y="248"/>
    </contour>
    <contour>
      <point x="99" y="558" type="line"/>
      <point x="85" y="545" type="line"/>
      <point x="142" y="489" type="line"/>
      <point x="155" y="501" type="line"/>
    </contour>
    <contour>
      <point x="573" y="558" type="line"/>
      <point x="517" y="501" type="line"/>
      <point x="530" y="489" type="line"/>
      <point x="587" y="545" type="line"/>
    </contour>
    <contour>
      <point x="99" y="231" type="line"/>
      <point x="155" y="288" type="line"/>
      <point x="142" y="300" type="line"/>
      <point x="85" y="244" type="line"/>
    </contour>
    <contour>
      <point x="573" y="231" type="line"/>
      <point x="587" y="244" type="line"/>
      <point x="530" y="300" type="line"/>
      <point x="517" y="288" type="line"/>
    </contour>
  </outline>
</glyph>
<glyph name="yen" format="2">
  <advance width="1236"/>
  <unicode hex="00A5"/>
  <outline>
    <contour>
      <point x="496" y="0" type="line"/>
      <point x="881" y="0" type="line"/>
      <point x="881" y="10" type="line"/>
      <point x="787" y="17"/>
      <point x="711" y="16"/>
      <point x="711" y="104" type="curve" smooth="yes"/>
      <point x="711" y="350" type="line"/>
      <point x="930" y="597" type="line" smooth="yes"/>
      <point x="1007" y="683"/>
      <point x="1098" y="683"/>
      <point x="1171" y="690" type="curve"/>
      <point x="1171" y="700" type="line"/>
      <point x="831" y="700" type="line"/>
      <point x="831" y="690" type="line"/>
      <point x="923" y="683"/>
      <point x="985" y="684"/>
      <point x="913" y="600" type="curve" smooth="yes"/>
      <point x="710" y="372" type="line"/>
      <point x="412" y="607" type="line" smooth="yes"/>
      <point x="318" y="684"/>
      <point x="373" y="683"/>
      <point x="463" y="690" type="curve"/>
      <point x="463" y="700" type="line"/>
      <point x="71" y="700" type="line"/>
      <point x="71" y="690" type="line"/>
      <point x="143" y="683"/>
      <point x="237" y="684"/>
      <point x="346" y="601" type="curve" smooth="yes"/>
      <point x="666" y="349" type="line"/>
      <point x="666" y="104" type="line" smooth="yes"/>
      <point x="666" y="16"/>
      <point x="590" y="17"/>
      <point x="496" y="10" type="curve"/>
    </contour>
    <contour>
      <point x="329" y="156" type="line"/>
      <point x="1012" y="156" type="line"/>
      <point x="1012" y="171" type="line"/>
      <point x="329" y="170" type="line"/>
    </contour>
    <contour>
      <point x="329" y="323" type="line"/>
      <point x="1012" y="323" type="line"/>
      <point x="1012" y="338" type="line"/>
      <point x="329" y="338" type="line"/>
    </contour>
  </outline>
</glyph>
<glyph name="brokenbar" format="2">
  <advance width="368"/>
  <unicode hex="00A6"/>
  <outline>
    <contour>
      <point x="193" y="226" type="line"/>
      <point x="175" y="226" type="line"/>
      <point x="175" y="-120" type="line"/>
      <point x="193" y="-120" type="line"/>
    </contour>
    <contour>
      <point x="175" y="366" type="line"/>
      <point x="193" y="366" type="line"/>
      <point x="193" y="715" type="line"/>
      <point x="175" y="715" type="line"/>
    </contour>
  </outline>
</glyph>
<glyph name="section" format="2">
  <advance width="794"/>
  <unicode hex="00A7"/>
  <outline>
    <contour>
      <point x="104" y="569" type="curve" smooth="yes"/>
      <point x="106" y="493"/>
      <point x="199" y="455"/>
      <point x="309" y="427" type="curve"/>
      <point x="155" y="413"/>
      <point x="55" y="345"/>
      <point x="57" y="248" type="curve" smooth="yes"/>
      <point x="61" y="54"/>
      <point x="687" y="86"/>
      <point x="687" y="-82" type="curve" smooth="yes"/>
      <point x="687" y="-168"/>
      <point x="542" y="-200"/>
      <point x="434" y="-200" type="curve" smooth="yes"/>
      <point x="289" y="-200"/>
      <point x="118" y="-137"/>
      <point x="82" y="72" type="curve"/>
      <point x="72" y="72" type="line"/>
      <point x="106" y="-137" type="line"/>
      <point x="159" y="-171"/>
      <point x="297" y="-215"/>
      <point x="409" y="-215" type="curve" smooth="yes"/>
      <point x="600" y="-215"/>
      <point x="725" y="-176"/>
      <point x="725" y="-67" type="curve" smooth="yes"/>
      <point x="725" y="12"/>
      <point x="613" y="49"/>
      <point x="483" y="79" type="curve"/>
      <point x="630" y="96"/>
      <point x="752" y="165"/>
      <point x="752" y="254" type="curve" smooth="yes"/>
      <point x="752" y="439"/>
      <point x="142" y="416"/>
      <point x="142" y="585" type="curve" smooth="yes"/>
      <point x="142" y="650"/>
      <point x="225" y="700"/>
      <point x="354" y="700" type="curve" smooth="yes"/>
      <point x="468" y="700"/>
      <point x="613" y="665"/>
      <point x="668" y="502" type="curve"/>
      <point x="678" y="502" type="line"/>
      <point x="625" y="668" type="line"/>
      <point x="551" y="697"/>
      <point x="448" y="715"/>
      <point x="354" y="715" type="curve" smooth="yes"/>
      <point x="183" y="715"/>
      <point x="102" y="645"/>
    </contour>
    <contour>
      <point x="95" y="264" type="curve" smooth="yes"/>
      <point x="95" y="365"/>
      <point x="237" y="411"/>
      <point x="366" y="412" type="curve"/>
      <point x="529" y="375"/>
      <point x="714" y="335"/>
      <point x="714" y="239" type="curve" smooth="yes"/>
      <point x="714" y="162"/>
      <point x="551" y="94"/>
      <point x="420" y="96" type="curve"/>
      <point x="253" y="130"/>
      <point x="95" y="174"/>
    </contour>
  </outline>
</glyph>
<glyph name="copyright" format="2">
  <advance width="1070"/>
  <unicode hex="00A9"/>
  <outline>
    <contour>
      <point x="536" y="-14" type="curve" smooth="yes"/>
      <point x="814" y="-14"/>
      <point x="1040" y="149"/>
      <point x="1040" y="351" type="curve" smooth="yes"/>
      <point x="1040" y="552"/>
      <point x="814" y="715"/>
      <point x="536" y="715" type="curve" smooth="yes"/>
      <point x="256" y="715"/>
      <point x="30" y="552"/>
      <point x="30" y="351" type="curve" smooth="yes"/>
      <point x="30" y="149"/>
      <point x="256" y="-14"/>
    </contour>
    <contour>
      <point x="536" y="4" type="curve" smooth="yes"/>
      <point x="271" y="4"/>
      <point x="51" y="159"/>
      <point x="51" y="351" type="curve" smooth="yes"/>
      <point x="51" y="542"/>
      <point x="271" y="697"/>
      <point x="536" y="697" type="curve" smooth="yes"/>
      <point x="801" y="697"/>
      <point x="1019" y="542"/>
      <point x="1019" y="351" type="curve" smooth="yes"/>
      <point x="1019" y="159"/>
      <point x="801" y="4"/>
    </contour>
    <contour>
      <point x="551" y="110" type="curve" smooth="yes"/>
      <point x="726" y="110"/>
      <point x="817" y="152"/>
      <point x="877" y="239" type="curve"/>
      <point x="866" y="248" type="line"/>
      <point x="816" y="166"/>
      <point x="714" y="124"/>
      <point x="580" y="124" type="curve" smooth="yes"/>
      <point x="333" y="124"/>
      <point x="210" y="241"/>
      <point x="210" y="356" type="curve" smooth="yes"/>
      <point x="210" y="465"/>
      <point x="317" y="570"/>
      <point x="536" y="578" type="curve" smooth="yes"/>
      <point x="703" y="584"/>
      <point x="786" y="540"/>
      <point x="846" y="380" type="curve"/>
      <point x="856" y="380" type="line"/>
      <point x="816" y="540" type="line"/>
      <point x="759" y="566"/>
      <point x="654" y="592"/>
      <point x="536" y="592" type="curve" smooth="yes"/>
      <point x="291" y="592"/>
      <point x="165" y="474"/>
      <point x="165" y="348" type="curve" smooth="yes"/>
      <point x="165" y="220"/>
      <point x="297" y="110"/>
    </contour>
  </outline>
</glyph>
<glyph name="guillemetleft" format="2">
  <advance width="531"/>
  <unicode hex="00AB"/>
  <outline>
    <contour>
      <point x="275" y="528" type="line"/>
      <point x="53" y="261" type="line"/>
      <point x="275" y="-6" type="line"/>
      <point x="285" y="0" type="line"/>
      <point x="97" y="261" type="line"/>
      <point x="285" y="522" type="line"/>
    </contour>
    <contour>
      <point x="457" y="478" type="line"/>
      <point x="245" y="261" type="line"/>
      <point x="457" y="44" type="line"/>
      <point x="467" y="50" type="line"/>
      <point x="289" y="261" type="line"/>
      <point x="467" y="472" type="line"/>
    </contour>
  </outline>
</glyph>
<glyph name="registered" format="2">
  <advance width="1110"/>
  <unicode hex="00AE"/>
  <outline>
    <contour>
      <point x="556" y="-14" type="curve" smooth="yes"/>
      <point x="854" y="-14"/>
      <point x="1080" y="149"/>
      <point x="1080" y="351" type="curve" smooth="yes"/>
      <point x="1080" y="552"/>
      <point x="854" y="715"/>
      <point x="556" y="715" type="curve" smooth="yes"/>
      <point x="256" y="715"/>
      <point x="30" y="552"/>
      <point x="30" y="351" type="curve" smooth="yes"/>
      <point x="30" y="149"/>
      <point x="256" y="-14"/>
    </contour>
    <contour>
      <point x="556" y="4" type="curve" smooth="yes"/>
      <point x="271" y="4"/>
      <point x="51" y="159"/>
      <point x="51" y="351" type="curve" smooth="yes"/>
      <point x="51" y="542"/>
      <point x="271" y="697"/>
      <point x="556" y="697" type="curve" smooth="yes"/>
      <point x="841" y="697"/>
      <point x="1059" y="542"/>
      <point x="1059" y="351" type="curve" smooth="yes"/>
      <point x="1059" y="159"/>
      <point x="841" y="4"/>
    </contour>
    <contour>
      <point x="830" y="184" type="curve" smooth="yes"/>
      <point x="792" y="292"/>
      <point x="864" y="387"/>
      <point x="727" y="409" type="curve"/>
      <point x="803" y="417"/>
      <point x="826" y="460"/>
      <point x="826" y="493" type="curve" smooth="yes"/>
      <point x="826" y="541"/>
      <point x="783" y="590"/>
      <point x="672" y="590" type="curve" smooth="yes"/>
      <point x="226" y="590" type="line"/>
      <point x="226" y="583" type="line"/>
      <point x="270" y="579"/>
      <point x="320" y="578"/>
      <point x="320" y="521" type="curve" smooth="yes"/>
      <point x="320" y="193" type="line" smooth="yes"/>
      <point x="320" y="135"/>
      <point x="270" y="135"/>
      <point x="226" y="130" type="curve"/>
      <point x="226" y="123" type="line"/>
      <point x="463" y="123" type="line"/>
      <point x="463" y="130" type="line"/>
      <point x="400" y="135"/>
      <point x="350" y="134"/>
      <point x="350" y="193" type="curve" smooth="yes"/>
      <point x="350" y="401" type="line"/>
      <point x="682" y="401" type="line" smooth="yes"/>
      <point x="837" y="401"/>
      <point x="764" y="267"/>
      <point x="800" y="181" type="curve" smooth="yes"/>
      <point x="821" y="131"/>
      <point x="854" y="121"/>
      <point x="880" y="121" type="curve" smooth="yes"/>
      <point x="903" y="121" type="line"/>
      <point x="903" y="128" type="line"/>
      <point x="872" y="128"/>
      <point x="846" y="139"/>
    </contour>
    <contour>
      <point x="680" y="414" type="curve" smooth="yes"/>
      <point x="350" y="414" type="line"/>
      <point x="350" y="577" type="line"/>
      <point x="680" y="577" type="line" smooth="yes"/>
      <point x="766" y="577"/>
      <point x="793" y="534"/>
      <point x="793" y="497" type="curve" smooth="yes"/>
      <point x="793" y="461"/>
      <point x="766" y="414"/>
    </contour>
  </outline>
</glyph>
<glyph name="degree" format="2">
  <advance width="360"/>
  <unicode hex="00B0"/>
  <outline>
    <contour>
      <point x="180" y="542" type="curve" smooth="yes"/>
      <point x="264" y="542"/>
      <point x="334" y="580"/>
      <point x="334" y="644" type="curve" smooth="yes"/>
      <point x="334" y="708"/>
      <point x="264" y="746"/>
      <point x="180" y="746" type="curve" smooth="yes"/>
      <point x="95" y="746"/>
      <point x="25" y="708"/>
      <point x="25" y="644" type="curve" smooth="yes"/>
      <point x="25" y="580"/>
      <point x="95" y="542"/>
    </contour>
    <contour>
      <point x="180" y="559" type="curve" smooth="yes"/>
      <point x="107" y="559"/>
      <point x="45" y="589"/>
      <point x="45" y="644" type="curve" smooth="yes"/>
      <point x="45" y="699"/>
      <point x="107" y="729"/>
      <point x="180" y="729" type="curve" smooth="yes"/>
      <point x="252" y="729"/>
      <point x="314" y="699"/>
      <point x="314" y="644" type="curve" smooth="yes"/>
      <point x="314" y="589"/>
      <point x="252" y="559"/>
    </contour>
  </outline>
</glyph>
<glyph name="plusminus" format="2">
  <advance width="1033"/>
  <unicode hex="00B1"/>
  <outline>
    <contour>
      <point x="110" y="291" type="line"/>
      <point x="110" y="271" type="line"/>
      <point x="923" y="271" type="line"/>
      <point x="923" y="291" type="line"/>
    </contour>
    <contour>
      <point x="509" y="70" type="line"/>
      <point x="524" y="70" type="line"/>
      <point x="524" y="492" type="line"/>
      <point x="509" y="492" type="line"/>
    </contour>
    <contour>
      <point x="110" y="20" type="line"/>
      <point x="110" y="0" type="line"/>
      <point x="923" y="0" type="line"/>
      <point x="923" y="20" type="line"/>
    </contour>
  </outline>
</glyph>
<glyph name="paragraph" format="2">
  <advance width="883"/>
  <unicode hex="00B6"/>
  <outline>
    <contour>
      <point x="645" y="700" type="line"/>
      <point x="645" y="-105" type="line"/>
      <point x="663" y="-105" type="line"/>
      <point x="663" y="700" type="line"/>
    </contour>
    <contour>
      <point x="415" y="700" type="line"/>
      <point x="415" y="-105" type="line"/>
      <point x="433" y="-105" type="line"/>
      <point x="433" y="700" type="line"/>
    </contour>
    <contour>
      <point x="362" y="682" type="line"/>
      <point x="647" y="682" type="line"/>
      <point x="647" y="700" type="line"/>
      <point x="362" y="700" type="line"/>
    </contour>
    <contour>
      <point x="420" y="393" type="curve"/>
      <point x="420" y="700" type="line"/>
      <point x="420" y="700"/>
      <point x="342" y="700"/>
      <point x="340" y="700" type="curve" smooth="yes"/>
      <point x="180" y="700"/>
      <point x="85" y="652"/>
      <point x="85" y="548" type="curve" smooth="yes"/>
      <point x="85" y="442"/>
      <point x="180" y="393"/>
      <point x="340" y="393" type="curve" smooth="yes"/>
      <point x="342" y="393"/>
      <point x="420" y="393"/>
    </contour>
    <contour>
      <point x="663" y="596" type="line"/>
      <point x="663" y="684"/>
      <point x="739" y="683"/>
      <point x="833" y="690" type="curve"/>
      <point x="833" y="700" type="line"/>
      <point x="663" y="700" type="line"/>
    </contour>
  </outline>
</glyph>
<glyph name="guillemetright" format="2">
  <advance width="531"/>
  <unicode hex="00BB"/>
  <outline>
    <contour>
      <point x="256" y="528" type="line"/>
      <point x="246" y="522" type="line"/>
      <point x="434" y="261" type="line"/>
      <point x="246" y="0" type="line"/>
      <point x="256" y="-6" type="line"/>
      <point x="478" y="261" type="line"/>
    </contour>
    <contour>
      <point x="74" y="478" type="line"/>
      <point x="64" y="472" type="line"/>
      <point x="242" y="261" type="line"/>
      <point x="64" y="50" type="line"/>
      <point x="74" y="44" type="line"/>
      <point x="286" y="261" type="line"/>
    </contour>
  </outline>
</glyph>
<glyph name="onequarter" format="2">
  <advance width="995"/>
  <unicode hex="00BC"/>
  <outline>
    <contour>
      <point x="224" y="410" type="curve" smooth="yes"/>
      <point x="224" y="700" type="line"/>
      <point x="195" y="700" type="line"/>
      <point x="160" y="664"/>
      <point x="97" y="642"/>
      <point x="49" y="639" type="curve"/>
      <point x="49" y="627" type="line"/>
      <point x="89" y="629"/>
      <point x="144" y="640"/>
      <point x="180" y="665" type="curve"/>
      <point x="180" y="410" type="line" smooth="yes"/>
      <point x="180" y="364"/>
      <point x="117" y="358"/>
      <point x="73" y="355" type="curve"/>
      <point x="73" y="350" type="line"/>
      <point x="330" y="350" type="line"/>
      <point x="330" y="355" type="line"/>
      <point x="284" y="359"/>
      <point x="224" y="365"/>
    </contour>
    <contour>
      <point x="848" y="60" type="curve" smooth="yes"/>
      <point x="848" y="137" type="line"/>
      <point x="914" y="137" type="line"/>
      <point x="914" y="199" type="line"/>
      <point x="909" y="199" type="line"/>
      <point x="909" y="179"/>
      <point x="900" y="173"/>
      <point x="876" y="173" type="curve" smooth="yes"/>
      <point x="848" y="173" type="line"/>
      <point x="848" y="350" type="line"/>
      <point x="804" y="350" type="line"/>
      <point x="493" y="173" type="line"/>
      <point x="493" y="137" type="line"/>
      <point x="804" y="137" type="line"/>
      <point x="804" y="60" type="line" smooth="yes"/>
      <point x="804" y="16"/>
      <point x="752" y="8"/>
      <point x="709" y="5" type="curve"/>
      <point x="709" y="0" type="line"/>
      <point x="943" y="0" type="line"/>
      <point x="943" y="5" type="line"/>
      <point x="901" y="9"/>
      <point x="848" y="17"/>
    </contour>
    <contour>
      <point x="518" y="173" type="line"/>
      <point x="804" y="336" type="line"/>
      <point x="804" y="173" type="line"/>
    </contour>
    <component base="fraction" xOffset="181"/>
  </outline>
</glyph>
<glyph name="onehalf" format="2">
  <advance width="1104"/>
  <unicode hex="00BD"/>
  <outline>
    <contour>
      <point x="224" y="410" type="curve" smooth="yes"/>
      <point x="224" y="700" type="line"/>
      <point x="195" y="700" type="line"/>
      <point x="160" y="664"/>
      <point x="97" y="642"/>
      <point x="49" y="639" type="curve"/>
      <point x="49" y="627" type="line"/>
      <point x="89" y="629"/>
      <point x="144" y="640"/>
      <point x="180" y="665" type="curve"/>
      <point x="180" y="410" type="line" smooth="yes"/>
      <point x="180" y="364"/>
      <point x="117" y="358"/>
      <point x="73" y="355" type="curve"/>
      <point x="73" y="350" type="line"/>
      <point x="330" y="350" type="line"/>
      <point x="330" y="355" type="line"/>
      <point x="284" y="359"/>
      <point x="224" y="365"/>
    </contour>
    <contour>
      <point x="894" y="-16" type="curve" smooth="yes"/>
      <point x="980" y="-16"/>
      <point x="1020" y="-1"/>
      <point x="1020" y="73" type="curve"/>
      <point x="1009" y="73" type="line"/>
      <point x="1009" y="31"/>
      <point x="993" y="19"/>
      <point x="945" y="19" type="curve" smooth="yes"/>
      <point x="864" y="19"/>
      <point x="746" y="75"/>
      <point x="695" y="73" type="curve"/>
      <point x="788" y="138"/>
      <point x="1034" y="138"/>
      <point x="1034" y="244" type="curve" smooth="yes"/>
      <point x="1034" y="298"/>
      <point x="946" y="350"/>
      <point x="814" y="350" type="curve" smooth="yes"/>
      <point x="747" y="350"/>
      <point x="666" y="336"/>
      <point x="607" y="311" type="curve"/>
      <point x="593" y="227" type="line"/>
      <point x="598" y="227" type="line"/>
      <point x="633" y="301"/>
      <point x="716" y="338"/>
      <point x="806" y="338" type="curve" smooth="yes"/>
      <point x="891" y="338"/>
      <point x="983" y="302"/>
      <point x="983" y="247" type="curve" smooth="yes"/>
      <point x="983" y="149"/>
      <point x="795" y="157"/>
      <point x="665" y="68" type="curve" smooth="yes"/>
      <point x="630" y="44"/>
      <point x="598" y="14"/>
      <point x="591" y="-8" type="curve"/>
      <point x="603" y="-8" type="line"/>
      <point x="616" y="12"/>
      <point x="628" y="26"/>
      <point x="640" y="34" type="curve" smooth="yes"/>
      <point x="649" y="40"/>
      <point x="658" y="40"/>
      <point x="672" y="40" type="curve" smooth="yes"/>
      <point x="724" y="38"/>
      <point x="812" y="-16"/>
    </contour>
    <component base="fraction" xOffset="181"/>
  </outline>
</glyph>
<glyph name="threequarters" format="2">
  <advance width="1153"/>
  <unicode hex="00BE"/>
  <outline>
    <contour>
      <point x="282" y="351" type="curve" smooth="yes"/>
      <point x="447" y="351"/>
      <point x="540" y="388"/>
      <point x="540" y="457" type="curve" smooth="yes"/>
      <point x="540" y="499"/>
      <point x="483" y="542"/>
      <point x="376" y="558" type="curve"/>
      <point x="464" y="570"/>
      <point x="529" y="589"/>
      <point x="529" y="634" type="curve" smooth="yes"/>
      <point x="529" y="679"/>
      <point x="437" y="716"/>
      <point x="314" y="716" type="curve" smooth="yes"/>
      <point x="252" y="716"/>
      <point x="174" y="703"/>
      <point x="113" y="677" type="curve"/>
      <point x="100" y="593" type="line"/>
      <point x="105" y="593" type="line"/>
      <point x="139" y="666"/>
      <point x="220" y="704"/>
      <point x="313" y="704" type="curve" smooth="yes"/>
      <point x="401" y="704"/>
      <point x="479" y="669"/>
      <point x="479" y="630" type="curve" smooth="yes"/>
      <point x="479" y="591"/>
      <point x="402" y="564"/>
      <point x="299" y="564" type="curve" smooth="yes"/>
      <point x="239" y="564" type="line"/>
      <point x="227" y="553" type="line"/>
      <point x="299" y="553" type="line" smooth="yes"/>
      <point x="395" y="553"/>
      <point x="490" y="511"/>
      <point x="490" y="458" type="curve" smooth="yes"/>
      <point x="490" y="397"/>
      <point x="399" y="364"/>
      <point x="291" y="362" type="curve" smooth="yes"/>
      <point x="176" y="360"/>
      <point x="100" y="400"/>
      <point x="66" y="473" type="curve"/>
      <point x="61" y="473" type="line"/>
      <point x="74" y="390" type="line"/>
      <point x="132" y="365"/>
      <point x="210" y="351"/>
    </contour>
    <contour>
      <point x="1006" y="60" type="curve" smooth="yes"/>
      <point x="1006" y="137" type="line"/>
      <point x="1073" y="137" type="line"/>
      <point x="1073" y="199" type="line"/>
      <point x="1068" y="199" type="line"/>
      <point x="1068" y="179"/>
      <point x="1059" y="173"/>
      <point x="1035" y="173" type="curve" smooth="yes"/>
      <point x="1006" y="173" type="line"/>
      <point x="1006" y="350" type="line"/>
      <point x="962" y="350" type="line"/>
      <point x="652" y="173" type="line"/>
      <point x="652" y="137" type="line"/>
      <point x="962" y="137" type="line"/>
      <point x="962" y="60" type="line" smooth="yes"/>
      <point x="962" y="16"/>
      <point x="910" y="8"/>
      <point x="867" y="5" type="curve"/>
      <point x="867" y="0" type="line"/>
      <point x="1101" y="0" type="line"/>
      <point x="1101" y="5" type="line"/>
      <point x="1059" y="9"/>
      <point x="1006" y="17"/>
    </contour>
    <contour>
      <point x="676" y="173" type="line"/>
      <point x="962" y="336" type="line"/>
      <point x="962" y="173" type="line"/>
    </contour>
    <component base="fraction" xOffset="332"/>
  </outline>
</glyph>
<glyph name="AE" format="2">
  <advance width="1533"/>
  <unicode hex="00C6"/>
  <anchor x="767" y="0" name="bottom"/>
  <anchor x="767" y="700" name="top"/>
  <outline>
    <contour>
      <point x="522" y="0" type="line"/>
      <point x="1425" y="0" type="line"/>
      <point x="1425" y="244" type="line"/>
      <point x="1415" y="244" type="line"/>
      <point x="1409" y="106"/>
      <point x="1389" y="23"/>
      <point x="1298" y="15" type="curve"/>
      <point x="737" y="15" type="line"/>
      <point x="737" y="685" type="line"/>
      <point x="1272" y="685" type="line" smooth="yes"/>
      <point x="1385" y="685"/>
      <point x="1408" y="605"/>
      <point x="1415" y="455" type="curve"/>
      <point x="1425" y="455" type="line"/>
      <point x="1425" y="700" type="line"/>
      <point x="522" y="700" type="line"/>
      <point x="522" y="690" type="line"/>
      <point x="618" y="683"/>
      <point x="692" y="682"/>
      <point x="692" y="596" type="curve" smooth="yes"/>
      <point x="692" y="104" type="line" smooth="yes"/>
      <point x="692" y="18"/>
      <point x="618" y="17"/>
      <point x="522" y="10" type="curve"/>
    </contour>
    <contour>
      <point x="0" y="0" type="line"/>
      <point x="339" y="0" type="line"/>
      <point x="339" y="10" type="line"/>
      <point x="243" y="17"/>
      <point x="163" y="30"/>
      <point x="232" y="103" type="curve" smooth="yes"/>
      <point x="719" y="618" type="line"/>
      <point x="707" y="629" type="line"/>
      <point x="213" y="103" type="line" smooth="yes"/>
      <point x="143" y="29"/>
      <point x="96" y="17"/>
      <point x="0" y="10" type="curve"/>
    </contour>
    <contour>
      <point x="1192" y="197" type="curve"/>
      <point x="1202" y="200" type="line"/>
      <point x="1097" y="510" type="line"/>
      <point x="1087" y="507" type="line"/>
      <point x="1110" y="407"/>
      <point x="1101" y="390"/>
      <point x="1010" y="390" type="curve" smooth="yes"/>
      <point x="484" y="390" type="line"/>
      <point x="475" y="375" type="line"/>
      <point x="1010" y="374" type="line" smooth="yes"/>
      <point x="1106" y="374"/>
      <point x="1132" y="343"/>
    </contour>
  </outline>
</glyph>
<glyph name="multiply" format="2">
  <advance width="1053"/>
  <unicode hex="00D7"/>
  <outline>
    <contour>
      <point x="130" y="490" type="line"/>
      <point x="119" y="473" type="line"/>
      <point x="939" y="15" type="line"/>
      <point x="951" y="31" type="line"/>
    </contour>
    <contour>
      <point x="114" y="28" type="line"/>
      <point x="122" y="15" type="line"/>
      <point x="942" y="476" type="line"/>
      <point x="934" y="489" type="line"/>
    </contour>
  </outline>
</glyph>
<glyph name="Oslash" format="2">
  <advance width="1325"/>
  <unicode hex="00D8"/>
  <anchor x="663" y="0" name="bottom"/>
  <anchor x="663" y="700" name="top"/>
  <outline>
    <contour>
      <point x="1063" y="766" type="line"/>
      <point x="135" y="-58" type="line"/>
      <point x="162" y="-58" type="line"/>
      <point x="1088" y="764" type="line"/>
    </contour>
    <component base="O"/>
  </outline>
</glyph>
<glyph name="Thorn" format="2">
  <advance width="1079"/>
  <unicode hex="00DE"/>
  <anchor x="540" y="0" name="bottom"/>
  <anchor x="540" y="700" name="top"/>
  <outline>
    <contour>
      <point x="269" y="104" type="curve" smooth="yes"/>
      <point x="269" y="596" type="line" smooth="yes"/>
      <point x="269" y="682"/>
      <point x="345" y="683"/>
      <point x="439" y="690" type="curve"/>
      <point x="439" y="700" type="line"/>
      <point x="54" y="700" type="line"/>
      <point x="54" y="690" type="line"/>
      <point x="150" y="683"/>
      <point x="224" y="682"/>
      <point x="224" y="596" type="curve" smooth="yes"/>
      <point x="224" y="104" type="line" smooth="yes"/>
      <point x="224" y="16"/>
      <point x="150" y="17"/>
      <point x="54" y="10" type="curve"/>
      <point x="54" y="0" type="line"/>
      <point x="439" y="0" type="line"/>
      <point x="439" y="10" type="line"/>
      <point x="345" y="17"/>
      <point x="269" y="16"/>
    </contour>
    <contour>
      <point x="248" y="139" type="line"/>
      <point x="711" y="139" type="line" smooth="yes"/>
      <point x="935" y="139"/>
      <point x="1013" y="244"/>
      <point x="1013" y="356" type="curve" smooth="yes"/>
      <point x="1013" y="468"/>
      <point x="932" y="569"/>
      <point x="711" y="569" type="curve" smooth="yes"/>
      <point x="248" y="569" type="line"/>
      <point x="248" y="554" type="line"/>
      <point x="678" y="554" type="line" smooth="yes"/>
      <point x="892" y="554"/>
      <point x="968" y="468"/>
      <point x="968" y="354" type="curve" smooth="yes"/>
      <point x="968" y="240"/>
      <point x="892" y="154"/>
      <point x="678" y="154" type="curve" smooth="yes"/>
      <point x="248" y="154" type="line"/>
    </contour>
  </outline>
</glyph>
<glyph name="germandbls" format="2">
  <advance width="1091"/>
  <unicode hex="00DF"/>
  <outline>
    <contour>
      <point x="35" y="0" type="line"/>
      <point x="245" y="0" type="line"/>
      <point x="245" y="500" type="line"/>
      <point x="234" y="513"/>
      <point x="228" y="532"/>
      <point x="228" y="572" type="curve" smooth="yes"/>
      <point x="228" y="628"/>
      <point x="297" y="701"/>
      <point x="440" y="701" type="curve" smooth="yes"/>
      <point x="600" y="701"/>
      <point x="687" y="643"/>
      <point x="686" y="587" type="curve" smooth="yes"/>
      <point x="684" y="470"/>
      <point x="335" y="540"/>
      <point x="343" y="369" type="curve" smooth="yes"/>
      <point x="347" y="273"/>
      <point x="560" y="244"/>
      <point x="724" y="231" type="curve" smooth="yes"/>
      <point x="853" y="221"/>
      <point x="1023" y="207"/>
      <point x="1023" y="119" type="curve" smooth="yes"/>
      <point x="1023" y="33"/>
      <point x="828" y="1"/>
      <point x="700" y="1" type="curve" smooth="yes"/>
      <point x="455" y="1"/>
      <point x="334" y="74"/>
      <point x="298" y="283" type="curve"/>
      <point x="288" y="283" type="line"/>
      <point x="322" y="74" type="line"/>
      <point x="393" y="28"/>
      <point x="537" y="-14"/>
      <point x="685" y="-14" type="curve" smooth="yes"/>
      <point x="896" y="-14"/>
      <point x="1061" y="25"/>
      <point x="1061" y="134" type="curve" smooth="yes"/>
      <point x="1061" y="228"/>
      <point x="874" y="250"/>
      <point x="732" y="265" type="curve" smooth="yes"/>
      <point x="577" y="281"/>
      <point x="381" y="300"/>
      <point x="381" y="385" type="curve" smooth="yes"/>
      <point x="381" y="533"/>
      <point x="724" y="459"/>
      <point x="723" y="593" type="curve" smooth="yes"/>
      <point x="722" y="662"/>
      <point x="609" y="716"/>
      <point x="455" y="716" type="curve" smooth="yes"/>
      <point x="326" y="716"/>
      <point x="205" y="662"/>
      <point x="205" y="547" type="curve" smooth="yes"/>
      <point x="205" y="500" type="line"/>
      <point x="35" y="500" type="line"/>
      <point x="35" y="485" type="line"/>
      <point x="205" y="485" type="line"/>
      <point x="205" y="104" type="line" smooth="yes"/>
      <point x="205" y="18"/>
      <point x="131" y="17"/>
      <point x="35" y="10" type="curve"/>
    </contour>
  </outline>
</glyph>
<glyph name="ae" format="2">
  <advance width="1659"/>
  <unicode hex="00E6"/>
  <guideline x="868" y="320" angle="0"/>
  <anchor x="830" y="0" name="bottom"/>
  <anchor x="830" y="500" name="top"/>
  <outline>
    <contour>
      <point x="383" y="-15" type="curve" smooth="yes"/>
      <point x="612" y="-15"/>
      <point x="766" y="48"/>
      <point x="825" y="158" type="curve"/>
      <point x="878" y="60"/>
      <point x="1015" y="-15"/>
      <point x="1235" y="-15" type="curve" smooth="yes"/>
      <point x="1484" y="-15"/>
      <point x="1565" y="81"/>
      <point x="1610" y="151" type="curve"/>
      <point x="1597" y="159" type="line"/>
      <point x="1559" y="90"/>
      <point x="1462" y="0"/>
      <point x="1251" y="0" type="curve" smooth="yes"/>
      <point x="986" y="0"/>
      <point x="849" y="134"/>
      <point x="849" y="264" type="curve" smooth="yes"/>
      <point x="849" y="283"/>
      <point x="852" y="302"/>
      <point x="858" y="320" type="curve"/>
      <point x="1599" y="320" type="line"/>
      <point x="1599" y="405"/>
      <point x="1492" y="515"/>
      <point x="1210" y="515" type="curve" smooth="yes"/>
      <point x="1011" y="515"/>
      <point x="880" y="451"/>
      <point x="831" y="364" type="curve"/>
      <point x="793" y="452"/>
      <point x="640" y="515"/>
      <point x="472" y="515" type="curve" smooth="yes"/>
      <point x="303" y="515"/>
      <point x="187" y="487"/>
      <point x="125" y="458" type="curve"/>
      <point x="81" y="282" type="line"/>
      <point x="91" y="282" type="line"/>
      <point x="157" y="459"/>
      <point x="250" y="500"/>
      <point x="475" y="500" type="curve" smooth="yes"/>
      <point x="607" y="500"/>
      <point x="790" y="448"/>
      <point x="799" y="335" type="curve"/>
      <point x="303" y="335"/>
      <point x="61" y="301"/>
      <point x="61" y="148" type="curve" smooth="yes"/>
      <point x="61" y="35"/>
      <point x="192" y="-15"/>
    </contour>
    <contour>
      <point x="410" y="0" type="curve" smooth="yes"/>
      <point x="233" y="0"/>
      <point x="111" y="50"/>
      <point x="111" y="158" type="curve" smooth="yes"/>
      <point x="111" y="306"/>
      <point x="384" y="314"/>
      <point x="799" y="320" type="curve"/>
      <point x="799" y="296"/>
      <point x="799" y="278"/>
      <point x="799" y="252" type="curve" smooth="yes"/>
      <point x="799" y="218" type="line" smooth="yes"/>
      <point x="799" y="80"/>
      <point x="603" y="0"/>
    </contour>
    <contour>
      <point x="863" y="335" type="line"/>
      <point x="902" y="426"/>
      <point x="1016" y="500"/>
      <point x="1211" y="500" type="curve" smooth="yes"/>
      <point x="1366" y="500"/>
      <point x="1533" y="441"/>
      <point x="1554" y="335" type="curve"/>
    </contour>
  </outline>
</glyph>
<glyph name="eth" format="2">
  <advance width="1008"/>
  <unicode hex="00F0"/>
  <anchor x="174" y="0" name="bottom"/>
  <anchor x="174" y="800" name="top"/>
  <outline>
    <contour>
      <point x="82" y="246" type="curve" smooth="yes"/>
      <point x="82" y="72"/>
      <point x="271" y="-15"/>
      <point x="490" y="-15" type="curve" smooth="yes"/>
      <point x="733" y="-15"/>
      <point x="938" y="95"/>
      <point x="938" y="335" type="curve" smooth="yes"/>
      <point x="938" y="605"/>
      <point x="711" y="735"/>
      <point x="457" y="735" type="curve" smooth="yes"/>
      <point x="329" y="735"/>
      <point x="197" y="709"/>
      <point x="85" y="657" type="curve"/>
      <point x="70" y="570" type="line"/>
      <point x="79" y="570" type="line"/>
      <point x="116" y="670"/>
      <point x="252" y="720"/>
      <point x="465" y="720" type="curve" smooth="yes"/>
      <point x="686" y="720"/>
      <point x="874" y="599"/>
      <point x="892" y="372" type="curve"/>
      <point x="837" y="473"/>
      <point x="666" y="516"/>
      <point x="507" y="516" type="curve" smooth="yes"/>
      <point x="273" y="516"/>
      <point x="82" y="422"/>
    </contour>
    <contour>
      <point x="885" y="259" type="curve" smooth="yes"/>
      <point x="882" y="155"/>
      <point x="766" y="0"/>
      <point x="485" y="0" type="curve" smooth="yes"/>
      <point x="273" y="0"/>
      <point x="127" y="105"/>
      <point x="127" y="251" type="curve" smooth="yes"/>
      <point x="127" y="395"/>
      <point x="275" y="501"/>
      <point x="515" y="501" type="curve" smooth="yes"/>
      <point x="754" y="501"/>
      <point x="889" y="416"/>
    </contour>
    <contour>
      <point x="309" y="613" type="line"/>
      <point x="313" y="594" type="line"/>
      <point x="842" y="728" type="line"/>
      <point x="838" y="745" type="line"/>
    </contour>
  </outline>
</glyph>
<glyph name="divide" format="2">
  <advance width="1033"/>
  <unicode hex="00F7"/>
  <outline>
    <contour>
      <point x="110" y="266" type="line"/>
      <point x="110" y="246" type="line"/>
      <point x="923" y="246" type="line"/>
      <point x="923" y="266" type="line"/>
    </contour>
    <contour>
      <point x="516" y="411" type="curve" smooth="yes"/>
      <point x="535" y="411"/>
      <point x="550" y="426"/>
      <point x="550" y="446" type="curve" smooth="yes"/>
      <point x="550" y="465"/>
      <point x="535" y="480"/>
      <point x="516" y="480" type="curve" smooth="yes"/>
      <point x="496" y="480"/>
      <point x="481" y="465"/>
      <point x="481" y="446" type="curve" smooth="yes"/>
      <point x="481" y="426"/>
      <point x="496" y="411"/>
    </contour>
    <contour>
      <point x="516" y="32" type="curve" smooth="yes"/>
      <point x="535" y="32"/>
      <point x="550" y="47"/>
      <point x="550" y="67" type="curve" smooth="yes"/>
      <point x="550" y="86"/>
      <point x="535" y="101"/>
      <point x="516" y="101" type="curve" smooth="yes"/>
      <point x="496" y="101"/>
      <point x="481" y="86"/>
      <point x="481" y="67" type="curve" smooth="yes"/>
      <point x="481" y="47"/>
      <point x="496" y="32"/>
    </contour>
  </outline>
</glyph>
<glyph name="thorn" format="2">
  <advance width="1074"/>
  <unicode hex="00FE"/>
  <anchor x="537" y="0" name="bottom"/>
  <anchor x="537" y="500" name="top"/>
  <outline>
    <contour>
      <point x="34" y="-200" type="line"/>
      <point x="414" y="-200" type="line"/>
      <point x="414" y="-190" type="line"/>
      <point x="320" y="-183"/>
      <point x="244" y="-184"/>
      <point x="244" y="-96" type="curve" smooth="yes"/>
      <point x="244" y="137" type="line"/>
      <point x="315" y="44"/>
      <point x="466" y="-15"/>
      <point x="625" y="-15" type="curve" smooth="yes"/>
      <point x="840" y="-15"/>
      <point x="1021" y="94"/>
      <point x="1021" y="250" type="curve" smooth="yes"/>
      <point x="1021" y="406"/>
      <point x="840" y="515"/>
      <point x="625" y="515" type="curve" smooth="yes"/>
      <point x="465" y="515"/>
      <point x="315" y="458"/>
      <point x="244" y="364" type="curve"/>
      <point x="244" y="700" type="line"/>
      <point x="34" y="700" type="line"/>
      <point x="34" y="690" type="line"/>
      <point x="128" y="684"/>
      <point x="204" y="683"/>
      <point x="204" y="596" type="curve" smooth="yes"/>
      <point x="204" y="-96" type="line" smooth="yes"/>
      <point x="204" y="-182"/>
      <point x="130" y="-183"/>
      <point x="34" y="-190" type="curve"/>
    </contour>
    <contour>
      <point x="244" y="249" type="curve" smooth="yes"/>
      <point x="244" y="415"/>
      <point x="450" y="500"/>
      <point x="611" y="500" type="curve" smooth="yes"/>
      <point x="792" y="500"/>
      <point x="971" y="417"/>
      <point x="971" y="249" type="curve" smooth="yes"/>
      <point x="971" y="82"/>
      <point x="791" y="0"/>
      <point x="610" y="0" type="curve" smooth="yes"/>
      <point x="450" y="0"/>
      <point x="244" y="86"/>
    </contour>
  </outline>
</glyph>
<glyph name="dcroat" format="2">
  <advance width="1009"/>
  <unicode hex="0111"/>
  <outline>
    <contour>
      <point x="430" y="605" type="line"/>
      <point x="430" y="589" type="line"/>
      <point x="951" y="589" type="line"/>
      <point x="951" y="605" type="line"/>
    </contour>
    <component base="d"/>
  </outline>
</glyph>
<glyph name="idotless" format="2">
  <advance width="440"/>
  <unicode hex="0131"/>
  <anchor x="220" y="0" name="bottom"/>
  <anchor x="396" y="10" name="ogonek"/>
  <anchor x="220" y="500" name="top"/>
  <outline>
    <contour>
      <point x="34" y="0" type="line"/>
      <point x="414" y="0" type="line"/>
      <point x="414" y="10" type="line"/>
      <point x="320" y="17"/>
      <point x="244" y="16"/>
      <point x="244" y="104" type="curve" smooth="yes"/>
      <point x="244" y="500" type="line"/>
      <point x="34" y="500" type="line"/>
      <point x="34" y="490" type="line"/>
      <point x="128" y="484"/>
      <point x="204" y="483"/>
      <point x="204" y="396" type="curve" smooth="yes"/>
      <point x="204" y="104" type="line" smooth="yes"/>
      <point x="204" y="18"/>
      <point x="130" y="17"/>
      <point x="34" y="10" type="curve"/>
    </contour>
  </outline>
</glyph>
<glyph name="Lslash" format="2">
  <advance width="1022"/>
  <unicode hex="0141"/>
  <outline>
    <contour>
      <point x="508" y="512" type="line"/>
      <point x="109" y="292" type="line"/>
      <point x="117" y="276" type="line"/>
      <point x="516" y="496" type="line"/>
    </contour>
    <component base="L"/>
  </outline>
</glyph>
<glyph name="lslash" format="2">
  <advance width="432"/>
  <unicode hex="0142"/>
  <outline>
    <contour>
      <point x="369" y="531" type="line"/>
      <point x="49" y="354" type="line"/>
      <point x="57" y="338" type="line"/>
      <point x="377" y="515" type="line"/>
    </contour>
    <component base="l"/>
  </outline>
</glyph>
<glyph name="OE" format="2">
  <advance width="1671"/>
  <unicode hex="0152"/>
  <anchor x="836" y="0" name="bottom"/>
  <anchor x="836" y="700" name="top"/>
  <outline>
    <contour>
      <point x="1410" y="685" type="line" smooth="yes"/>
      <point x="1523" y="685"/>
      <point x="1546" y="605"/>
      <point x="1553" y="455" type="curve"/>
      <point x="1563" y="455" type="line"/>
      <point x="1563" y="700" type="line"/>
      <point x="665" y="700" type="line" smooth="yes"/>
      <point x="348" y="700"/>
      <point x="74" y="586"/>
      <point x="74" y="345" type="curve" smooth="yes"/>
      <point x="74" y="103"/>
      <point x="348" y="0"/>
      <point x="665" y="0" type="curve" smooth="yes"/>
      <point x="1563" y="0" type="line"/>
      <point x="1563" y="244" type="line"/>
      <point x="1553" y="244" type="line"/>
      <point x="1547" y="106"/>
      <point x="1527" y="23"/>
      <point x="1436" y="15" type="curve"/>
      <point x="927" y="15" type="line"/>
      <point x="927" y="485" type="line"/>
      <point x="1148" y="484" type="line" smooth="yes"/>
      <point x="1244" y="484"/>
      <point x="1270" y="453"/>
      <point x="1330" y="307" type="curve"/>
      <point x="1340" y="310" type="line"/>
      <point x="1235" y="620" type="line"/>
      <point x="1225" y="617" type="line"/>
      <point x="1248" y="517"/>
      <point x="1239" y="500"/>
      <point x="1148" y="500" type="curve" smooth="yes"/>
      <point x="927" y="500" type="line"/>
      <point x="927" y="685" type="line"/>
    </contour>
    <contour>
      <point x="882" y="109" type="line" smooth="yes"/>
      <point x="882" y="23"/>
      <point x="809" y="15"/>
      <point x="732" y="15" type="curve" smooth="yes"/>
      <point x="665" y="15" type="line" smooth="yes"/>
      <point x="303" y="15"/>
      <point x="124" y="154"/>
      <point x="124" y="349" type="curve" smooth="yes"/>
      <point x="124" y="544"/>
      <point x="305" y="685"/>
      <point x="665" y="685" type="curve" smooth="yes"/>
      <point x="732" y="685" type="line" smooth="yes"/>
      <point x="809" y="685"/>
      <point x="882" y="677"/>
      <point x="882" y="591" type="curve" smooth="yes"/>
    </contour>
  </outline>
</glyph>
<glyph name="oe" format="2">
  <advance width="1755"/>
  <unicode hex="0153"/>
  <anchor x="878" y="0" name="bottom"/>
  <anchor x="878" y="500" name="top"/>
  <outline>
    <contour>
      <point x="499" y="-15" type="curve" smooth="yes"/>
      <point x="701" y="-15"/>
      <point x="863" y="61"/>
      <point x="917" y="166" type="curve"/>
      <point x="971" y="69"/>
      <point x="1113" y="-15"/>
      <point x="1331" y="-15" type="curve" smooth="yes"/>
      <point x="1580" y="-15"/>
      <point x="1661" y="81"/>
      <point x="1706" y="151" type="curve"/>
      <point x="1693" y="159" type="line"/>
      <point x="1655" y="90"/>
      <point x="1558" y="0"/>
      <point x="1347" y="0" type="curve" smooth="yes"/>
      <point x="1082" y="0"/>
      <point x="945" y="134"/>
      <point x="945" y="264" type="curve" smooth="yes"/>
      <point x="945" y="283"/>
      <point x="948" y="302"/>
      <point x="954" y="320" type="curve"/>
      <point x="1695" y="320" type="line"/>
      <point x="1695" y="405"/>
      <point x="1588" y="515"/>
      <point x="1306" y="515" type="curve" smooth="yes"/>
      <point x="1093" y="515"/>
      <point x="963" y="444"/>
      <point x="915" y="347" type="curve"/>
      <point x="852" y="449"/>
      <point x="695" y="515"/>
      <point x="499" y="515" type="curve" smooth="yes"/>
      <point x="244" y="515"/>
      <point x="53" y="402"/>
      <point x="53" y="246" type="curve" smooth="yes"/>
      <point x="53" y="90"/>
      <point x="244" y="-15"/>
    </contour>
    <contour>
      <point x="499" y="2" type="curve" smooth="yes"/>
      <point x="301" y="2"/>
      <point x="103" y="83"/>
      <point x="103" y="246" type="curve" smooth="yes"/>
      <point x="103" y="415"/>
      <point x="301" y="499"/>
      <point x="499" y="499" type="curve" smooth="yes"/>
      <point x="697" y="499"/>
      <point x="895" y="415"/>
      <point x="895" y="246" type="curve" smooth="yes"/>
      <point x="895" y="83"/>
      <point x="697" y="2"/>
    </contour>
    <contour>
      <point x="959" y="335" type="line"/>
      <point x="998" y="426"/>
      <point x="1112" y="500"/>
      <point x="1307" y="500" type="curve" smooth="yes"/>
      <point x="1462" y="500"/>
      <point x="1629" y="441"/>
      <point x="1650" y="335" type="curve"/>
    </contour>
  </outline>
</glyph>
<glyph name="florin" format="2">
  <advance width="949"/>
  <unicode hex="0192"/>
  <outline>
    <contour>
      <point x="480" y="547" type="curve" smooth="yes"/>
      <point x="454" y="269" type="line"/>
      <point x="68" y="269" type="line"/>
      <point x="68" y="254" type="line"/>
      <point x="453" y="254" type="line"/>
      <point x="429" y="1" type="line"/>
      <point x="441" y="-14"/>
      <point x="446" y="-33"/>
      <point x="446" y="-71" type="curve" smooth="yes"/>
      <point x="446" y="-127"/>
      <point x="407" y="-200"/>
      <point x="264" y="-200" type="curve" smooth="yes"/>
      <point x="141" y="-200"/>
      <point x="62" y="-157"/>
      <point x="3" y="-33" type="curve"/>
      <point x="-7" y="-33" type="line"/>
      <point x="34" y="-172" type="line"/>
      <point x="60" y="-192"/>
      <point x="118" y="-215"/>
      <point x="249" y="-215" type="curve" smooth="yes"/>
      <point x="378" y="-215"/>
      <point x="458" y="-161"/>
      <point x="469" y="-46" type="curve" smooth="yes"/>
      <point x="497" y="254" type="line"/>
      <point x="881" y="254" type="line"/>
      <point x="881" y="269" type="line"/>
      <point x="498" y="269" type="line"/>
      <point x="520" y="500" type="line"/>
      <point x="509" y="513"/>
      <point x="503" y="534"/>
      <point x="503" y="572" type="curve" smooth="yes"/>
      <point x="503" y="628"/>
      <point x="542" y="701"/>
      <point x="685" y="701" type="curve" smooth="yes"/>
      <point x="808" y="701"/>
      <point x="887" y="658"/>
      <point x="946" y="534" type="curve"/>
      <point x="956" y="534" type="line"/>
      <point x="915" y="673" type="line"/>
      <point x="889" y="693"/>
      <point x="831" y="716"/>
      <point x="700" y="716" type="curve" smooth="yes"/>
      <point x="571" y="716"/>
      <point x="491" y="662"/>
    </contour>
  </outline>
</glyph>
<glyph name="jdotless" format="2">
  <advance width="325"/>
  <unicode hex="0237"/>
  <anchor x="163" y="-200" name="bottom"/>
  <anchor x="163" y="500" name="top"/>
  <outline>
    <contour>
      <point x="43" y="-216" type="curve" smooth="yes"/>
      <point x="201" y="-216"/>
      <point x="237" y="-136"/>
      <point x="237" y="35" type="curve" smooth="yes"/>
      <point x="237" y="500" type="line"/>
      <point x="27" y="500" type="line"/>
      <point x="27" y="490" type="line"/>
      <point x="121" y="484"/>
      <point x="197" y="483"/>
      <point x="197" y="396" type="curve" smooth="yes"/>
      <point x="197" y="21" type="line" smooth="yes"/>
      <point x="197" y="-123"/>
      <point x="165" y="-195"/>
      <point x="26" y="-195" type="curve" smooth="yes"/>
      <point x="-63" y="-195"/>
      <point x="-162" y="-156"/>
      <point x="-203" y="-87" type="curve"/>
      <point x="-216" y="-94" type="line"/>
      <point x="-176" y="-170"/>
      <point x="-60" y="-216"/>
    </contour>
  </outline>
</glyph>
<glyph name="gravecomb" format="2">
  <advance width="937"/>
  <unicode hex="0300"/>
  <anchor x="445" y="500" name="_top"/>
  <anchor x="445" y="765" name="top"/>
  <outline>
    <contour>
      <point x="293" y="736" type="line"/>
      <point x="591" y="570" type="line"/>
      <point x="596" y="579" type="line"/>
      <point x="309" y="765" type="line"/>
    </contour>
  </outline>
</glyph>
<glyph name="acutecomb" format="2">
  <advance width="937"/>
  <unicode hex="0301"/>
  <anchor x="490" y="500" name="_top"/>
  <anchor x="490" y="765" name="top"/>
  <outline>
    <contour>
      <point x="641" y="736" type="line"/>
      <point x="625" y="765" type="line"/>
      <point x="338" y="579" type="line"/>
      <point x="343" y="570" type="line"/>
    </contour>
  </outline>
</glyph>
<glyph name="circumflexcomb" format="2">
  <advance width="937"/>
  <unicode hex="0302"/>
  <anchor x="498" y="500" name="_top"/>
  <anchor x="498" y="765" name="top"/>
  <outline>
    <contour>
      <point x="785" y="579" type="line"/>
      <point x="498" y="765" type="line"/>
      <point x="211" y="579" type="line"/>
      <point x="216" y="570" type="line"/>
      <point x="498" y="727" type="line"/>
      <point x="780" y="570" type="line"/>
    </contour>
  </outline>
</glyph>
<glyph name="tildecomb" format="2">
  <advance width="1072"/>
  <unicode hex="0303"/>
  <anchor x="558" y="500" name="_top"/>
  <anchor x="558" y="695" name="top"/>
  <outline>
    <contour>
      <point x="339" y="680" type="curve" smooth="yes"/>
      <point x="450" y="680"/>
      <point x="641" y="573"/>
      <point x="757" y="573" type="curve" smooth="yes"/>
      <point x="815" y="573"/>
      <point x="873" y="579"/>
      <point x="873" y="678" type="curve"/>
      <point x="863" y="678" type="line"/>
      <point x="863" y="610"/>
      <point x="828" y="588"/>
      <point x="776" y="588" type="curve" smooth="yes"/>
      <point x="665" y="588"/>
      <point x="473" y="695"/>
      <point x="358" y="695" type="curve" smooth="yes"/>
      <point x="300" y="695"/>
      <point x="242" y="688"/>
      <point x="242" y="589" type="curve"/>
      <point x="252" y="589" type="line"/>
      <point x="252" y="657"/>
      <point x="287" y="680"/>
    </contour>
  </outline>
</glyph>
<glyph name="macroncomb" format="2">
  <advance width="600"/>
  <unicode hex="0304"/>
  <anchor x="372" y="500" name="_top"/>
  <anchor x="372" y="682" name="top"/>
  <outline>
    <contour>
      <point x="122" y="682" type="line"/>
      <point x="122" y="657" type="line"/>
      <point x="592" y="657" type="line"/>
      <point x="592" y="682" type="line"/>
    </contour>
  </outline>
</glyph>
<glyph name="brevecomb" format="2">
  <advance width="600"/>
  <unicode hex="0306"/>
  <anchor x="306" y="500" name="_top"/>
  <anchor x="309" y="769" name="top"/>
  <outline>
    <contour>
      <point x="50" y="769" type="line"/>
      <point x="50" y="656"/>
      <point x="151" y="574"/>
      <point x="309" y="574" type="curve" smooth="yes"/>
      <point x="467" y="574"/>
      <point x="568" y="656"/>
      <point x="568" y="769" type="curve"/>
      <point x="558" y="769" type="line"/>
      <point x="558" y="673"/>
      <point x="464" y="612"/>
      <point x="309" y="612" type="curve" smooth="yes"/>
      <point x="154" y="612"/>
      <point x="60" y="673"/>
      <point x="60" y="769" type="curve"/>
    </contour>
  </outline>
</glyph>
<glyph name="dotaccentcomb" format="2">
  <advance width="600"/>
  <unicode hex="0307"/>
  <anchor x="333" y="470" name="_top"/>
  <anchor x="333" y="655" name="top"/>
  <outline>
    <contour>
      <point x="371" y="623" type="curve" smooth="yes"/>
      <point x="371" y="641"/>
      <point x="356" y="655"/>
      <point x="332" y="655" type="curve" smooth="yes"/>
      <point x="309" y="655"/>
      <point x="294" y="641"/>
      <point x="294" y="623" type="curve" smooth="yes"/>
      <point x="294" y="606"/>
      <point x="309" y="592"/>
      <point x="332" y="592" type="curve" smooth="yes"/>
      <point x="356" y="592"/>
      <point x="371" y="606"/>
    </contour>
  </outline>
</glyph>
<glyph name="dieresiscomb" format="2">
  <advance width="937"/>
  <unicode hex="0308"/>
  <anchor x="503" y="500" name="_top"/>
  <anchor x="503" y="655" name="top"/>
  <outline>
    <contour>
      <point x="392" y="592" type="curve" smooth="yes"/>
      <point x="416" y="592"/>
      <point x="431" y="606"/>
      <point x="431" y="623" type="curve" smooth="yes"/>
      <point x="431" y="641"/>
      <point x="416" y="655"/>
      <point x="392" y="655" type="curve" smooth="yes"/>
      <point x="369" y="655"/>
      <point x="354" y="641"/>
      <point x="354" y="623" type="curve" smooth="yes"/>
      <point x="354" y="606"/>
      <point x="369" y="592"/>
    </contour>
    <contour>
      <point x="612" y="592" type="curve" smooth="yes"/>
      <point x="636" y="592"/>
      <point x="651" y="606"/>
      <point x="651" y="623" type="curve" smooth="yes"/>
      <point x="651" y="641"/>
      <point x="636" y="655"/>
      <point x="612" y="655" type="curve" smooth="yes"/>
      <point x="589" y="655"/>
      <point x="574" y="641"/>
      <point x="574" y="623" type="curve" smooth="yes"/>
      <point x="574" y="606"/>
      <point x="589" y="592"/>
    </contour>
  </outline>
</glyph>
<glyph name="ringcomb" format="2">
  <advance width="900"/>
  <unicode hex="030A"/>
  <anchor x="523" y="500" name="_top"/>
  <anchor x="472" y="772" name="top"/>
  <outline>
    <contour>
      <point x="472" y="597" type="curve" smooth="yes"/>
      <point x="603" y="597"/>
      <point x="711" y="627"/>
      <point x="711" y="684" type="curve" smooth="yes"/>
      <point x="711" y="741"/>
      <point x="603" y="772"/>
      <point x="472" y="772" type="curve" smooth="yes"/>
      <point x="341" y="772"/>
      <point x="233" y="741"/>
      <point x="233" y="684" type="curve" smooth="yes"/>
      <point x="233" y="627"/>
      <point x="341" y="597"/>
    </contour>
    <contour>
      <point x="472" y="614" type="curve" smooth="yes"/>
      <point x="366" y="614"/>
      <point x="255" y="638"/>
      <point x="255" y="684" type="curve" smooth="yes"/>
      <point x="255" y="730"/>
      <point x="366" y="755"/>
      <point x="472" y="755" type="curve" smooth="yes"/>
      <point x="578" y="755"/>
      <point x="689" y="730"/>
      <point x="689" y="684" type="curve" smooth="yes"/>
      <point x="689" y="638"/>
      <point x="578" y="614"/>
    </contour>
  </outline>
</glyph>
<glyph name="hungarumlautcomb" format="2">
  <advance width="600"/>
  <unicode hex="030B"/>
  <anchor x="314" y="500" name="_top"/>
  <anchor x="314" y="765" name="top"/>
  <outline>
    <contour>
      <point x="361" y="736" type="line"/>
      <point x="345" y="765" type="line"/>
      <point x="58" y="579" type="line"/>
      <point x="63" y="570" type="line"/>
    </contour>
    <contour>
      <point x="569" y="718" type="line"/>
      <point x="556" y="748" type="line"/>
      <point x="253" y="589" type="line"/>
      <point x="257" y="579" type="line"/>
    </contour>
  </outline>
</glyph>
<glyph name="caroncomb" format="2">
  <advance width="624"/>
  <unicode hex="030C"/>
  <anchor x="312" y="500" name="_top"/>
  <anchor x="312" y="769" name="top"/>
  <outline>
    <contour>
      <point x="25" y="760" type="line"/>
      <point x="312" y="574" type="line"/>
      <point x="599" y="760" type="line"/>
      <point x="594" y="769" type="line"/>
      <point x="312" y="612" type="line"/>
      <point x="30" y="769" type="line"/>
    </contour>
  </outline>
</glyph>
<glyph name="commaturnedabovecomb" format="2">
  <advance width="600"/>
  <unicode hex="0312"/>
  <anchor x="333" y="500" name="_top"/>
  <anchor x="333" y="779" name="top"/>
  <outline>
    <contour>
      <point x="354" y="779" type="line"/>
      <point x="312" y="744"/>
      <point x="292" y="704"/>
      <point x="292" y="648" type="curve" smooth="yes"/>
      <point x="292" y="598"/>
      <point x="308" y="568"/>
      <point x="341" y="568" type="curve" smooth="yes"/>
      <point x="358" y="568"/>
      <point x="373" y="578"/>
      <point x="373" y="598" type="curve" smooth="yes"/>
      <point x="373" y="612"/>
      <point x="364" y="629"/>
      <point x="342" y="629" type="curve" smooth="yes"/>
      <point x="334" y="629"/>
      <point x="326" y="626"/>
      <point x="318" y="622" type="curve"/>
      <point x="299" y="668"/>
      <point x="315" y="735"/>
      <point x="361" y="771" type="curve"/>
    </contour>
  </outline>
</glyph>
<glyph name="commaaccentcomb" format="2">
  <advance width="600"/>
  <unicode hex="0326"/>
  <anchor x="324" y="0" name="_bottom"/>
  <anchor x="324" y="-198" name="bottom"/>
  <outline>
    <contour>
      <point x="286" y="-228" type="line"/>
      <point x="343" y="-207"/>
      <point x="372" y="-171"/>
      <point x="367" y="-77" type="curve" smooth="yes"/>
      <point x="366" y="-57"/>
      <point x="351" y="-48"/>
      <point x="333" y="-48" type="curve" smooth="yes"/>
      <point x="317" y="-48"/>
      <point x="299" y="-57"/>
      <point x="299" y="-76" type="curve" smooth="yes"/>
      <point x="299" y="-97"/>
      <point x="317" y="-107"/>
      <point x="333" y="-107" type="curve" smooth="yes"/>
      <point x="337" y="-107"/>
      <point x="341" y="-107"/>
      <point x="346" y="-106" type="curve"/>
      <point x="350" y="-156"/>
      <point x="332" y="-194"/>
      <point x="280" y="-215" type="curve"/>
    </contour>
  </outline>
</glyph>
<glyph name="cedillacomb" format="2">
  <advance width="904"/>
  <unicode hex="0327"/>
  <anchor x="473" y="0" name="_bottom"/>
  <anchor x="473" y="-216" name="bottom"/>
  <outline>
    <contour>
      <point x="350" y="-177" type="curve"/>
      <point x="343" y="-191" type="line"/>
      <point x="370" y="-208"/>
      <point x="412" y="-216"/>
      <point x="455" y="-216" type="curve" smooth="yes"/>
      <point x="528" y="-216"/>
      <point x="603" y="-191"/>
      <point x="603" y="-140" type="curve" smooth="yes"/>
      <point x="603" y="-94"/>
      <point x="544" y="-58"/>
      <point x="416" y="-59" type="curve"/>
      <point x="450" y="-8" type="line"/>
      <point x="433" y="-8" type="line"/>
      <point x="395" y="-60" type="line"/>
      <point x="395" y="-68" type="line"/>
      <point x="512" y="-67"/>
      <point x="567" y="-99"/>
      <point x="567" y="-140" type="curve" smooth="yes"/>
      <point x="567" y="-181"/>
      <point x="509" y="-201"/>
      <point x="449" y="-201" type="curve" smooth="yes"/>
      <point x="412" y="-201"/>
      <point x="374" y="-193"/>
    </contour>
  </outline>
</glyph>
<glyph name="ogonekcomb" format="2">
  <advance width="600"/>
  <unicode hex="0328"/>
  <anchor x="432" y="-3" name="_ogonek"/>
  <outline>
    <contour>
      <point x="254" y="-3" type="line"/>
      <point x="125" y="-87"/>
      <point x="130" y="-231"/>
      <point x="285" y="-231" type="curve" smooth="yes"/>
      <point x="363" y="-231"/>
      <point x="400" y="-194"/>
      <point x="432" y="-169" type="curve"/>
      <point x="425" y="-163" type="line"/>
      <point x="402" y="-180"/>
      <point x="359" y="-205"/>
      <point x="305" y="-205" type="curve" smooth="yes"/>
      <point x="183" y="-205"/>
      <point x="154" y="-78"/>
      <point x="261" y="-9" type="curve"/>
    </contour>
  </outline>
</glyph>
<glyph name="mu" format="2">
  <advance width="1147"/>
  <unicode hex="03BC"/>
  <outline>
    <contour>
      <point x="236" y="278" type="line"/>
      <point x="196" y="278" type="line"/>
      <point x="196" y="205" type="line" smooth="yes"/>
      <point x="196" y="20"/>
      <point x="384" y="-15"/>
      <point x="576" y="-15" type="curve" smooth="yes"/>
      <point x="705" y="-15"/>
      <point x="835" y="17"/>
      <point x="911" y="84" type="curve"/>
      <point x="911" y="0" type="line"/>
      <point x="1121" y="0" type="line"/>
      <point x="1121" y="10" type="line"/>
      <point x="1027" y="16"/>
      <point x="951" y="17"/>
      <point x="951" y="104" type="curve" smooth="yes"/>
      <point x="951" y="500" type="line"/>
      <point x="911" y="500" type="line"/>
      <point x="911" y="170" type="line" smooth="yes"/>
      <point x="911" y="58"/>
      <point x="749" y="0"/>
      <point x="586" y="0" type="curve" smooth="yes"/>
      <point x="414" y="0"/>
      <point x="236" y="43"/>
      <point x="236" y="205" type="curve" smooth="yes"/>
    </contour>
    <contour>
      <point x="196" y="-200" type="line"/>
      <point x="236" y="-200" type="line"/>
      <point x="236" y="500" type="line"/>
      <point x="196" y="500" type="line"/>
    </contour>
  </outline>
</glyph>
<glyph name="endash" format="2">
  <advance width="578"/>
  <unicode hex="2013"/>
  <outline>
    <contour>
      <point x="98" y="266" type="line"/>
      <point x="98" y="246" type="line"/>
      <point x="480" y="246" type="line"/>
      <point x="480" y="266" type="line"/>
    </contour>
  </outline>
</glyph>
<glyph name="emdash" format="2">
  <advance width="748"/>
  <unicode hex="2014"/>
  <outline>
    <contour>
      <point x="98" y="266" type="line"/>
      <point x="98" y="246" type="line"/>
      <point x="650" y="246" type="line"/>
      <point x="650" y="266" type="line"/>
    </contour>
  </outline>
</glyph>
<glyph name="quotedblleft" format="2">
  <advance width="374"/>
  <unicode hex="201C"/>
  <outline>
    <contour>
      <point x="190" y="715" type="line"/>
      <point x="113" y="684"/>
      <point x="98" y="629"/>
      <point x="105" y="549" type="curve" smooth="yes"/>
      <point x="107" y="529"/>
      <point x="121" y="520"/>
      <point x="139" y="520" type="curve" smooth="yes"/>
      <point x="155" y="520"/>
      <point x="173" y="529"/>
      <point x="173" y="548" type="curve" smooth="yes"/>
      <point x="173" y="569"/>
      <point x="155" y="579"/>
      <point x="139" y="579" type="curve" smooth="yes"/>
      <point x="135" y="579"/>
      <point x="131" y="579"/>
      <point x="126" y="578" type="curve"/>
      <point x="119" y="628"/>
      <point x="140" y="685"/>
      <point x="194" y="705" type="curve"/>
    </contour>
    <contour>
      <point x="290" y="715" type="line"/>
      <point x="213" y="684"/>
      <point x="197" y="629"/>
      <point x="205" y="549" type="curve" smooth="yes"/>
      <point x="207" y="529"/>
      <point x="221" y="520"/>
      <point x="239" y="520" type="curve" smooth="yes"/>
      <point x="255" y="520"/>
      <point x="273" y="529"/>
      <point x="273" y="548" type="curve" smooth="yes"/>
      <point x="273" y="569"/>
      <point x="255" y="579"/>
      <point x="239" y="579" type="curve" smooth="yes"/>
      <point x="235" y="579"/>
      <point x="231" y="579"/>
      <point x="226" y="578" type="curve"/>
      <point x="219" y="628"/>
      <point x="240" y="685"/>
      <point x="294" y="705" type="curve"/>
    </contour>
  </outline>
</glyph>
<glyph name="dagger" format="2">
  <advance width="600"/>
  <unicode hex="2020"/>
  <outline>
    <contour>
      <point x="299" y="-200" type="line"/>
      <point x="309" y="-200" type="line"/>
      <point x="354" y="331" type="line"/>
      <point x="306" y="353"/>
      <point x="312" y="387"/>
      <point x="312" y="492" type="curve" smooth="yes"/>
      <point x="312" y="693"/>
      <point x="347" y="683"/>
      <point x="480" y="689" type="curve"/>
      <point x="480" y="699" type="line"/>
      <point x="128" y="699" type="line"/>
      <point x="128" y="689" type="line"/>
      <point x="261" y="683"/>
      <point x="297" y="693"/>
      <point x="297" y="492" type="curve" smooth="yes"/>
      <point x="297" y="387"/>
      <point x="302" y="353"/>
      <point x="254" y="331" type="curve"/>
    </contour>
    <contour>
      <point x="528" y="500" type="line"/>
      <point x="80" y="500" type="line"/>
      <point x="80" y="485" type="line"/>
      <point x="528" y="485" type="line"/>
    </contour>
  </outline>
</glyph>
<glyph name="daggerdbl" format="2">
  <advance width="600"/>
  <unicode hex="2021"/>
  <outline>
    <contour>
      <point x="297" y="250" type="line"/>
      <point x="254" y="48" type="line"/>
      <point x="302" y="26"/>
      <point x="297" y="-8"/>
      <point x="297" y="-73" type="curve" smooth="yes"/>
      <point x="297" y="-174"/>
      <point x="261" y="-184"/>
      <point x="128" y="-190" type="curve"/>
      <point x="128" y="-200" type="line"/>
      <point x="480" y="-200" type="line"/>
      <point x="480" y="-190" type="line"/>
      <point x="347" y="-184"/>
      <point x="312" y="-174"/>
      <point x="312" y="-73" type="curve" smooth="yes"/>
      <point x="312" y="-8"/>
      <point x="306" y="26"/>
      <point x="354" y="48" type="curve"/>
      <point x="312" y="250" type="line"/>
      <point x="354" y="451" type="line"/>
      <point x="306" y="473"/>
      <point x="312" y="507"/>
      <point x="312" y="572" type="curve" smooth="yes"/>
      <point x="312" y="673"/>
      <point x="347" y="683"/>
      <point x="480" y="689" type="curve"/>
      <point x="480" y="699" type="line"/>
      <point x="128" y="699" type="line"/>
      <point x="128" y="689" type="line"/>
      <point x="261" y="683"/>
      <point x="297" y="673"/>
      <point x="297" y="572" type="curve" smooth="yes"/>
      <point x="297" y="507"/>
      <point x="302" y="473"/>
      <point x="254" y="451" type="curve"/>
    </contour>
    <contour>
      <point x="528" y="580" type="line"/>
      <point x="80" y="580" type="line"/>
      <point x="80" y="565" type="line"/>
      <point x="528" y="565" type="line"/>
    </contour>
    <contour>
      <point x="528" y="-81" type="line"/>
      <point x="528" y="-66" type="line"/>
      <point x="80" y="-66" type="line"/>
      <point x="80" y="-81" type="line"/>
    </contour>
  </outline>
</glyph>
<glyph name="bullet" format="2">
  <advance width="385"/>
  <unicode hex="2022"/>
  <outline>
    <contour>
      <point x="192" y="209" type="curve" smooth="yes"/>
      <point x="226" y="209"/>
      <point x="258" y="229"/>
      <point x="258" y="269" type="curve" smooth="yes"/>
      <point x="258" y="307"/>
      <point x="226" y="325"/>
      <point x="192" y="325" type="curve" smooth="yes"/>
      <point x="160" y="325"/>
      <point x="126" y="307"/>
      <point x="126" y="269" type="curve" smooth="yes"/>
      <point x="126" y="229"/>
      <point x="160" y="209"/>
    </contour>
  </outline>
</glyph>
<glyph name="perthousand" format="2">
  <advance width="1406"/>
  <unicode hex="2030"/>
  <outline>
    <contour>
      <point x="150" y="0" type="line"/>
      <point x="174" y="0" type="line"/>
      <point x="883" y="715" type="line"/>
      <point x="859" y="715" type="line"/>
    </contour>
    <contour>
      <point x="304" y="463" type="curve" smooth="yes"/>
      <point x="402" y="463"/>
      <point x="481" y="519"/>
      <point x="481" y="589" type="curve" smooth="yes"/>
      <point x="481" y="657"/>
      <point x="402" y="713"/>
      <point x="304" y="713" type="curve" smooth="yes"/>
      <point x="206" y="713"/>
      <point x="127" y="657"/>
      <point x="127" y="589" type="curve" smooth="yes"/>
      <point x="127" y="519"/>
      <point x="206" y="463"/>
    </contour>
    <contour>
      <point x="466" y="589" type="curve" smooth="yes"/>
      <point x="466" y="530"/>
      <point x="385" y="501"/>
      <point x="304" y="501" type="curve" smooth="yes"/>
      <point x="223" y="501"/>
      <point x="142" y="530"/>
      <point x="142" y="589" type="curve" smooth="yes"/>
      <point x="142" y="647"/>
      <point x="222" y="676"/>
      <point x="302" y="676" type="curve" smooth="yes"/>
      <point x="384" y="676"/>
      <point x="466" y="646"/>
    </contour>
    <contour>
      <point x="699" y="-15" type="curve" smooth="yes"/>
      <point x="797" y="-15"/>
      <point x="876" y="41"/>
      <point x="876" y="111" type="curve" smooth="yes"/>
      <point x="876" y="179"/>
      <point x="797" y="235"/>
      <point x="699" y="235" type="curve" smooth="yes"/>
      <point x="601" y="235"/>
      <point x="522" y="179"/>
      <point x="522" y="111" type="curve" smooth="yes"/>
      <point x="522" y="41"/>
      <point x="601" y="-15"/>
    </contour>
    <contour>
      <point x="861" y="111" type="curve" smooth="yes"/>
      <point x="861" y="52"/>
      <point x="780" y="23"/>
      <point x="699" y="23" type="curve" smooth="yes"/>
      <point x="618" y="23"/>
      <point x="537" y="52"/>
      <point x="537" y="111" type="curve" smooth="yes"/>
      <point x="537" y="169"/>
      <point x="617" y="198"/>
      <point x="697" y="198" type="curve" smooth="yes"/>
      <point x="779" y="198"/>
      <point x="861" y="168"/>
    </contour>
    <contour>
      <point x="1129" y="-15" type="curve" smooth="yes"/>
      <point x="1227" y="-15"/>
      <point x="1306" y="41"/>
      <point x="1306" y="111" type="curve" smooth="yes"/>
      <point x="1306" y="179"/>
      <point x="1227" y="235"/>
      <point x="1129" y="235" type="curve" smooth="yes"/>
      <point x="1031" y="235"/>
      <point x="952" y="179"/>
      <point x="952" y="111" type="curve" smooth="yes"/>
      <point x="952" y="41"/>
      <point x="1031" y="-15"/>
    </contour>
    <contour>
      <point x="1291" y="111" type="curve" smooth="yes"/>
      <point x="1291" y="52"/>
      <point x="1210" y="23"/>
      <point x="1129" y="23" type="curve" smooth="yes"/>
      <point x="1048" y="23"/>
      <point x="967" y="52"/>
      <point x="967" y="111" type="curve" smooth="yes"/>
      <point x="967" y="169"/>
      <point x="1047" y="198"/>
      <point x="1127" y="198" type="curve" smooth="yes"/>
      <point x="1209" y="198"/>
      <point x="1291" y="168"/>
    </contour>
  </outline>
</glyph>
<glyph name="guilsinglleft" format="2">
  <advance width="335"/>
  <unicode hex="2039"/>
  <outline>
    <contour>
      <point x="270" y="528" type="line"/>
      <point x="54" y="261" type="line"/>
      <point x="270" y="-6" type="line"/>
      <point x="279" y="-1" type="line"/>
      <point x="92" y="261" type="line"/>
      <point x="279" y="523" type="line"/>
    </contour>
  </outline>
</glyph>
<glyph name="guilsinglright" format="2">
  <advance width="335"/>
  <unicode hex="203A"/>
  <outline>
    <contour>
      <point x="65" y="528" type="line"/>
      <point x="56" y="523" type="line"/>
      <point x="243" y="261" type="line"/>
      <point x="56" y="-1" type="line"/>
      <point x="65" y="-6" type="line"/>
      <point x="281" y="261" type="line"/>
    </contour>
  </outline>
</glyph>
<glyph name="fraction" format="2">
  <advance width="591"/>
  <unicode hex="2044"/>
  <outline>
    <contour>
      <point x="540" y="700" type="line"/>
      <point x="20" y="0" type="line"/>
      <point x="51" y="0" type="line"/>
      <point x="571" y="700" type="line"/>
    </contour>
  </outline>
</glyph>
<glyph name="euro" format="2">
  <advance width="1373"/>
  <unicode hex="20AC"/>
  <outline>
    <contour>
      <point x="770" y="-15" type="curve" smooth="yes"/>
      <point x="941" y="-15"/>
      <point x="1101" y="10"/>
      <point x="1226" y="63" type="curve"/>
      <point x="1253" y="230" type="line"/>
      <point x="1243" y="230" type="line"/>
      <point x="1197" y="60"/>
      <point x="1052" y="1"/>
      <point x="779" y="0" type="curve" smooth="yes"/>
      <point x="412" y="-1"/>
      <point x="236" y="171"/>
      <point x="236" y="344" type="curve" smooth="yes"/>
      <point x="236" y="521"/>
      <point x="420" y="700"/>
      <point x="776" y="700" type="curve" smooth="yes"/>
      <point x="1050" y="700"/>
      <point x="1197" y="641"/>
      <point x="1243" y="470" type="curve"/>
      <point x="1253" y="470" type="line"/>
      <point x="1226" y="637" type="line"/>
      <point x="1101" y="690"/>
      <point x="941" y="715"/>
      <point x="791" y="715" type="curve" smooth="yes"/>
      <point x="475" y="715"/>
      <point x="186" y="578"/>
      <point x="186" y="345" type="curve" smooth="yes"/>
      <point x="186" y="145"/>
      <point x="448" y="-15"/>
    </contour>
    <contour>
      <point x="97" y="260" type="line"/>
      <point x="1030" y="260" type="line"/>
      <point x="1030" y="275" type="line"/>
      <point x="97" y="274" type="line"/>
    </contour>
    <contour>
      <point x="97" y="427" type="line"/>
      <point x="1030" y="427" type="line"/>
      <point x="1030" y="442" type="line"/>
      <point x="97" y="442" type="line"/>
    </contour>
  </outline>
</glyph>
<glyph name="trademark" format="2">
  <advance width="1124"/>
  <unicode hex="2122"/>
  <outline>
    <contour>
      <point x="490" y="715" type="line"/>
      <point x="76" y="715" type="line"/>
      <point x="76" y="610" type="line"/>
      <point x="80" y="610" type="line"/>
      <point x="83" y="674"/>
      <point x="93" y="705"/>
      <point x="142" y="705" type="curve" smooth="yes"/>
      <point x="273" y="705" type="line"/>
      <point x="273" y="458" type="line" smooth="yes"/>
      <point x="273" y="422"/>
      <point x="240" y="421"/>
      <point x="199" y="418" type="curve"/>
      <point x="199" y="414" type="line"/>
      <point x="365" y="414" type="line"/>
      <point x="365" y="418" type="line"/>
      <point x="325" y="421"/>
      <point x="292" y="421"/>
      <point x="292" y="458" type="curve" smooth="yes"/>
      <point x="292" y="705" type="line"/>
      <point x="424" y="705" type="line" smooth="yes"/>
      <point x="472" y="705"/>
      <point x="482" y="674"/>
      <point x="485" y="610" type="curve"/>
      <point x="490" y="610" type="line"/>
    </contour>
    <contour>
      <point x="1088" y="710" type="curve"/>
      <point x="1088" y="715" type="line"/>
      <point x="994" y="715" type="line"/>
      <point x="801" y="433" type="line"/>
      <point x="598" y="715" type="line"/>
      <point x="514" y="715" type="line"/>
      <point x="514" y="711" type="line"/>
      <point x="555" y="708"/>
      <point x="587" y="707"/>
      <point x="587" y="670" type="curve" smooth="yes"/>
      <point x="587" y="458" type="line" smooth="yes"/>
      <point x="587" y="422"/>
      <point x="555" y="421"/>
      <point x="514" y="418" type="curve"/>
      <point x="514" y="414" type="line"/>
      <point x="671" y="414" type="line"/>
      <point x="671" y="418" type="line"/>
      <point x="630" y="421"/>
      <point x="597" y="421"/>
      <point x="597" y="458" type="curve" smooth="yes"/>
      <point x="597" y="682" type="line"/>
      <point x="796" y="407" type="line"/>
      <point x="994" y="697" type="line"/>
      <point x="994" y="458" type="line" smooth="yes"/>
      <point x="994" y="421"/>
      <point x="963" y="421"/>
      <point x="921" y="418" type="curve"/>
      <point x="921" y="413" type="line"/>
      <point x="1088" y="413" type="line"/>
      <point x="1088" y="418" type="line"/>
      <point x="1046" y="421"/>
      <point x="1014" y="420"/>
      <point x="1014" y="458" type="curve" smooth="yes"/>
      <point x="1014" y="670" type="line" smooth="yes"/>
      <point x="1014" y="708"/>
      <point x="1046" y="707"/>
    </contour>
  </outline>
</glyph>
